<?xml version="1.0" standalone="no"?>
<!DOCTYPE svg PUBLIC "-//W3C//DTD SVG 20010904//EN"
 "http://www.w3.org/TR/2001/REC-SVG-20010904/DTD/svg10.dtd">
<svg version="1.0" xmlns="http://www.w3.org/2000/svg"
 width="700.000000pt" height="700.000000pt" viewBox="0 0 700.000000 700.000000"
 preserveAspectRatio="xMidYMid meet">
<metadata>
Created by potrace 1.14, written by Peter Selinger 2001-2017
</metadata>
<g transform="translate(0.000000,700.000000) scale(0.100000,-0.100000)"
fill="#000000" stroke="none">
<path d="M0 4465 l0 -2535 3500 0 3500 0 0 2535 0 2535 -3500 0 -3500 0 0
-2535z m4657 1923 c112 -42 205 -160 218 -278 18 -158 75 -215 226 -231 136
-13 232 -80 288 -199 l26 -55 0 -325 0 -325 -29 -62 c-52 -113 -143 -177 -278
-194 -94 -12 -147 -36 -181 -81 -31 -43 -36 -58 -47 -145 -17 -129 -87 -229
-199 -282 l-56 -26 -1110 -5 c-1087 -5 -1111 -5 -1144 -25 -55 -32 -90 -84
-102 -150 -7 -36 -9 -154 -7 -304 l3 -246 28 -47 c18 -31 44 -57 75 -75 l47
-28 1315 -5 1315 -5 50 -27 c136 -71 208 -211 184 -357 -17 -105 -84 -197
-184 -250 l-50 -26 -1327 -3 c-1320 -2 -1327 -2 -1382 18 -71 27 -148 97 -181
164 -15 31 -29 82 -34 127 -5 41 -12 83 -17 94 -28 74 -92 114 -202 126 -171
19 -286 124 -312 285 -13 79 -13 2069 0 2148 26 161 141 266 312 285 81 9 127
29 165 69 34 36 44 64 54 151 5 45 19 96 34 127 32 66 110 137 178 163 51 20
77 20 1159 20 l1107 1 58 -22z"/>
<path d="M2369 5707 c-29 -16 -54 -40 -74 -72 l-30 -48 -3 -268 c-2 -167 1
-282 7 -307 16 -56 51 -103 96 -129 l40 -23 1094 0 c1081 0 1095 0 1137 20 24
12 54 39 70 62 l29 41 3 298 c3 279 2 301 -17 336 -24 48 -56 78 -103 98 -33
13 -166 15 -1121 15 l-1084 0 -44 -23z"/>
<path d="M2892 1610 c-164 -24 -293 -156 -348 -355 -25 -88 -31 -453 -10 -552
33 -158 123 -286 243 -345 57 -28 79 -33 159 -36 163 -7 278 45 369 168 91
124 120 258 112 520 -5 191 -17 253 -68 357 -87 179 -261 271 -457 243z m151
-204 c45 -18 91 -74 118 -143 23 -55 24 -70 24 -298 0 -230 -1 -242 -24 -300
-56 -139 -178 -197 -294 -138 -40 20 -81 82 -103 155 -28 92 -28 473 -1 563
26 82 51 120 100 150 48 29 127 34 180 11z"/>
<path d="M4865 1602 c-33 -10 -75 -26 -94 -36 -53 -28 -121 -96 -149 -151 -24
-44 -27 -62 -27 -145 0 -87 3 -100 30 -148 59 -108 168 -180 372 -246 172 -56
233 -112 233 -212 0 -95 -65 -152 -184 -161 -72 -6 -157 14 -200 48 -31 25
-62 80 -71 132 l-7 37 -110 0 -111 0 7 -47 c20 -151 141 -283 305 -334 77 -24
227 -28 306 -8 118 29 225 110 266 202 35 77 34 192 -3 269 -56 120 -150 191
-339 256 -178 62 -234 94 -265 154 -33 64 0 155 71 192 31 17 58 21 126 21 77
0 90 -3 127 -27 45 -30 72 -73 81 -128 l6 -35 113 -3 112 -3 0 30 c0 51 -36
148 -74 200 -42 56 -103 101 -185 133 -78 30 -251 35 -336 10z"/>
<path d="M3847 1590 c-133 -42 -227 -144 -284 -307 -25 -73 -27 -91 -31 -288
-4 -232 6 -310 53 -413 39 -86 74 -131 138 -179 133 -97 335 -111 489 -32 97
49 185 176 206 297 l9 52 -112 0 -112 0 -7 -41 c-9 -59 -40 -114 -83 -146 -33
-26 -44 -28 -123 -28 -79 0 -90 2 -123 28 -21 16 -48 49 -61 75 -40 80 -48
148 -44 387 4 202 6 225 27 280 56 141 191 192 318 119 47 -27 79 -83 89 -157
l7 -47 113 0 114 0 -6 33 c-12 67 -37 144 -62 190 -47 88 -149 162 -254 187
-69 16 -196 11 -261 -10z"/>
<path d="M1540 970 l0 -630 200 0 c109 0 223 5 252 11 192 40 345 198 394 407
12 52 15 106 12 242 -4 156 -7 182 -30 241 -54 144 -135 240 -251 297 -101 50
-175 62 -389 62 l-188 0 0 -630z m432 424 c136 -46 208 -195 208 -431 -1 -233
-73 -381 -208 -427 -26 -9 -79 -16 -124 -16 l-78 0 0 445 0 445 78 0 c45 0 98
-7 124 -16z"/>
</g>
</svg>
