<svg xmlns="http://www.w3.org/2000/svg" viewBox="0 0 373.75 150"><g data-name="Warstwa 2"><g data-name="Слой 1"><path style="stroke:#000;stroke-miterlimit:10;stroke-width:5px;fill:#fff" d="M2.5 2.5h368.75v145H2.5z"/><path d="M210.5 71.4c-1.36 0-2.46-.7-2.46.65v12.6a1.47 1.47 0 0 1-1.48 1.47h-14.51a2.45 2.45 0 1 0 0 4.89h14.51a2.42 2.42 0 0 0 2.44-2.38 1.47 1.47 0 0 1 1.42-1.51h.11a2.41 2.41 0 0 0 2.41-2.4V73.85a2.46 2.46 0 0 0-2.47-2.45"/><path d="M210.5 56.15a1.45 1.45 0 0 1-1.45-1.47 2.44 2.44 0 0 0-2.44-2.44H192.3a2.43 2.43 0 0 0-2.46 2.42 1.47 1.47 0 0 1-1.47 1.47 2.44 2.44 0 0 0-2.46 2.42v14.7a2.44 2.44 0 0 0 2.44 2.44 1.47 1.47 0 0 1 1.48 1.46 2.44 2.44 0 0 0 2.44 2.44h12v-4.86h-12a1.46 1.46 0 0 1-1.48-1.45V58.82a1.59 1.59 0 0 1 1.48-1.69h14.26a1.59 1.59 0 0 1 1.47 1.69V73.1c0-.81 1.64.38 2.46.38 1.37 0 2.47 3.59 2.47 2.23V58.6a2.45 2.45 0 0 0-2.45-2.45ZM279.82 56.37a1.46 1.46 0 0 1-1.48-1.45 2.44 2.44 0 0 0-2.44-2.44h-10.3v4.87h10.28a1.47 1.47 0 0 1 1.48 1.47v14.42a1.6 1.6 0 0 1-1.48 1.7h-12.94a1.61 1.61 0 0 1-1.49-1.7V59.05a3.33 3.33 0 0 1 .07-.54c0-3.29-.07-6.8-.07-6s-1.63 1.47-2.45 1.47a2.45 2.45 0 0 0-2.47 2.42v17.09a2.44 2.44 0 0 0 2.47 2.44 1.46 1.46 0 0 1 1.47 1.46 2.44 2.44 0 0 0 2.44 2.44h13a2.43 2.43 0 0 0 2.46-2.42 1.47 1.47 0 0 1 1.47-1.47 2.44 2.44 0 0 0 2.46-2.42v-14.7a2.44 2.44 0 0 0-2.43-2.45ZM171.44 67.4a1.47 1.47 0 0 1-1.44-1.47 2.43 2.43 0 0 0-2.44-2.44h-13.75a1.47 1.47 0 0 1-1.48-1.49v-3.4a1.47 1.47 0 0 1 1.47-1.47h15.66a2.45 2.45 0 1 0 .21-4.89h-15.86a2.43 2.43 0 0 0-2.46 2.42 1.46 1.46 0 0 1-1.46 1.47 2.44 2.44 0 0 0-2.46 2.42V62a2.43 2.43 0 0 0 2.43 2.44 1.48 1.48 0 0 1 1.48 1.45 2.44 2.44 0 0 0 2.43 2.45h13.73a1.45 1.45 0 0 1 1.5 1.48v3.45a1.46 1.46 0 0 1-1.46 1.46h-22a1.45 1.45 0 0 1-1.54-1.45V58.6a2.43 2.43 0 0 0-2.41-2.45 1.48 1.48 0 0 1-1.52-1.43v-.08a2.42 2.42 0 0 0-2.45-2.4h-16.45a2.41 2.41 0 0 0-2.46 2.37 1.47 1.47 0 0 1-1.43 1.51h-.1a2.4 2.4 0 0 0-2.41 2.4V70.1a2.38 2.38 0 0 0 0 .46v2.71a1.46 1.46 0 0 1-1.46 1.46h-2.92a1.45 1.45 0 0 1-1.39-1.45V58.6a2.43 2.43 0 0 0-2.4-2.45 1.47 1.47 0 0 1-1.6-1.41v-.1a2.43 2.43 0 0 0-2.46-2.4H86.11a2.41 2.41 0 0 0-2.45 2.37 1.47 1.47 0 0 1-1.44 1.51h-.08a2.41 2.41 0 0 0-2.41 2.4v14.75c0 .81-1.53 1.46-2.35 1.46H54.66a1.46 1.46 0 0 1-1.48-1.45v-3.44a1.47 1.47 0 0 1 1.47-1.46h15.16A2.45 2.45 0 0 0 72.27 66a1.47 1.47 0 0 1 1.47-1.47A2.44 2.44 0 0 0 76.21 62v-3.4a2.45 2.45 0 0 0-2.44-2.45 1.46 1.46 0 0 1-1.48-1.45 2.44 2.44 0 0 0-2.44-2.44H54.66a2.44 2.44 0 0 0-2.46 2.42 1.46 1.46 0 0 1-1.46 1.47 2.45 2.45 0 0 0-2.47 2.43v14.69a2.45 2.45 0 0 0 2.45 2.44 1.46 1.46 0 0 1 1.47 1.46 2.44 2.44 0 0 0 2.44 2.44h22.7c1.37 0 3.34-1.08 3.34-2.44a1.47 1.47 0 0 1 1.46-1.46 2.45 2.45 0 0 0 2.46-2.43V70.4a1.5 1.5 0 0 0 0-.3v-.26a1.46 1.46 0 0 1 1.47-1.46h.69a2.45 2.45 0 0 0 0-4.89h-.69A1.48 1.48 0 0 1 84.6 62v-3.4a1.47 1.47 0 0 1 1.47-1.47h16.46A1.47 1.47 0 0 1 104 58.6V62a1.48 1.48 0 0 1-1.48 1.47h-7.28a2.45 2.45 0 0 0 0 4.89h7.33a1.47 1.47 0 0 1 1.48 1.46v3.43a2.44 2.44 0 0 0 2.44 2.44 1.46 1.46 0 0 1 1.51 1.48 2.45 2.45 0 0 0 2.45 2.44h3.09a2.44 2.44 0 0 0 2.27-2.43 1.46 1.46 0 0 1 1.45-1.48 2.44 2.44 0 0 0 2.46-2.43v-3.78a1.47 1.47 0 0 1 1.44-1.11h.67a2.45 2.45 0 1 0 .21-4.89.74.74 0 0 0-.21 0h-.67a1.49 1.49 0 0 1-1.44-1.12V58.6a1.48 1.48 0 0 1 1.49-1.47h16.45a1.46 1.46 0 0 1 1.47 1.46V62a1.47 1.47 0 0 1-1.47 1.47H130a2.45 2.45 0 0 0 0 4.89h7.66a1.46 1.46 0 0 1 1.48 1.45v3.43a2.44 2.44 0 0 0 2.44 2.44 1.48 1.48 0 0 1 1.42 1.49 2.44 2.44 0 0 0 2.44 2.44h22a2.44 2.44 0 0 0 2.56-2.4 1.47 1.47 0 0 1 1.48-1.47 2.44 2.44 0 0 0 2.46-2.42v-3.48a2.44 2.44 0 0 0-2.44-2.44M53.18 58.6a1.47 1.47 0 0 1 1.48-1.47h15.15a1.48 1.48 0 0 1 1.48 1.45V62a1.48 1.48 0 0 1-1.47 1.47H54.66a1.47 1.47 0 0 1-1.48-1.42ZM218.25 42.35a2.46 2.46 0 0 1 2.46 2.45v28.06a2.46 2.46 0 0 1-2.46 2.45 2.46 2.46 0 0 1-2.46-2.45V44.8a2.46 2.46 0 0 1 2.46-2.45M323 75.3a2.45 2.45 0 0 1-2.46-2.44V44.8a2.46 2.46 0 0 1 4.92 0v28.06A2.45 2.45 0 0 1 323 75.3Z"/><path d="M259 42.35a2.46 2.46 0 0 1 2.46 2.45v26.67a2.46 2.46 0 0 1-2.46 2.45 2.46 2.46 0 0 1-2.46-2.45V44.8a2.46 2.46 0 0 1 2.46-2.45M178.65 72.85h2.28a2.33 2.33 0 0 1 2.34 2.33v2.27a2.33 2.33 0 0 1-2.34 2.32h-2.28a2.33 2.33 0 0 1-2.35-2.32v-2.27a2.34 2.34 0 0 1 2.35-2.33M253.51 73.28l-.11-3 .18-11.63a2.42 2.42 0 0 0-2.4-2.45 1.47 1.47 0 0 1-1.53-1.41v-.1a2.42 2.42 0 0 0-2.45-2.4H233a2.43 2.43 0 0 0-2.47 2.37 1.46 1.46 0 0 1-1.42 1.51H229a2.41 2.41 0 0 0-2.42 2.41v14.7a11.54 11.54 0 0 0 1.23 3.1 1.49 1.49 0 0 1 1.24-.66 2.45 2.45 0 0 0 2.46-2.43V58.6a1.47 1.47 0 0 1 1.49-1.47h14.26a1.46 1.46 0 0 1 1.47 1.46v14.68a2.45 2.45 0 0 0 2.44 2.44c.64 0 2.37-2 2.37-2.43"/><path d="M252.25 56.83c-.27.4-.58-.44-1.11-.44a2.44 2.44 0 0 0-2.45 2.43v2.88a1.6 1.6 0 0 0 0 .31v11.48a1.47 1.47 0 0 1-1.48 1.51h-9a2.41 2.41 0 0 0-2.42 2.41v.07a2.4 2.4 0 0 0 2.42 2.4h8.95a2.41 2.41 0 0 0 2.46-2.37 1.45 1.45 0 0 1 1.42-1.5h.1a2.43 2.43 0 0 0 2.42-2.42v-14.7c0-.34-.86-1.24-1.36-2M290.43 77.4v-7.69a1.47 1.47 0 0 1 1.43-1.11h.57a2.53 2.53 0 0 0 2.57-2.21 2.45 2.45 0 0 0-2.21-2.67h-.92a1.47 1.47 0 0 1-1.43-1.11v-.51h-.05v-3.28a1.47 1.47 0 0 1 1.48-1.47h16.45a1.47 1.47 0 0 1 1.48 1.47v3.42a1.47 1.47 0 0 1-1.48 1.47h-7.55a2.53 2.53 0 0 0-2.56 2.18 2.44 2.44 0 0 0 2.2 2.67h7.91a1.47 1.47 0 0 1 1.47 1.44v3.43a2.45 2.45 0 0 0 2.44 2.44 1.46 1.46 0 0 1 1.47 1.46 2.44 2.44 0 0 0 2.44 2.44V75a1.45 1.45 0 0 1-1.48-1.45V58.82a2.42 2.42 0 0 0-2.39-2.45 1.46 1.46 0 0 1-1.52-1.4v-.11a2.43 2.43 0 0 0-2.44-2.4h-16.45a2.42 2.42 0 0 0-2.45 2.39 1.47 1.47 0 0 1-1.41 1.52h-.1a2.41 2.41 0 0 0-2.42 2.41v11.54a2.38 2.38 0 0 0 0 .46v6.62a2.46 2.46 0 0 0 4.92 0M226.52 71.32v2.18a1.45 1.45 0 0 1-1.46 1.5h-2.9a1.47 1.47 0 0 1-1.48-1.45V71c-1.61-.07-3.25.08-4.87.08h-.05v2.42a2.43 2.43 0 0 0 2.44 2.44 1.47 1.47 0 0 1 1.47 1.47 2.45 2.45 0 0 0 2.45 2.44h3.09a2.43 2.43 0 0 0 2.26-2.43A1.47 1.47 0 0 1 229 76a2.45 2.45 0 0 0 2.46-2.43v-2.24Z"/><path d="M226.52 71.32v2.18a1.45 1.45 0 0 1-1.46 1.5h-2.9a1.47 1.47 0 0 1-1.48-1.45V71c-1.61-.07-3.25.08-4.87.08h-.05v2.42a2.43 2.43 0 0 0 2.44 2.44 1.47 1.47 0 0 1 1.47 1.47 2.45 2.45 0 0 0 2.45 2.44h3.09a2.43 2.43 0 0 0 2.26-2.43A1.47 1.47 0 0 1 229 76a2.45 2.45 0 0 0 2.46-2.43v-2.24ZM320.58 71.32v2.18a1.46 1.46 0 0 1-1.46 1.5h-2.93a1.46 1.46 0 0 1-1.47-1.45V71c-1.62-.07-3.26.08-4.87.08h-.06v2.42a2.44 2.44 0 0 0 2.44 2.44 1.47 1.47 0 0 1 1.48 1.47 2.44 2.44 0 0 0 2.44 2.44h3.09a2.43 2.43 0 0 0 2.26-2.43A1.47 1.47 0 0 1 323 76a2.44 2.44 0 0 0 2.46-2.42v-2.2ZM202.67 74.73h1.72a2.45 2.45 0 1 1 0 4.89h-1.72a2.45 2.45 0 1 1 0-4.89M265.6 52.46h2.46v4.89h-2.46a2.45 2.45 0 1 1 0-4.89ZM48.26 87.45h107.91v20.2H48.26z"/><text transform="matrix(1.01 0 0 1 52.87 102.46)" style="font-size:16.73px;font-family:RobotoMono-Bold,Roboto Mono;font-weight:700;letter-spacing:.04em;fill:#fff">FRAMEWOR<tspan x="86.06" y="0" style="letter-spacing:0">K</tspan></text></g></g></svg>