<svg xmlns="http://www.w3.org/2000/svg" viewBox="0 0 365.04 150"><defs><clipPath id="a"><path style="fill:none" d="M56.04 33.42H309v76.57H56.04z"/></clipPath></defs><g data-name="Warstwa 2"><g data-name="Слой 1"><path style="fill:#fff;stroke:#000;stroke-miterlimit:10;stroke-width:5px" d="M2.5 2.5h360.04v145H2.5z"/><g style="clip-path:url(#a)"><path d="M94.33 108.36A36.66 36.66 0 1 1 131 71.7a36.7 36.7 0 0 1-36.66 36.66" style="fill:#00e69e"/><path d="M94.33 33.42a38.28 38.28 0 1 0 38.28 38.28 38.28 38.28 0 0 0-38.28-38.28m0 3.24a35 35 0 1 1-35 35 35.07 35.07 0 0 1 35-35"/><path d="M82.26 62.43a2 2 0 0 1 2-2h20.3a2 2 0 0 1 2 2v4.62a2 2 0 0 1-2 2H84.24a2 2 0 0 1-2-1.91Zm8.21 21.77h-6.23a2 2 0 0 1-2-2v-4.59a2 2 0 0 1 2-2h20.19a3.37 3.37 0 0 0 3.41-3.3 2 2 0 0 1 2-2 3.22 3.22 0 0 0 3.3-3.19v-4.79a3.23 3.23 0 0 0-3.3-3.2 2 2 0 0 1-2-2 3.37 3.37 0 0 0-3.41-3.3h-20.3a3.22 3.22 0 0 0-3.19 3.3 2 2 0 0 1-2 2 3.22 3.22 0 0 0-3.3 3.19v20a3.23 3.23 0 0 0 3.36 3.2 2 2 0 0 1 2 2 3.22 3.22 0 0 0 3.19 3.3h24.32a3.3 3.3 0 1 0 0-6.59h-18ZM207 54.59V55a1.05 1.05 0 0 0 1.06 1.05h15.15a.76.76 0 0 0 .77-.77v-.77a.76.76 0 0 1 .77-.77h.41A.77.77 0 0 0 226 53v-3.49a.76.76 0 0 0-.77-.77h-.79a.77.77 0 0 1-.77-.77v-.91a.77.77 0 0 0-.77-.77h-9a.77.77 0 0 1-.77-.77V43.2a.76.76 0 0 1 .77-.77h10.7a.76.76 0 0 0 .77-.77v-1.4a.76.76 0 0 0-.77-.77h-11.34a.76.76 0 0 0-.77.77v.85a.78.78 0 0 1-.77.77h-.81a.76.76 0 0 0-.77.77v3.47a.77.77 0 0 0 .77.77h.81a.77.77 0 0 1 .77.77v.8a.76.76 0 0 0 .77.77H222a1.05 1.05 0 0 1 1 1.06v2.06a.77.77 0 0 1-.77.77h-13.45m0 0a.76.76 0 0 1-.76-.77v-9.42a1.06 1.06 0 0 0-1.06-1h-.24a1.05 1.05 0 0 1-1.05-1.06v-.28a1.06 1.06 0 0 0-1.06-1h-10.72a1.06 1.06 0 0 0-1.06 1v.28a1.05 1.05 0 0 1-1.05 1.06h-.24a1.06 1.06 0 0 0-1.06 1v9.13a1.05 1.05 0 0 1-1 1.06h-.9a1.05 1.05 0 0 1-1.05-1.06v-9.13a1.06 1.06 0 0 0-1.06-1h-.24a1.05 1.05 0 0 1-1.05-1.06v-.28a1.06 1.06 0 0 0-1.06-1h-10.77a1.06 1.06 0 0 0-1.06 1v.28a1.05 1.05 0 0 1-1 1.06H171a1.06 1.06 0 0 0-1.06 1v9.13a1.05 1.05 0 0 1-1.05 1.06h-13.84a1.05 1.05 0 0 1-1.05-1.06V50.3a1.06 1.06 0 0 1 1.06-1.06h9.24a1 1 0 0 0 1.05-1.05v-.25a1.06 1.06 0 0 1 1.06-1h.36a1.05 1.05 0 0 0 1.05-1.06v-2.9a1 1 0 0 0-1.05-1h-.36a1.06 1.06 0 0 1-1.06-1.06v-.28a1 1 0 0 0-1.05-1h-9.84a1 1 0 0 0-1 1v.28a1.05 1.05 0 0 1-1.06 1.06h-.24a1 1 0 0 0-1 1v9.84a1 1 0 0 0 1 1h.28a1.06 1.06 0 0 1 1.06 1.06V55a1 1 0 0 0 1.05 1.05h14.87a1.05 1.05 0 0 0 1-1.05v-.13a1.06 1.06 0 0 1 1.05-1.06h.36a1.06 1.06 0 0 0 1.06-1V50.3a1.06 1.06 0 0 1 1.05-1.06h1.69a1.05 1.05 0 0 0 1.06-1.05v-.83a1.05 1.05 0 0 0-1.06-1.06h-1.69a1 1 0 0 1-1.05-1v-1.81a1.05 1.05 0 0 1 1.05-1.06h9.54a1.05 1.05 0 0 1 1.05 1.06v1.76a1 1 0 0 1-1.05 1h-4.65a1.05 1.05 0 0 0-1.05 1.06v.83a1 1 0 0 0 1.05 1.05h4.65a1.06 1.06 0 0 1 1.05 1.06v2.47a1.06 1.06 0 0 0 1.06 1h.19a1.06 1.06 0 0 1 1.06 1.06V55a1 1 0 0 0 1 1.05H190a1.05 1.05 0 0 0 1.1-1.05v-.13a1.06 1.06 0 0 1 1.05-1.06h.22a1.06 1.06 0 0 0 1.06-1V50.3a1.06 1.06 0 0 1 1-1.06h1.69a1.05 1.05 0 0 0 1.06-1.05v-.83a1.05 1.05 0 0 0-1.06-1.06h-1.69a1 1 0 0 1-1-1v-1.81a1.05 1.05 0 0 1 1-1.06H204a1.05 1.05 0 0 1 1 1.06v1.76a1 1 0 0 1-1 1h-4.65a1.05 1.05 0 0 0-1.05 1.06v.83a1 1 0 0 0 1.05 1.05H204a1.06 1.06 0 0 1 1 1.06v2.47a1.06 1.06 0 0 0 1.06 1h.13a.77.77 0 0 1 .77.77m-53-9.34v-1.66a1.05 1.05 0 0 1 1.06-1.06h8.76a1.05 1.05 0 0 1 1.06 1.06v1.76a1.05 1.05 0 0 1-1.06 1h-8.76a1.05 1.05 0 0 1-1.06-1M196.87 98.69a2.13 2.13 0 0 1-2.14 2.13H177a2.13 2.13 0 0 1-2.14-2.13V81.26a2.14 2.14 0 0 1 2.14-2.15h17.78a2.14 2.14 0 0 1 2.14 2.15ZM200.69 78H200a2.14 2.14 0 0 1-2.14-2.14v-.56a2.14 2.14 0 0 0-2.14-2.14h-19.97a2.14 2.14 0 0 0-2.14 2.14v.56a2.14 2.14 0 0 1-2.14 2.14H171a2.14 2.14 0 0 0-2.14 2.14v19.94a2.14 2.14 0 0 0 2.14 2.14h.57a2.14 2.14 0 0 1 2.14 2.14v.26a2.14 2.14 0 0 0 2.14 2.14h19.86a2.14 2.14 0 0 0 2.14-2.14v-.49A2.14 2.14 0 0 1 200 102h.72a2.13 2.13 0 0 0 2.14-2.13V80.13a2.14 2.14 0 0 0-2.17-2.13M162.68 74.87h-3.42a2.13 2.13 0 0 1-2.14-2.13v-9.55a2.15 2.15 0 0 0-2.12-2.13h-1.77a2.13 2.13 0 0 0-2.14 2.13v41.46a2.14 2.14 0 0 0 2.14 2.14h1.74a2.14 2.14 0 0 0 2.15-2.14V82.11c.19-.92 1.11-1.28 2.17-1.28h3.42a2.14 2.14 0 0 0 2.15-2.14V77a2.14 2.14 0 0 0-2.15-2.14M243.69 81.24a2.16 2.16 0 0 1 2.14-2.14h17.78a2.14 2.14 0 0 1 2.14 2.14v3.57a2.12 2.12 0 0 1-2.14 2.19h-17.78a2.14 2.14 0 0 1-2.14-2.14ZM306.86 78h-.73a2.14 2.14 0 0 1-2.13-2.16v-.57a2.14 2.14 0 0 0-2.14-2.14h-23.59a2.14 2.14 0 0 0-2.14 2.14V87.9L276 99.25a1.56 1.56 0 0 1-1.56 1.56h-28.61a2.14 2.14 0 0 1-2.14-2.14v-3.61a2.14 2.14 0 0 1 2.14-2.14h18.75a2.16 2.16 0 0 0 2.14-2.14v-.49a2.13 2.13 0 0 1 2.15-2.14h.71a2.16 2.16 0 0 0 2.14-2.15v-5.86a2.14 2.14 0 0 0-2.14-2.14h-.71a2.14 2.14 0 0 1-2.15-2.14v-.58a2.16 2.16 0 0 0-2.14-2.14h-19.95a2.16 2.16 0 0 0-2.14 2.14v.58a2.14 2.14 0 0 1-2.15 2.14h-.48a2.14 2.14 0 0 0-2.14 2.15v19.92a2.14 2.14 0 0 0 2.14 2.14h.58a2.16 2.16 0 0 1 2.14 2.14v.26a2.14 2.14 0 0 0 2.15 2.14h31.14a2.14 2.14 0 0 0 2.14-2.15v-.83a1.56 1.56 0 0 1 1.56-1.56h.26a2.14 2.14 0 0 0 2.17-2.11v-2.64a2.25 2.25 0 0 0 .07-.52v-15.7a2.14 2.14 0 0 1 2.14-2.14h16.71a2.14 2.14 0 0 1 2.08 2.14v23.39a2.14 2.14 0 0 0 2.14 2.15h1.69a2.14 2.14 0 0 0 2.14-2.15V80.12a2.14 2.14 0 0 0-2.11-2.12M233.31 100.7h-3.06A2.37 2.37 0 0 1 228 99v-4.13a2.14 2.14 0 0 0-2.14-2.15h-1.49a2.14 2.14 0 0 1-2.14-2.14v-1.15a2.14 2.14 0 0 1 2.14-2.14h1.49a2.14 2.14 0 0 0 2.14-2.14v-3.86a2.14 2.14 0 0 1 2.14-2.14h1.41a2.14 2.14 0 0 0 2.14-2.15v-1.3a2.14 2.14 0 0 0-2.14-2.14h-1.69a2.14 2.14 0 0 0-2.14 2.14v1a2.14 2.14 0 0 1-2.14 2.14h-1.41A2.14 2.14 0 0 0 222 81v3.86a2.14 2.14 0 0 1-2.11 2.14h-4.33a2.14 2.14 0 0 1-2.15-2.14V63.2a2.14 2.14 0 0 0-2.14-2.14h-1.74a2.14 2.14 0 0 0-2.14 2.14v41.46a2.13 2.13 0 0 0 2.14 2.13h1.76a2.13 2.13 0 0 0 2.14-2.13v-9.55a2.14 2.14 0 0 1 2.16-2.11h4.3a2.14 2.14 0 0 1 2.11 2.12V100a2.24 2.24 0 0 0 2.25 2.15h.39a2.14 2.14 0 0 1 2.15 2.14v.26a2.14 2.14 0 0 0 2.14 2.14h4.35a2.14 2.14 0 0 0 2.14-2.14v-1.69a2.14 2.14 0 0 0-2.14-2.14"/></g></g></g></svg>