<svg xmlns="http://www.w3.org/2000/svg" viewBox="0 0 437 150"><g data-name="Warstwa 2"><g data-name="Слой 1"><path style="stroke:#000;stroke-miterlimit:10;stroke-width:5px;fill:#fff" d="M2.5 2.5h432v145H2.5z"/><path d="M63.79 38.46h44.57A14.63 14.63 0 0 1 123 53.1v44.57a14.63 14.63 0 0 1-14.64 14.64H63.79a14.63 14.63 0 0 1-14.64-14.64V53.1a14.63 14.63 0 0 1 14.64-14.64"/><path d="M63.81 37.69h44.57A14.63 14.63 0 0 1 123 52.33V96.9a14.63 14.63 0 0 1-14.64 14.64H63.81A14.63 14.63 0 0 1 49.17 96.9V52.33a14.63 14.63 0 0 1 14.64-14.64"/><path d="m87.19 77.66-3.69 11.6 12.74-16.17H87.1l4.53-14.22h-8.25l-6 18.78Zm-4.87 16.08h-2.18l4.53-14.22h-9.79L82 57.08h12.13l-4.5 14.18h10.42Z"/><path d="M106.29 55.05a28.75 28.75 0 0 0-20.2-8.33H86a28.67 28.67 0 1 0 20.3 8.33" style="fill:#fff"/><path d="m87.28 77.59-3.6 11.31 12.39-15.74h-9.09L91.51 59h-8.09l-5.93 18.62Zm-4.94 16.22H80l4.53-14.22h-9.79L82 57h12.28l-4.57 14.19h10.48ZM143.78 47.78a1 1 0 0 1 1-1h8a1 1 0 0 1 1 1v1.6a1 1 0 0 1-1 1h-8a1 1 0 0 1-1-1Zm64 10.79v-.71a.7.7 0 0 1 .7-.7h.38a.7.7 0 0 0 .7-.71v-3.17a.7.7 0 0 0-.7-.7h-.73a.7.7 0 0 1-.7-.71V51a.7.7 0 0 0-.7-.7h-8.24a.71.71 0 0 1-.71-.7v-2.09a.7.7 0 0 1 .71-.7h9.78a.71.71 0 0 0 .71-.7v-1.29a.7.7 0 0 0-.71-.7H198a.7.7 0 0 0-.7.7v.78a.7.7 0 0 1-.7.7h-.75a.71.71 0 0 0-.7.71v3.17a.71.71 0 0 0 .7.71h.75a.7.7 0 0 1 .7.7v.74a.7.7 0 0 0 .7.7h8a1 1 0 0 1 1 1v1.89a.7.7 0 0 1-.7.7h-12.41a.7.7 0 0 1-.7-.7v-8.65a1 1 0 0 0-1-1H192a1 1 0 0 1-1-1v-.26a1 1 0 0 0-1-1h-9.81a1 1 0 0 0-1 1v.26a1 1 0 0 1-1 1h-.22a1 1 0 0 0-1 1v8.35a1 1 0 0 1-1 1h-.82a1 1 0 0 1-1-1v-8.35a1 1 0 0 0-1-1h-.22a1 1 0 0 1-1-1v-.26a1 1 0 0 0-1-1h-9.8a1 1 0 0 0-1 1v.26a1 1 0 0 1-1 1h-.22a1 1 0 0 0-1 1v8.35a1 1 0 0 1-1 1h-12.16a1 1 0 0 1-1-1V54a1 1 0 0 1 1-1h8.45a1 1 0 0 0 1-1v-.22a1 1 0 0 1 1-1h.33a1 1 0 0 0 1-1v-2.51a1 1 0 0 0-1-1h-.33a1 1 0 0 1-1-1v-.26a1 1 0 0 0-1-1h-9a1 1 0 0 0-1 1v.26a1 1 0 0 1-1 1h-.22a1 1 0 0 0-1 1v9a1 1 0 0 0 1 1h.25a1 1 0 0 1 1 1v.12a1 1 0 0 0 1 1h13.6a1 1 0 0 0 1-1v-.12a1 1 0 0 1 1-1h.33a1 1 0 0 0 1-1V54a1 1 0 0 1 1-1h1.55a1 1 0 0 0 1-1v-.76a1 1 0 0 0-1-1H162a1 1 0 0 1-1-1v-1.6a1 1 0 0 1 1-1h8.72a1 1 0 0 1 1 1v1.6a1 1 0 0 1-1 1h-4.22a1 1 0 0 0-1 1V52a1 1 0 0 0 1 1h4.25a1 1 0 0 1 1 1v2.26a1 1 0 0 0 1 1h.18a1 1 0 0 1 1 1v.12a1 1 0 0 0 1 1h2a1 1 0 0 0 1-1v-.12a1 1 0 0 1 1-1h.2a1 1 0 0 0 1-1V54a1 1 0 0 1 1-1h1.55a1 1 0 0 0 1-1v-.76a1 1 0 0 0-1-1h-1.55a1 1 0 0 1-1-1v-1.6a1 1 0 0 1 1-1h8.72a1 1 0 0 1 1 1v1.6a1 1 0 0 1-1 1h-4.25a1 1 0 0 0-1 1V52a1 1 0 0 0 1 1h4.25a1 1 0 0 1 1 1v2.26a1 1 0 0 0 1 1h.12a.7.7 0 0 1 .71.7v.38a1 1 0 0 0 1 1h13.86a.71.71 0 0 0 .71-.71M352.74 97.37a1.91 1.91 0 0 1-1.9 1.91H335a1.91 1.91 0 0 1-1.9-1.91v-15.5A1.9 1.9 0 0 1 335 80h15.82a1.9 1.9 0 0 1 1.9 1.9Zm3.4-18.4h-.64a1.9 1.9 0 0 1-1.9-1.9v-.51a1.91 1.91 0 0 0-1.91-1.9H334a1.9 1.9 0 0 0-1.91 1.9v.51a1.9 1.9 0 0 1-1.9 1.9h-.43a1.9 1.9 0 0 0-1.9 1.9v17.74a1.9 1.9 0 0 0 1.9 1.9h.5a1.91 1.91 0 0 1 1.9 1.91v.22a1.92 1.92 0 0 0 1.91 1.91h17.66a1.91 1.91 0 0 0 1.91-1.9v-.44a1.91 1.91 0 0 1 1.9-1.91h.64a1.91 1.91 0 0 0 1.91-1.9V80.87a1.91 1.91 0 0 0-1.91-1.9M386 99.16h-2.73a2.1 2.1 0 0 1-2-1.49V94a1.9 1.9 0 0 0-1.9-1.91H378a1.9 1.9 0 0 1-1.9-1.9v-1a1.91 1.91 0 0 1 1.9-1.91h1.33a1.9 1.9 0 0 0 1.9-1.9V81.9a1.9 1.9 0 0 1 1.91-1.9h1.25a1.91 1.91 0 0 0 1.9-1.91v-1.15a1.9 1.9 0 0 0-1.9-1.9h-1.5a1.91 1.91 0 0 0-1.91 1.9v.9a1.91 1.91 0 0 1-1.9 1.91h-1.25a1.9 1.9 0 0 0-1.91 1.9v3.44a1.9 1.9 0 0 1-1.8 1.91h-.46a1.9 1.9 0 0 1-1.9-1.9v-4.35a2 2 0 0 0-2-1.9h-.35a1.91 1.91 0 0 1-1.9-1.91v-.23a1.91 1.91 0 0 0-1.9-1.9h-3.88a1.91 1.91 0 0 0-1.9 1.9v1.5a1.9 1.9 0 0 0 1.9 1.91h2.73a2.08 2.08 0 0 1 2 1.49v3.7a1.91 1.91 0 0 0 1.91 1.9h1.33a1.9 1.9 0 0 1 1.9 1.91v1a1.91 1.91 0 0 1-1.9 1.91h-1.33a1.91 1.91 0 0 0-1.91 1.9v3.43a1.91 1.91 0 0 1-1.9 1.91h-1.25a1.91 1.91 0 0 0-1.91 1.9v1.15a1.92 1.92 0 0 0 1.91 1.91h1.5a1.91 1.91 0 0 0 1.9-1.91v-.9a1.91 1.91 0 0 1 1.91-1.9h1.25a1.91 1.91 0 0 0 1.9-1.91v-3.42a1.91 1.91 0 0 1 1.91-1.9h.32a1.9 1.9 0 0 1 1.9 1.9v4.33a2 2 0 0 0 2 1.9h.34a1.92 1.92 0 0 1 1.91 1.91v.23a1.91 1.91 0 0 0 1.9 1.9H386a1.91 1.91 0 0 0 1.9-1.9v-1.5a1.91 1.91 0 0 0-1.9-1.91M319.15 81.69a1.36 1.36 0 0 0 0-.2 1.23 1.23 0 0 1 0 .19ZM321.9 79a1.61 1.61 0 0 1-1.63-1.61 2.73 2.73 0 0 0-2.71-2.73h-11.4a2.72 2.72 0 1 0 0 5.44h9.92c2.36 0 3.09.84 3.09 1.82v15.84a1.76 1.76 0 0 1-1.64 1.88h-14.34a1.77 1.77 0 0 1-1.64-1.88V66.07a2.72 2.72 0 0 0-2.72-2.72 2.72 2.72 0 0 0-2.72 2.72V98a2.72 2.72 0 0 0 2.7 2.72 1.62 1.62 0 0 1 1.63 1.62 2.71 2.71 0 0 0 2.7 2.72h14.35a2.71 2.71 0 0 0 2.73-2.7 1.62 1.62 0 0 1 1.61-1.64 2.7 2.7 0 0 0 2.72-2.7V81.69A2.71 2.71 0 0 0 321.9 79M166.42 102.21a1.63 1.63 0 0 1 1.62-1.62 2.68 2.68 0 0 0 2.67-2.67v-3.84a2.69 2.69 0 0 0-2.68-2.7h-.2a1.64 1.64 0 0 1-1.42-1.62 2.68 2.68 0 0 0-2.68-2.67h-15a1.61 1.61 0 0 1-1.62-1.61v-3.8a1.6 1.6 0 0 1 1.61-1.62h17.16a2.7 2.7 0 0 0 .28-5.39h-17.44a2.7 2.7 0 0 0-2.7 2.67A1.63 1.63 0 0 1 144.4 79a2.7 2.7 0 0 0-2.7 2.7v3.77a2.7 2.7 0 0 0 2.67 2.7 1.62 1.62 0 0 1 1.63 1.59 2.68 2.68 0 0 0 2.67 2.67h15a1.62 1.62 0 0 1 1.62 1.6v3.8a1.61 1.61 0 0 1-1.6 1.61H144.4a2.7 2.7 0 0 0 0 5.4h19.31a2.7 2.7 0 0 0 2.71-2.66M275.25 103.07V82.53c.17-.83 1-1.16 2-1.16h3.12a2 2 0 0 0 1.95-2v-1.49a2 2 0 0 0-1.95-1.95h-3.12a2 2 0 0 1-2-1.94v-8.7a2 2 0 0 0-1.95-1.94h-1.6a1.94 1.94 0 0 0-1.95 1.94v37.78a2 2 0 0 0 1.95 2h1.59a2 2 0 0 0 1.95-2M263.85 75.94h-3.69a2.71 2.71 0 0 0-2.72 2.71 2.72 2.72 0 1 1-5.43 0v-1.13a2.79 2.79 0 0 0-2.45-2.81 2.72 2.72 0 0 0-3 2.7V98a1.63 1.63 0 0 1-1.56 1.59h-3.21a1.61 1.61 0 0 1-1.67-1.59s0 0 0-.06V81.65a2.67 2.67 0 0 0-2.63-2.72 1.68 1.68 0 0 1-1.69-1.42 2.44 2.44 0 0 1 0-.27 2.44 2.44 0 0 0-2.37-2.66h-18.55a2.67 2.67 0 0 0-2.71 2.65 1.62 1.62 0 0 1-1.56 1.68h-.12a2.68 2.68 0 0 0-2.67 2.67v12.85a2.94 2.94 0 0 0 .05.51v7.36a2.72 2.72 0 1 0 5.43 0v-8.55a1.63 1.63 0 0 1 1.58-1.23h.63a2.8 2.8 0 0 0 2.82-2.46 2.7 2.7 0 0 0-2.44-3h-1.01a1.63 1.63 0 0 1-1.58-1.23v-.57h-.05v-3.61a1.62 1.62 0 0 1 1.62-1.65H233a1.63 1.63 0 0 1 1.64 1.63v3.8a1.63 1.63 0 0 1-1.64 1.65h-8.3a2.8 2.8 0 0 0-2.82 2.43 2.71 2.71 0 0 0 2.43 3H233a1.65 1.65 0 0 1 1.64 1.63V98a2.71 2.71 0 0 0 2.7 2.72 1.63 1.63 0 0 1 1.63 1.63 2.73 2.73 0 0 0 2.72 2.72h3.39a2.71 2.71 0 0 0 2.5-2.72 1.61 1.61 0 0 1 1.62-1.62A2.7 2.7 0 0 0 252 98v-8.48a2.71 2.71 0 0 1 2.72-2.71 2.71 2.71 0 0 0 2.71-2.72 2.72 2.72 0 0 1 2.72-2.72H264a2.72 2.72 0 0 0 2.71-3 2.79 2.79 0 0 0-2.82-2.45M201.53 105a2.7 2.7 0 0 0 2.41-2.51V81.55a2.69 2.69 0 0 0-2.67-2.7 1.63 1.63 0 0 1-1.62-1.62 2.7 2.7 0 0 0-2.7-2.7h-3.77a2.7 2.7 0 0 0-2.7 2.67 1.61 1.61 0 0 1-1.59 1.62h-.05a1.62 1.62 0 0 1-1.6-1.62 2.69 2.69 0 0 0-2.7-2.67h-3.77a2.7 2.7 0 0 0-2.7 2.7 1.62 1.62 0 0 1-1.62 1.62 2.68 2.68 0 0 0-2.67 2.7v20.61a1.31 1.31 0 0 0 0 .28 2.7 2.7 0 0 0 5.39-.28V81.55a1.61 1.61 0 0 1 1.62-1.61h3.78a1.6 1.6 0 0 1 1.61 1.62V100a2.65 2.65 0 0 0 .33 1.28 2.68 2.68 0 0 0 2.35 1.39h.05a2.66 2.66 0 0 0 2.34-1.39 2.54 2.54 0 0 0 .33-1.28V81.55a1.61 1.61 0 0 1 1.61-1.62h3.78a1.62 1.62 0 0 1 1.63 1.61v20.61a2.69 2.69 0 0 0 3 2.79"/></g></g></svg>