<?xml version="1.0" encoding="UTF-8"?>
<svg id="Layer_2" data-name="Layer 2" xmlns="http://www.w3.org/2000/svg" xmlns:xlink="http://www.w3.org/1999/xlink" viewBox="0 0 537.95 591.73">
  <defs>
    <style>
      .cls-1 {
        clip-path: url(#clippath);
      }

      .cls-2, .cls-3, .cls-4 {
        fill: none;
      }

      .cls-2, .cls-5, .cls-6 {
        stroke-width: 0px;
      }

      .cls-7, .cls-8, .cls-3, .cls-9, .cls-10, .cls-4 {
        stroke-miterlimit: 10;
        stroke-width: 2px;
      }

      .cls-7, .cls-8, .cls-3, .cls-10 {
        stroke: #000;
      }

      .cls-7, .cls-6 {
        fill: #fff;
      }

      .cls-8 {
        fill: #00e69e;
      }

      .cls-9 {
        fill: #00e69e;
      }

      .cls-9, .cls-4 {
        stroke: #181716;
      }

      .cls-11 {
        clip-path: url(#clippath-1);
      }

      .cls-5, .cls-10 {
        fill: #000;
      }
    </style>
    <clipPath id="clippath">
      <rect class="cls-2" x="177.24" y="377.84" width="91.78" height="181"/>
    </clipPath>
    <clipPath id="clippath-1">
      <polygon class="cls-2" points="269.22 40.01 356.71 40.01 356.71 219.67 339.89 219.67 314.25 195.52 303.08 193.6 294.53 176.68 269.22 175.11 269.22 40.01"/>
    </clipPath>
  </defs>
  <g id="Layer_1-2" data-name="Layer 1">
    <g>
      <line class="cls-4" x1="269.22" y1="264.42" x2="269.22" y2="203.39"/>
      <polyline class="cls-4" points="269.22 180.31 269.22 41.69 536.95 41.69 536.95 300.24 269.22 300.24 269.22 288.06"/>
      <polyline class="cls-4" points="268.73 370.55 268.73 558.96 1 558.96 1 300.4 268.73 300.4 268.73 346.2"/>
      <polyline class="cls-4" points="356.81 371.34 356.81 377.96 176.95 377.96 176.95 286.06"/>
      <line class="cls-4" x1="356.81" y1="288.35" x2="356.81" y2="346.07"/>
      <polyline class="cls-4" points="176.95 265.35 176.95 219.23 356.81 219.23 356.81 265.01"/>
      <g>
        <path class="cls-7" d="M285.3,287.55v-9.04s.58-14.58-14.91-15.54c-12.04-.72-17.7,7.56-17.7,15.89v8.33h4.18l.07-7.49s-.24-11.85,11.8-12.68c5.89-.25,12.04,3.38,12.18,10.94s.14,9.23.14,9.23l4.25.36Z"/>
        <rect class="cls-8" x="247.63" y="286.06" width="42.2" height="30.83" rx="7.32" ry="7.32"/>
        <path class="cls-10" d="M275.06,298.02c0-3.33-2.7-6.03-6.03-6.03s-6.03,2.7-6.03,6.03c0,2.05,1.03,3.87,2.6,4.96l-1.76,6.62h10.38l-1.6-6.74c1.48-1.1,2.43-2.86,2.43-4.84Z"/>
      </g>
      <g>
        <path class="cls-7" d="M285.3,370.17v-9.04s.58-14.58-14.91-15.54c-12.04-.72-17.7,7.56-17.7,15.89v8.33h4.18l.07-7.49s-.24-11.85,11.8-12.68c5.89-.25,12.04,3.38,12.18,10.94s.14,9.23.14,9.23l4.25.36Z"/>
        <rect class="cls-8" x="247.63" y="368.68" width="42.2" height="30.83" rx="7.32" ry="7.32"/>
        <path class="cls-10" d="M275.06,380.63c0-3.33-2.7-6.03-6.03-6.03s-6.03,2.7-6.03,6.03c0,2.05,1.03,3.87,2.6,4.96l-1.76,6.62h10.38l-1.6-6.74c1.48-1.1,2.43-2.86,2.43-4.84Z"/>
      </g>
      <g>
        <path class="cls-7" d="M373.38,370.17v-9.04s.58-14.58-14.91-15.54c-12.04-.72-17.7,7.56-17.7,15.89v8.33h4.18l.07-7.49s-.24-11.85,11.8-12.68c5.89-.25,12.04,3.38,12.18,10.94s.14,9.23.14,9.23l4.25.36Z"/>
        <rect class="cls-8" x="335.71" y="368.68" width="42.2" height="30.83" rx="7.32" ry="7.32"/>
        <path class="cls-5" d="M363.13,380.63c0-3.33-2.7-6.03-6.03-6.03s-6.03,2.7-6.03,6.03c0,2.05,1.03,3.87,2.6,4.96l-1.76,6.62h10.38l-1.6-6.74c1.48-1.1,2.43-2.86,2.43-4.84Z"/>
      </g>
      <g>
        <path class="cls-10" d="M63.23,163.3c10.37-43.23,72.01-28.44,82.38-71.67l.72.82,4.51,5.1,10.44-31.48-31.46,7.68,3.48,3.94,1.05,1.18c-10.37,43.22-72,28.45-82.38,71.67l11.27,12.75Z"/>
        <g>
          <path class="cls-10" d="M93.08,193.16c10.37-43.23,72.01-28.44,82.38-71.67l-11.27-12.75c-10.37,43.22-72,28.45-82.38,71.67l11.27,12.75Z"/>
          <polygon class="cls-10" points="99.09 198.17 76.05 170.61 64.54 205.17 99.09 198.17"/>
        </g>
      </g>
      <g>
        <path class="cls-10" d="M371.78,481.38c10.37-43.23,72.01-28.44,82.38-71.67l.72.82,4.51,5.1,10.44-31.48-31.46,7.68,3.48,3.94,1.05,1.18c-10.37,43.22-72,28.45-82.38,71.67l11.27,12.75Z"/>
        <g>
          <path class="cls-10" d="M401.64,511.23c10.37-43.23,72.01-28.44,82.38-71.67l-11.27-12.75c-10.37,43.22-72,28.45-82.38,71.67l11.27,12.75Z"/>
          <polygon class="cls-10" points="407.65 516.24 384.61 488.69 373.09 523.24 407.65 516.24"/>
        </g>
      </g>
      <g>
        <rect class="cls-10" x="1" y="377.96" width="175.95" height="180.76"/>
        <g>
          <path class="cls-6" d="M33.08,508.4c7.52,5.45,15.57,10.25,24.23,13.61,19.98,7.76,31.61-12.48,31.61-12.48,5.77-10.63,8.3-21.37,13.2-39.34l13.59.54-16.26-63.92c-1.38-7.77,21.91-26,2.98-33.19-7.46-2.83-5.42-18.91-15.37-18.44-11.53.54-11.2.18-22.24-9.67-8.44-7.52-14.61-8.31-25.5-5.99-6.09-.71-11.36-4.11-17.17-6.05-1.67-.56-3.4-.83-5.13-1.14-8.98-1.58-12.56,1.04-15.99,3.58v222.8h39.39v-45.36"/>
          <path class="cls-3" d="M33.08,508.4c7.52,5.45,15.57,10.25,24.23,13.61,19.98,7.76,31.61-12.48,31.61-12.48,5.77-10.63,8.3-21.37,13.2-39.34l13.59.54-16.26-63.92c-1.38-7.77,21.91-26,2.98-33.19-7.46-2.83-5.42-18.91-15.37-18.44-11.53.54-11.2.18-22.24-9.67-8.44-7.52-14.61-8.31-25.5-5.99-6.09-.71-11.36-4.11-17.17-6.05-1.67-.56-3.4-.83-5.13-1.14-8.98-1.58-12.56,1.04-15.99,3.58v222.8h39.39v-45.36"/>
          <path class="cls-6" d="M69.81,399.51c-14.57,4.74-11.95,18.54-27.27,18.83-4.52.09-1.64,9.96-9.19,8.84"/>
          <path class="cls-3" d="M69.81,399.51c-14.57,4.74-11.95,18.54-27.27,18.83-4.52.09-1.64,9.96-9.19,8.84"/>
          <path class="cls-4" d="M97.05,379.2c2.68,14.46-7.74,20.26-11.76,20.31"/>
        </g>
      </g>
      <g>
        <rect class="cls-9" x="357.23" y="41.79" width="179.41" height="177.44"/>
        <g>
          <path class="cls-6" d="M499.04,175.59v43.64s37.89,0,37.89,0V4.91c-3.3-2.45-6.74-4.96-15.38-3.45-1.67.29-3.33.56-4.94,1.09-5.59,1.86-10.66,5.13-16.52,5.82-10.48-2.23-16.42-1.47-24.53,5.76-10.62,9.47-10.3,9.82-21.39,9.3-9.58-.45-7.61,15.01-14.79,17.74-18.21,6.92,4.19,24.46,2.87,31.93l-15.65,61.49,13.07-.52c4.71,17.29,7.15,27.61,12.7,37.84,0,0,11.19,19.47,30.41,12.01,8.32-3.23,16.07-7.85,23.3-13.1"/>
          <path class="cls-3" d="M499.04,175.59v43.64s37.89,0,37.89,0V4.91c-3.3-2.45-6.74-4.96-15.38-3.45-1.67.29-3.33.56-4.94,1.09-5.59,1.86-10.66,5.13-16.52,5.82-10.48-2.23-16.42-1.47-24.53,5.76-10.62,9.47-10.3,9.82-21.39,9.3-9.58-.45-7.61,15.01-14.79,17.74-18.21,6.92,4.19,24.46,2.87,31.93l-15.65,61.49,13.07-.52c4.71,17.29,7.15,27.61,12.7,37.84,0,0,11.19,19.47,30.41,12.01,8.32-3.23,16.07-7.85,23.3-13.1"/>
          <path class="cls-6" d="M505.8,92.69c-7.26,1.08-4.49-8.42-8.84-8.5-14.73-.27-12.22-13.55-26.23-18.11"/>
          <path class="cls-3" d="M505.8,92.69c-7.26,1.08-4.49-8.42-8.84-8.5-14.73-.27-12.22-13.55-26.23-18.11"/>
          <path class="cls-6" d="M450.66,68.95c-3.87-.05-13.89-5.63-11.31-19.54"/>
          <path class="cls-3" d="M453.32,67.18c-3.87-.05-13.89-5.63-11.31-19.54"/>
        </g>
      </g>
      <g>
        <path class="cls-7" d="M373.38,287.55v-9.04s.58-14.58-14.91-15.54c-12.04-.72-17.7,7.56-17.7,15.89v8.33h4.18l.07-7.49s-.24-11.85,11.8-12.68c5.89-.25,12.04,3.38,12.18,10.94s.14,9.23.14,9.23l4.25.36Z"/>
        <rect class="cls-8" x="335.71" y="286.06" width="42.2" height="30.83" rx="7.32" ry="7.32"/>
        <path class="cls-5" d="M363.13,298.02c0-3.33-2.7-6.03-6.03-6.03s-6.03,2.7-6.03,6.03c0,2.05,1.03,3.87,2.6,4.96l-1.76,6.62h10.38l-1.6-6.74c1.48-1.1,2.43-2.86,2.43-4.84Z"/>
      </g>
      <g>
        <path class="cls-7" d="M193.52,287.55v-9.04s.58-14.58-14.91-15.54c-12.04-.72-17.7,7.56-17.7,15.89v8.33h4.18l.07-7.49s-.24-11.85,11.8-12.68c5.89-.25,12.04,3.38,12.18,10.94.14,7.56.14,9.23.14,9.23l4.25.36Z"/>
        <rect class="cls-8" x="155.85" y="286.06" width="42.2" height="30.83" rx="7.32" ry="7.32"/>
        <path class="cls-5" d="M183.27,298.02c0-3.33-2.7-6.03-6.03-6.03s-6.03,2.7-6.03,6.03c0,2.05,1.03,3.87,2.6,4.96l-1.76,6.62h10.38l-1.6-6.74c1.48-1.1,2.43-2.86,2.43-4.84Z"/>
      </g>
      <g>
        <path class="cls-7" d="M193.52,205.75v-9.04s.58-14.58-14.91-15.54c-12.04-.72-17.7,7.56-17.7,15.89v8.33h4.18l.07-7.49s-.24-11.85,11.8-12.68c5.89-.25,12.04,3.38,12.18,10.94.14,7.56.14,9.23.14,9.23l4.25.36Z"/>
        <rect class="cls-8" x="155.85" y="204.26" width="42.2" height="30.83" rx="7.32" ry="7.32"/>
        <path class="cls-5" d="M183.27,216.21c0-3.33-2.7-6.03-6.03-6.03s-6.03,2.7-6.03,6.03c0,2.05,1.03,3.87,2.6,4.96l-1.76,6.62h10.38l-1.6-6.74c1.48-1.1,2.43-2.86,2.43-4.84Z"/>
      </g>
      <g>
        <path class="cls-7" d="M285.79,203.39v-9.04s.58-14.58-14.91-15.54c-12.04-.72-17.7,7.56-17.7,15.89v8.33h4.18l.07-7.49s-.24-11.85,11.8-12.68c5.89-.25,12.04,3.38,12.18,10.94.14,7.56.14,9.23.14,9.23l4.25.36Z"/>
        <rect class="cls-8" x="248.11" y="201.9" width="42.2" height="30.83" rx="7.32" ry="7.32"/>
        <path class="cls-5" d="M275.54,213.85c0-3.33-2.7-6.03-6.03-6.03s-6.03,2.7-6.03,6.03c0,2.05,1.03,3.87,2.6,4.96l-1.76,6.62h10.38l-1.6-6.74c1.48-1.1,2.43-2.86,2.43-4.84Z"/>
      </g>
      <rect class="cls-8" x="169.21" y="370.22" width="15.48" height="15.48" transform="translate(319.08 -14.42) rotate(45)"/>
      <rect class="cls-10" x="349.49" y="211.49" width="15.48" height="15.48" transform="translate(259.65 -188.39) rotate(45)"/>
      <g class="cls-1">
        <g>
          <path class="cls-4" d="M200.43,448.43v-8.5c0-2.35-1.9-4.25-4.25-4.25h-16.99c-2.35,0-4.25-1.9-4.25-4.25v-8.5c0-2.35-1.9-4.25-4.25-4.25h-16.99c-2.35,0-4.25,1.9-4.25,4.25v16.99c0,2.35,1.9,4.25,4.25,4.25h16.99c2.35,0,4.25,1.9,4.25,4.25v8.5c0,2.35,1.9,4.25,4.25,4.25h16.99c2.35,0,4.25,1.9,4.25,4.25h0c0,2.35-1.9,4.25-4.25,4.25h-16.99c-2.35,0-4.25,1.9-4.25,4.25v8.5c0,2.35-1.9,4.25-4.25,4.25h-16.99c-2.35,0-4.25,1.9-4.25,4.25v16.99c0,2.35,1.9,4.25,4.25,4.25h16.99c2.35,0,4.25-1.9,4.25-4.25v-8.5c0-2.35,1.9-4.25,4.25-4.25h16.99c2.35,0,4.25-1.9,4.25-4.25v-8.5c0-2.35,1.9-4.25,4.25-4.25h16.99c2.35,0,4.25-1.9,4.25-4.25v-16.99c0-2.35-1.9-4.25-4.25-4.25h-16.99c-2.35,0-4.25-1.9-4.25-4.25Z"/>
          <path class="cls-4" d="M302.38,448.43v-8.5c0-2.35-1.9-4.25-4.25-4.25h-16.99c-2.35,0-4.25-1.9-4.25-4.25v-8.5c0-2.35-1.9-4.25-4.25-4.25h-16.99c-2.35,0-4.25-1.9-4.25-4.25v-8.5c0-2.35-1.9-4.25-4.25-4.25h-16.99c-2.35,0-4.25-1.9-4.25-4.25v-11.46c0-2.35-1.9-4.25-4.25-4.25h-16.99c-2.35,0-4.25-1.9-4.25-4.25v-9.78c0-2.35-1.9-4.25-4.25-4.25h-16.99c-2.35,0-4.25-1.9-4.25-4.25v-9.04c0-2.35-1.9-4.25-4.25-4.25h-16.99c-2.35,0-4.25,1.9-4.25,4.25v16.99c0,2.35,1.9,4.25,4.25,4.25h16.99c2.35,0,4.25,1.9,4.25,4.25v9.04c0,2.35,1.9,4.25,4.25,4.25h16.99c2.35,0,4.25,1.9,4.25,4.25v9.78c0,2.35,1.9,4.25,4.25,4.25h16.99c2.35,0,4.25,1.9,4.25,4.25v11.46c0,2.35,1.9,4.25,4.25,4.25h16.72c2.35,0,4.25,1.9,4.25,4.25v8.5c0,2.35,1.9,4.25,4.25,4.25h17.26c2.35,0,4.25,1.9,4.25,4.25v8.5c0,2.35,1.9,4.25,4.25,4.25h16.72c2.35,0,4.25,1.9,4.25,4.25h0c0,2.35-1.9,4.25-4.25,4.25h-16.72c-2.35,0-4.25,1.9-4.25,4.25v8.5c0,2.35-1.9,4.25-4.25,4.25h-16.99c-2.35,0-4.25,1.9-4.25,4.25v12.74c0,2.35-1.9,4.25-4.25,4.25h-16.99c-2.35,0-4.25,1.9-4.25,4.25v10.07c0,2.35-1.9,4.25-4.25,4.25h-16.99c-2.35,0-4.25,1.9-4.25,4.25v11.17c0,2.35-1.9,4.25-4.25,4.25h-16.99c-2.35,0-4.25,1.9-4.25,4.25v10.62c0,2.35-1.9,4.25-4.25,4.25h-16.99c-2.35,0-4.25,1.9-4.25,4.25v16.99c0,2.35,1.9,4.25,4.25,4.25h16.99c2.35,0,4.25-1.9,4.25-4.25v-10.62c0-2.35,1.9-4.25,4.25-4.25h16.99c2.35,0,4.25-1.9,4.25-4.25v-11.17c0-2.35,1.9-4.25,4.25-4.25h16.99c2.35,0,4.25-1.9,4.25-4.25v-10.07c0-2.35,1.9-4.25,4.25-4.25h16.99c2.35,0,4.25-1.9,4.25-4.25v-12.74c0-2.35,1.9-4.25,4.25-4.25h16.99c2.35,0,4.25-1.9,4.25-4.25v-8.5c0-2.35,1.9-4.25,4.25-4.25h16.99c2.35,0,4.25-1.9,4.25-4.25v-8.5c0-2.35,1.9-4.25,4.25-4.25h16.72c2.35,0,4.25-1.9,4.25-4.25v-16.99c0-2.35-1.9-4.25-4.25-4.25h-16.72c-2.35,0-4.25-1.9-4.25-4.25Z"/>
          <path class="cls-4" d="M251.38,448.43v-8.5c0-2.35-1.9-4.25-4.25-4.25h-16.99c-2.35,0-4.25-1.9-4.25-4.25v-8.5c0-2.35-1.9-4.25-4.25-4.25h-16.99c-2.35,0-4.25-1.9-4.25-4.25v-8.5c0-2.35-1.9-4.25-4.25-4.25h-16.97c-2.35,0-4.25-1.9-4.25-4.25v-10.98c0-2.35-1.9-4.25-4.25-4.25h-16.99c-2.35,0-4.25,1.9-4.25,4.25v16.99c0,2.35,1.9,4.25,4.25,4.25h16.97c2.35,0,4.25,1.9,4.25,4.25v10.98c0,2.35,1.9,4.25,4.25,4.25h16.99c2.35,0,4.25,1.9,4.25,4.25v8.5c0,2.35,1.9,4.25,4.25,4.25h16.99c2.35,0,4.25,1.9,4.25,4.25v8.5c0,2.35,1.9,4.25,4.25,4.25h16.72c2.35,0,4.25,1.9,4.25,4.25h0c0,2.35-1.9,4.25-4.25,4.25h-16.72c-2.35,0-4.25,1.9-4.25,4.25v8.5c0,2.35-1.9,4.25-4.25,4.25h-16.99c-2.35,0-4.25,1.9-4.25,4.25v12.74c0,2.35-1.9,4.25-4.25,4.25h-16.99c-2.35,0-4.25,1.9-4.25,4.25v10.07c0,2.35-1.9,4.25-4.25,4.25h-16.97c-2.35,0-4.25,1.9-4.25,4.25v16.99c0,2.35,1.9,4.25,4.25,4.25h16.99c2.35,0,4.25-1.9,4.25-4.25v-10.07c0-2.35,1.9-4.25,4.25-4.25h16.97c2.35,0,4.25-1.9,4.25-4.25v-12.74c0-2.35,1.9-4.25,4.25-4.25h16.99c2.35,0,4.25-1.9,4.25-4.25v-8.5c0-2.35,1.9-4.25,4.25-4.25h16.99c2.35,0,4.25-1.9,4.25-4.25v-8.5c0-2.35,1.9-4.25,4.25-4.25h16.72c2.35,0,4.25-1.9,4.25-4.25v-16.99c0-2.35-1.9-4.25-4.25-4.25h-16.72c-2.35,0-4.25-1.9-4.25-4.25Z"/>
        </g>
      </g>
      <g class="cls-11">
        <g>
          <path class="cls-3" d="M335.47,150.42v8.5c0,2.35,1.9,4.25,4.25,4.25h16.99c2.35,0,4.25,1.9,4.25,4.25v8.5c0,2.35,1.9,4.25,4.25,4.25h16.99c2.35,0,4.25-1.9,4.25-4.25v-16.99c0-2.35-1.9-4.25-4.25-4.25h-16.99c-2.35,0-4.25-1.9-4.25-4.25v-8.5c0-2.35-1.9-4.25-4.25-4.25h-16.99c-2.35,0-4.25-1.9-4.25-4.25h0c0-2.35,1.9-4.25,4.25-4.25h16.99c2.35,0,4.25-1.9,4.25-4.25v-8.5c0-2.35,1.9-4.25,4.25-4.25h16.99c2.35,0,4.25-1.9,4.25-4.25v-16.99c0-2.35-1.9-4.25-4.25-4.25h-16.99c-2.35,0-4.25,1.9-4.25,4.25v8.5c0,2.35-1.9,4.25-4.25,4.25h-16.99c-2.35,0-4.25,1.9-4.25,4.25v8.5c0,2.35-1.9,4.25-4.25,4.25h-16.99c-2.35,0-4.25,1.9-4.25,4.25v16.99c0,2.35,1.9,4.25,4.25,4.25h16.99c2.35,0,4.25,1.9,4.25,4.25Z"/>
          <path class="cls-3" d="M233.53,150.42v8.5c0,2.35,1.9,4.25,4.25,4.25h16.99c2.35,0,4.25,1.9,4.25,4.25v8.5c0,2.35,1.9,4.25,4.25,4.25h16.99c2.35,0,4.25,1.9,4.25,4.25v8.5c0,2.35,1.9,4.25,4.25,4.25h16.99c2.35,0,4.25,1.9,4.25,4.25v11.46c0,2.35,1.9,4.25,4.25,4.25h16.99c2.35,0,4.25,1.9,4.25,4.25v9.78c0,2.35,1.9,4.25,4.25,4.25h16.99c2.35,0,4.25,1.9,4.25,4.25v9.04c0,2.35,1.9,4.25,4.25,4.25h16.99c2.35,0,4.25-1.9,4.25-4.25v-16.99c0-2.35-1.9-4.25-4.25-4.25h-16.99c-2.35,0-4.25-1.9-4.25-4.25v-9.04c0-2.35-1.9-4.25-4.25-4.25h-16.99c-2.35,0-4.25-1.9-4.25-4.25v-9.78c0-2.35-1.9-4.25-4.25-4.25h-16.99c-2.35,0-4.25-1.9-4.25-4.25v-11.46c0-2.35-1.9-4.25-4.25-4.25h-16.72c-2.35,0-4.25-1.9-4.25-4.25v-8.5c0-2.35-1.9-4.25-4.25-4.25h-17.26c-2.35,0-4.25-1.9-4.25-4.25v-8.5c0-2.35-1.9-4.25-4.25-4.25h-16.72c-2.35,0-4.25-1.9-4.25-4.25h0c0-2.35,1.9-4.25,4.25-4.25h16.72c2.35,0,4.25-1.9,4.25-4.25v-8.5c0-2.35,1.9-4.25,4.25-4.25h16.99c2.35,0,4.25-1.9,4.25-4.25v-12.74c0-2.35,1.9-4.25,4.25-4.25h16.99c2.35,0,4.25-1.9,4.25-4.25v-10.07c0-2.35,1.9-4.25,4.25-4.25h16.99c2.35,0,4.25-1.9,4.25-4.25v-11.17c0-2.35,1.9-4.25,4.25-4.25h16.99c2.35,0,4.25-1.9,4.25-4.25v-10.62c0-2.35,1.9-4.25,4.25-4.25h16.99c2.35,0,4.25-1.9,4.25-4.25V12.36c0-2.35-1.9-4.25-4.25-4.25h-16.99c-2.35,0-4.25,1.9-4.25,4.25v10.62c0,2.35-1.9,4.25-4.25,4.25h-16.99c-2.35,0-4.25,1.9-4.25,4.25v11.17c0,2.35-1.9,4.25-4.25,4.25h-16.99c-2.35,0-4.25,1.9-4.25,4.25v10.07c0,2.35-1.9,4.25-4.25,4.25h-16.99c-2.35,0-4.25,1.9-4.25,4.25v12.74c0,2.35-1.9,4.25-4.25,4.25h-16.99c-2.35,0-4.25,1.9-4.25,4.25v8.5c0,2.35-1.9,4.25-4.25,4.25h-16.99c-2.35,0-4.25,1.9-4.25,4.25v8.5c0,2.35-1.9,4.25-4.25,4.25h-16.72c-2.35,0-4.25,1.9-4.25,4.25v16.99c0,2.35,1.9,4.25,4.25,4.25h16.72c2.35,0,4.25,1.9,4.25,4.25Z"/>
          <path class="cls-3" d="M284.52,150.42v8.5c0,2.35,1.9,4.25,4.25,4.25h16.99c2.35,0,4.25,1.9,4.25,4.25v8.5c0,2.35,1.9,4.25,4.25,4.25h16.99c2.35,0,4.25,1.9,4.25,4.25v8.5c0,2.35,1.9,4.25,4.25,4.25h16.97c2.35,0,4.25,1.9,4.25,4.25v10.98c0,2.35,1.9,4.25,4.25,4.25h16.99c2.35,0,4.25-1.9,4.25-4.25v-16.99c0-2.35-1.9-4.25-4.25-4.25h-16.97c-2.35,0-4.25-1.9-4.25-4.25v-10.98c0-2.35-1.9-4.25-4.25-4.25h-16.99c-2.35,0-4.25-1.9-4.25-4.25v-8.5c0-2.35-1.9-4.25-4.25-4.25h-16.99c-2.35,0-4.25-1.9-4.25-4.25v-8.5c0-2.35-1.9-4.25-4.25-4.25h-16.72c-2.35,0-4.25-1.9-4.25-4.25h0c0-2.35,1.9-4.25,4.25-4.25h16.72c2.35,0,4.25-1.9,4.25-4.25v-8.5c0-2.35,1.9-4.25,4.25-4.25h16.99c2.35,0,4.25-1.9,4.25-4.25v-12.74c0-2.35,1.9-4.25,4.25-4.25h16.99c2.35,0,4.25-1.9,4.25-4.25v-10.07c0-2.35,1.9-4.25,4.25-4.25h16.97c2.35,0,4.25-1.9,4.25-4.25v-16.99c0-2.35-1.9-4.25-4.25-4.25h-16.99c-2.35,0-4.25,1.9-4.25,4.25v10.07c0,2.35-1.9,4.25-4.25,4.25h-16.97c-2.35,0-4.25,1.9-4.25,4.25v12.74c0,2.35-1.9,4.25-4.25,4.25h-16.99c-2.35,0-4.25,1.9-4.25,4.25v8.5c0,2.35-1.9,4.25-4.25,4.25h-16.99c-2.35,0-4.25,1.9-4.25,4.25v8.5c0,2.35-1.9,4.25-4.25,4.25h-16.72c-2.35,0-4.25,1.9-4.25,4.25v16.99c0,2.35,1.9,4.25,4.25,4.25h16.72c2.35,0,4.25,1.9,4.25,4.25Z"/>
        </g>
      </g>
    </g>
  </g>
</svg>