<?xml version="1.0" encoding="utf-8"?>
<!-- Generator: Adobe Illustrator 15.0.2, SVG Export Plug-In . SVG Version: 6.00 Build 0)  -->
<!DOCTYPE svg PUBLIC "-//W3C//DTD SVG 1.1//EN" "http://www.w3.org/Graphics/SVG/1.1/DTD/svg11.dtd">
<svg version="1.1" id="Layer_1" xmlns="http://www.w3.org/2000/svg" xmlns:xlink="http://www.w3.org/1999/xlink" x="0px" y="0px"
	 width="500px" height="162.662px" viewBox="0 0 500 162.662" enable-background="new 0 0 500 162.662" xml:space="preserve">
<g>
	<path fill="#D99962" d="M174.884,121.556h-37.706c-3.599,0-7.134,0.947-10.25,2.747l-33.432,19.309l-9.042,5.227l-5.731,3.31
		c-3.446,1.983-7.687,1.983-11.133,0l-52.985-30.592c-3.444-1.988-5.567-5.663-5.569-9.64V50.743
		c0.002-3.976,2.125-7.648,5.569-9.634l52.974-30.586c3.446-1.982,7.686-1.982,11.132,0l5.731,3.31l9.042,5.227l33.444,19.315
		c3.117,1.797,6.651,2.744,10.25,2.747h37.706c2.303-0.001,4.168-1.869,4.167-4.172c-0.001-1.485-0.792-2.858-2.077-3.604
		l-0.099-0.052L123.902,2.694c-5.85-3.361-12.992-3.579-19.036-0.581l14.518,8.386l37.317,21.544h-22.596l-31.585-18.234
		l-9.036-5.227L83.229,2.694c-6.243-3.592-13.926-3.592-20.168,0L10.081,33.281C3.844,36.884,0.001,43.54,0,50.743v61.173
		c0.001,7.205,3.844,13.862,10.081,17.468l52.979,30.586c6.244,3.588,13.924,3.588,20.168,0l10.267-5.923l9.036-5.227l31.585-18.24
		h22.596l-37.329,21.568l-14.518,8.38c6.039,3.007,13.181,2.8,19.036-0.552l52.973-30.586l0.099-0.058
		c1.995-1.144,2.685-3.688,1.541-5.683C177.77,122.348,176.383,121.549,174.884,121.556L174.884,121.556z"/>
	<path fill="#D99962" d="M49.709,111.916V50.743c0.002-3.976,2.125-7.648,5.569-9.634l29.164-16.841l-9.036-5.227L50.755,33.281
		c-6.247,3.597-10.099,10.254-10.104,17.462v61.173c0.006,7.209,3.858,13.868,10.104,17.468l24.652,14.228l9.036-5.227
		l-29.164-16.841C51.838,119.558,49.716,115.889,49.709,111.916z"/>
	<path fill="#D99962" d="M113.479,101.045c0,0-5.883,3.815-15.099,3.815c-15.389,0-25.604-10.087-25.604-23.531
		c0-13.13,11.034-23.473,24.506-23.473c9.954,0,16.028,3.688,16.028,3.688l-2.776,6.853c0,0-6.016-2.973-11.899-2.973
		c-10.668,0-17.195,6.725-17.195,16.034c0,9.117,6.969,15.836,16.423,15.836c4.579,0.014,9.096-1.048,13.188-3.101L113.479,101.045z
		"/>
	<path fill="#D99962" d="M148.513,57.828c14.094,0,24.309,9.872,24.309,23.473c0,13.356-10.406,23.467-24.309,23.467
		c-13.902,0-24.239-10.023-24.239-23.467C124.274,68.17,134.872,57.828,148.513,57.828z M148.577,97.723
		c8.792,0,15.68-7.05,15.68-16.295c0-9.245-6.533-16.359-15.68-16.359c-8.989,0-15.645,7.05-15.645,16.359
		C132.933,90.546,139.785,97.723,148.577,97.723z"/>
	<path fill="#D99962" d="M188.734,58.344h2.526l28.124,29.292V58.6h8.014v45.772h-2.131l-28.513-28.513v28.194h-8.02V58.344z"/>
	<path fill="#D99962" d="M240.5,58.606h38.211v7.37h-14.937v38.083h-8.078V65.975H240.5V58.606z"/>
	<path fill="#D99962" d="M290.941,104.059h-8.42l21.335-45.842h1.812l21.335,45.842h-8.601l-4.007-9.053h-19.524L290.941,104.059z
		 M297.724,88.606h13.838l-6.916-15.68L297.724,88.606z"/>
	<path fill="#D99962" d="M340.25,58.344h2.521l28.13,29.292V58.6h8.014v45.772h-2.137L348.27,75.859v28.194h-8.02V58.344z"/>
	<path fill="#D99962" d="M438.002,80.197v19.466c0,0-6.789,5.168-17.584,5.168c-15.389,0-25.61-10.087-25.61-23.531
		c0-13.13,11.034-23.473,24.506-23.473c10.151,0,16.034,3.688,16.034,3.688l-2.776,6.853c0,0-5.882-2.973-11.898-2.973
		c-10.668,0-17.201,6.725-17.201,16.034c0,9.117,6.969,15.836,16.423,15.836c3.528-0.002,7.028-0.613,10.349-1.806v-8.083h-12.677
		v-7.178H438.002z"/>
	<path fill="#D99962" d="M475.685,57.828C489.779,57.828,500,67.7,500,81.301c0,13.356-10.412,23.467-24.315,23.467
		c-13.902,0-24.245-10.023-24.245-23.467C451.44,68.17,462.044,57.828,475.685,57.828z M475.749,97.723
		c8.798,0,15.68-7.05,15.68-16.295c0-9.245-6.533-16.359-15.68-16.359c-8.984,0-15.645,7.05-15.645,16.359
		C460.104,90.546,466.963,97.723,475.749,97.723z"/>
</g>
</svg>
