<?xml version="1.0" encoding="utf-8"?>
<!-- Generator: Adobe Illustrator 15.0.2, SVG Export Plug-In . SVG Version: 6.00 Build 0)  -->
<!DOCTYPE svg PUBLIC "-//W3C//DTD SVG 1.1//EN" "http://www.w3.org/Graphics/SVG/1.1/DTD/svg11.dtd">
<svg version="1.1" id="Layer_1" xmlns="http://www.w3.org/2000/svg" xmlns:xlink="http://www.w3.org/1999/xlink" x="0px" y="0px"
	 width="500px" height="129.329px" viewBox="0 0 500 129.329" enable-background="new 0 0 500 129.329" xml:space="preserve">
<path fill="#052C27" d="M142.17,29.263h-5.033v27.633h27.634v-5.033H142.17V29.263z"/>
<path fill="#052C27" d="M207.625,48.727c0,2.254-0.877,3.131-3.132,3.131h-11.3c-2.254,0-3.131-0.877-3.131-3.131V29.263h-5.028
	v19.464c0,5.267,2.903,8.169,8.169,8.169h11.299c5.266,0,8.165-2.902,8.165-8.169V29.263h-5.028L207.625,48.727z"/>
<path fill="#052C27" d="M232.918,37.427v11.3c0,5.267,2.897,8.169,8.164,8.169h19.467v-5.028h-19.467
	c-2.254,0-3.132-0.879-3.132-3.132v-11.3c0-2.254,0.878-3.132,3.132-3.132h19.467v-5.027h-19.467
	C235.83,29.263,232.918,32.16,232.918,37.427z"/>
<path fill="#052C27" d="M300.283,29.263h-19.479v27.633h5.029v-11.3h14.448c2.254,0,3.133,0.878,3.133,3.131v8.169h5.026v-8.169
	c0-2.39-0.576-4.283-1.715-5.649c1.139-1.372,1.715-3.256,1.715-5.65C308.438,32.16,305.539,29.263,300.283,29.263z M285.852,34.291
	h14.433c2.254,0,3.133,0.877,3.133,3.131c0,2.253-0.879,3.136-3.133,3.136h-14.441L285.852,34.291z"/>
<path fill="#052C27" d="M348.162,29.263h-11.309c-5.268,0-8.162,2.897-8.162,8.164v11.3c0,5.267,2.896,8.169,8.162,8.169h11.299
	c5.268,0,8.171-2.902,8.171-8.169v-11.3C356.33,32.16,353.428,29.263,348.162,29.263z M333.73,37.427
	c0-2.254,0.879-3.131,3.133-3.131h11.299c2.253,0,3.132,0.877,3.132,3.131v11.3c0,2.254-0.879,3.131-3.132,3.131h-11.309
	c-2.254,0-3.132-0.877-3.132-3.131L333.73,37.427z"/>
<path fill="#052C27" d="M376.587,37.427c0,5.266,2.903,8.169,8.169,8.169h11.299c2.254,0,3.133,0.878,3.133,3.131
	c0,2.254-0.879,3.131-3.133,3.131h-19.468v5.028h19.468c5.267,0,8.164-2.902,8.164-8.169c0-5.265-2.897-8.164-8.164-8.164h-11.299
	c-2.254,0-3.135-0.878-3.135-3.136c0-2.259,0.881-3.131,3.135-3.131h19.463v-5.028h-19.463
	C379.49,29.263,376.587,32.16,376.587,37.427z"/>
<path fill="#052C27" d="M447.075,48.727c0,2.254-0.879,3.131-3.132,3.131h-11.302c-2.252,0-3.131-0.877-3.131-3.131V29.263h-5.029
	v19.464c0,5.267,2.9,8.169,8.164,8.169h11.302c5.267,0,8.17-2.902,8.17-8.169V29.263h-5.029L447.075,48.727z"/>
<path fill="#052C27" d="M480.535,34.293H500v-5.027h-19.465c-5.267,0-8.167,2.897-8.167,8.164c0,5.266,2.9,8.169,8.167,8.169h11.28
	c2.255,0,3.136,0.877,3.136,3.131c0,2.253-0.881,3.131-3.136,3.131h-19.467v5.028h19.467c5.267,0,8.166-2.903,8.166-8.168
	c0-5.266-2.899-8.165-8.166-8.165h-11.299c-2.254,0-3.133-0.877-3.133-3.135C477.385,35.163,478.281,34.293,480.535,34.293z"/>
<path fill="#052C27" d="M176.027,81.866v11.302c0,4.523,2.262,6.782,6.779,6.779h18.079v-2.258h-18.084
	c-3.01,0-4.517-1.507-4.521-4.521V81.866c0-3.008,1.507-4.517,4.521-4.517h18.078v-2.285h-18.078
	C178.286,75.08,176.027,77.35,176.027,81.866z"/>
<path fill="#052C27" d="M240.857,75.089h-11.291c-4.522,0-6.782,2.261-6.778,6.776v18.081h2.259V89.781h20.342v10.166h2.258V81.866
	C247.646,77.35,245.383,75.089,240.857,75.089z M245.379,87.519h-20.342v-5.652c0-3.008,1.506-4.517,4.521-4.517h11.299
	c3.011,0,4.519,1.509,4.521,4.517L245.379,87.519L245.379,87.519z"/>
<path fill="#052C27" d="M288.755,75.089h-18.076v24.857h2.259V88.648h15.817c4.521,0,6.782-2.261,6.782-6.782
	C295.537,77.35,293.275,75.089,288.755,75.089z M288.755,86.388h-15.817v-9.014h15.817c3.019,0,4.526,1.506,4.521,4.517
	C293.271,84.903,291.766,86.402,288.755,86.388z"/>
<path fill="#052C27" d="M320.828,75.089h-2.262v24.857h2.262V75.089z"/>
<path fill="#052C27" d="M343.859,77.353h11.302v22.595h2.259V77.353h11.301v-2.264h-24.86L343.859,77.353L343.859,77.353z"/>
<path fill="#052C27" d="M406.439,75.089h-11.302c-4.521,0-6.78,2.261-6.776,6.776v18.081h2.259V89.781h20.337v10.166h2.285V81.866
	C413.229,77.35,410.959,75.089,406.439,75.089z M410.957,87.519H390.62v-5.652c0-3.008,1.509-4.517,4.519-4.517h11.303
	c3.013,0,4.517,1.509,4.517,4.517L410.957,87.519L410.957,87.519z"/>
<path fill="#052C27" d="M438.514,97.689v-22.6h-2.264v24.857h24.858v-2.258H438.514z"/>
<path fill="#F9CB8F" d="M98.656,27.204c1.122,0,2.225-0.296,3.194-0.861c0.971-0.566,1.772-1.379,2.324-2.357
	c0.551-0.978,0.833-2.085,0.815-3.207c-0.02-1.123-0.334-2.221-0.916-3.181c-0.582-0.959-1.408-1.747-2.396-2.283
	c-0.987-0.535-2.099-0.797-3.221-0.761c-1.122,0.036-2.213,0.37-3.164,0.968s-1.725,1.438-2.242,2.434H40.86v5.837h52.18
	c0.535,1.028,1.34,1.89,2.329,2.491C96.362,26.887,97.498,27.204,98.656,27.204z"/>
<path fill="#F9CB8F" d="M80.435,12.653c1.122,0.002,2.224-0.293,3.193-0.857s1.771-1.376,2.324-2.351
	c0.552-0.977,0.835-2.082,0.82-3.203c-0.015-1.121-0.327-2.218-0.906-3.179s-1.403-1.75-2.386-2.288
	c-0.985-0.539-2.094-0.805-3.214-0.773c-1.122,0.033-2.214,0.361-3.167,0.955c-0.951,0.593-1.729,1.43-2.251,2.421H40.862v5.837
	H74.8c0.532,1.036,1.34,1.904,2.334,2.511C78.127,12.333,79.27,12.654,80.435,12.653z"/>
<path fill="#F9CB8F" d="M98.656,116.676c-1.161,0-2.299,0.321-3.29,0.928c-0.991,0.604-1.797,1.47-2.329,2.5H32.104
	c-2.588,0-5.103-0.861-7.148-2.446c-2.046-1.582-3.507-3.804-4.158-6.306h59.426l0.233-20.429H35.024V3.378h-2.92
	C27.927,3.38,23.891,4.875,20.72,7.595c-3.169,2.718-5.262,6.482-5.9,10.608c-4.124,0.645-7.882,2.738-10.601,5.907
	C1.504,27.278,0.007,31.313,0,35.486v58.353c0.007,4.175,1.504,8.207,4.221,11.377c2.717,3.169,6.476,5.264,10.599,5.908
	c0.645,4.121,2.739,7.881,5.907,10.601c3.167,2.718,7.203,4.214,11.378,4.224h60.947c0.521,0.991,1.298,1.826,2.249,2.422
	c0.95,0.592,2.042,0.924,3.162,0.957c1.121,0.034,2.231-0.23,3.216-0.767c0.983-0.537,1.81-1.325,2.387-2.285
	c0.582-0.957,0.896-2.056,0.914-3.174c0.017-1.123-0.264-2.228-0.816-3.203c-0.549-0.978-1.35-1.792-2.316-2.358
	C100.878,116.977,99.778,116.676,98.656,116.676z M20.43,20.873c0-2.585,0.86-5.098,2.442-7.142
	c1.583-2.045,3.799-3.507,6.302-4.158v81.369H20.43V20.873z M17.512,105.519c-3.092-0.01-6.055-1.245-8.237-3.434
	C7.09,99.897,5.862,96.93,5.86,93.839V35.469c0.004-2.588,0.866-5.104,2.45-7.148s3.804-3.51,6.309-4.16v72.6H74.62v8.76
	L17.512,105.519L17.512,105.519z"/>
<path fill="#F9CB8F" d="M80.435,41.677c1.127-0.001,2.231-0.303,3.202-0.874c0.97-0.571,1.771-1.392,2.318-2.375
	c0.547-0.984,0.822-2.096,0.796-3.222c-0.027-1.125-0.354-2.223-0.947-3.18c-0.593-0.957-1.431-1.739-2.427-2.264
	c-0.996-0.525-2.114-0.774-3.239-0.723c-1.124,0.052-2.215,0.403-3.158,1.018c-0.945,0.613-1.707,1.47-2.208,2.477h-33.91v5.834
	h34.022c0.543,0.998,1.345,1.833,2.322,2.415C78.184,41.365,79.298,41.674,80.435,41.677z"/>
</svg>
