<?xml version="1.0" encoding="utf-8"?>
<!-- Generator: Adobe Illustrator 15.0.2, SVG Export Plug-In . SVG Version: 6.00 Build 0)  -->
<!DOCTYPE svg PUBLIC "-//W3C//DTD SVG 1.1//EN" "http://www.w3.org/Graphics/SVG/1.1/DTD/svg11.dtd">
<svg version="1.1" id="Layer_1" xmlns="http://www.w3.org/2000/svg" xmlns:xlink="http://www.w3.org/1999/xlink" x="0px" y="0px"
	 width="500px" height="184.047px" viewBox="0 0 500 184.047" enable-background="new 0 0 500 184.047" xml:space="preserve">
<path fill="#10143E" d="M233.538,46.012c4.263,0,7.802,1.045,10.618,3.138c2.813,2.089,4.305,4.95,4.479,8.576h-11.194
	c-0.129-1.235-0.556-2.066-1.28-2.494c-0.725-0.472-1.814-0.704-3.264-0.704c-1.365,0-2.429,0.232-3.196,0.704
	c-0.725,0.428-1.089,1.067-1.089,1.919c0,0.982,0.533,1.707,1.601,2.176c1.106,0.427,2.898,0.919,5.372,1.472
	c2.688,0.557,4.903,1.154,6.653,1.795c1.792,0.598,3.325,1.601,4.605,3.008c1.277,1.367,1.918,3.243,1.918,5.633
	c0,2.219-0.66,4.185-1.982,5.893c-1.28,1.704-3.069,3.05-5.372,4.032c-2.261,0.938-4.8,1.407-7.614,1.407
	c-4.434,0-8.102-0.98-11-2.946c-2.901-2.005-4.479-4.948-4.734-8.832h11.193c0.169,1.151,0.641,1.982,1.407,2.497
	c0.767,0.511,1.834,0.767,3.199,0.767c1.28,0,2.325-0.298,3.134-0.896c0.854-0.598,1.28-1.322,1.28-2.176
	c0-1.025-0.578-1.772-1.729-2.241c-1.151-0.511-2.963-1.025-5.438-1.536c-2.685-0.557-4.903-1.129-6.649-1.728
	c-1.708-0.598-3.199-1.559-4.479-2.881c-1.236-1.368-1.854-3.18-1.854-5.442c0-2.048,0.575-3.904,1.727-5.569
	c1.193-1.708,2.943-3.05,5.246-4.033C227.438,46.523,230.255,46.012,233.538,46.012z M263.901,46.396l7.931,23.366l8.701-23.366
	h11.446l-22.771,52.75h-11.446l7.61-17.732l-13.879-35.018H263.901z M325.859,47.868c-2.044-1.238-4.414-1.856-7.1-1.856
	c-2.432,0-4.583,0.512-6.459,1.536c-1.837,0.983-3.286,2.348-4.348,4.098v-5.249h-10.941v35.723h10.941v-19.4
	c0-2.303,0.596-4.075,1.786-5.313c1.236-1.277,2.921-1.918,5.056-1.918c2.134,0,3.797,0.641,4.987,1.918
	c1.235,1.238,1.854,3.011,1.854,5.313v19.4h10.874V61.247c0-3.114-0.596-5.824-1.786-8.13
	C329.572,50.814,327.949,49.064,325.859,47.868z M355.426,46.012c4.561,0,8.061,1.686,10.492,5.059v-4.674h10.936v35.723h-10.936
	v-5.188c-2.646,3.755-6.145,5.634-10.492,5.634c-2.943,0-5.673-0.767-8.189-2.306c-2.471-1.533-4.437-3.69-5.886-6.465
	s-2.174-5.931-2.174-9.476c0-3.541,0.725-6.7,2.174-9.473c1.449-2.774,3.415-4.929,5.886-6.467
	C349.753,46.801,352.482,46.012,355.426,46.012z M358.11,55.487c-1.28,0-2.538,0.34-3.774,1.025c-1.19,0.638-2.174,1.62-2.942,2.943
	c-0.725,1.322-1.085,2.942-1.085,4.863s0.36,3.545,1.085,4.867c0.769,1.28,1.752,2.261,2.942,2.946
	c1.196,0.637,2.455,0.96,3.774,0.96c1.281,0,2.517-0.323,3.713-0.96c1.235-0.686,2.219-1.688,2.938-3.011
	c0.77-1.323,1.157-2.943,1.157-4.864s-0.388-3.521-1.157-4.802c-0.719-1.323-1.68-2.306-2.876-2.943
	C360.694,55.827,359.437,55.487,358.11,55.487z M416.019,48.38c-2.477-1.579-5.184-2.368-8.127-2.368
	c-4.561,0-8.06,1.686-10.486,5.059v-4.674h-10.941v52.75h10.941V76.932c2.556,3.755,6.055,5.634,10.486,5.634
	c2.943,0,5.65-0.767,8.127-2.306c2.517-1.533,4.494-3.69,5.948-6.465c1.449-2.774,2.174-5.931,2.174-9.476
	c0-3.541-0.725-6.7-2.174-9.473C420.513,52.072,418.535,49.918,416.019,48.38z M401.433,56.513c1.196-0.686,2.454-1.025,3.774-1.025
	c1.28,0,2.516,0.34,3.712,1.025c1.236,0.638,2.214,1.62,2.938,2.943c0.77,1.322,1.152,2.942,1.152,4.863s-0.383,3.545-1.152,4.867
	c-0.724,1.28-1.679,2.261-2.875,2.946c-1.196,0.637-2.455,0.96-3.774,0.96c-1.281,0-2.539-0.323-3.774-0.96
	c-1.196-0.686-2.174-1.688-2.943-3.011c-0.725-1.323-1.084-2.943-1.084-4.864s0.359-3.521,1.084-4.802
	C399.259,58.133,400.236,57.15,401.433,56.513z M444.113,46.012c4.264,0,7.802,1.045,10.616,3.138
	c2.819,2.089,4.308,4.95,4.481,8.576h-11.199c-0.124-1.235-0.551-2.066-1.275-2.494c-0.725-0.472-1.813-0.704-3.263-0.704
	c-1.365,0-2.433,0.232-3.202,0.704c-0.719,0.428-1.084,1.067-1.084,1.919c0,0.982,0.534,1.707,1.601,2.176
	c1.107,0.427,2.898,0.919,5.37,1.472c2.685,0.557,4.909,1.154,6.655,1.795c1.792,0.598,3.325,1.601,4.601,3.008
	c1.28,1.367,1.921,3.243,1.921,5.633c0,2.219-0.657,4.185-1.982,5.893c-1.275,1.704-3.067,3.05-5.37,4.032
	c-2.264,0.938-4.802,1.407-7.616,1.407c-4.432,0-8.099-0.98-11.003-2.946c-2.898-2.005-4.471-4.948-4.729-8.832h11.194
	c0.168,1.151,0.641,1.982,1.41,2.497c0.764,0.511,1.831,0.767,3.195,0.767c1.275,0,2.32-0.298,3.135-0.896
	c0.854-0.598,1.274-1.322,1.274-2.176c0-1.025-0.573-1.772-1.725-2.241c-1.151-0.511-2.96-1.025-5.437-1.536
	c-2.685-0.557-4.903-1.129-6.65-1.728c-1.707-0.598-3.201-1.559-4.477-2.881c-1.241-1.368-1.859-3.18-1.859-5.442
	c0-2.048,0.579-3.904,1.73-5.569c1.19-1.708,2.938-3.05,5.24-4.033C438.014,46.523,440.828,46.012,444.113,46.012z M499.741,67.842
	c0.175-1.067,0.259-2.219,0.259-3.458c0-3.839-0.809-7.146-2.433-9.922c-1.578-2.774-3.752-4.863-6.521-6.273
	c-2.774-1.452-5.887-2.177-9.341-2.177c-3.415,0-6.465,0.747-9.149,2.241c-2.685,1.452-4.797,3.564-6.33,6.339
	c-1.494,2.729-2.241,5.931-2.241,9.602s0.747,6.914,2.241,9.73c1.533,2.775,3.646,4.906,6.33,6.4
	c2.729,1.494,5.802,2.241,9.211,2.241c4.225,0,7.869-1.087,10.941-3.266c3.067-2.219,5.111-5.12,6.14-8.706h-11.835
	c-0.77,0.938-1.494,1.623-2.173,2.05c-0.686,0.382-1.708,0.576-3.073,0.576c-1.791,0-3.279-0.492-4.477-1.475
	c-1.196-1.022-1.898-2.325-2.111-3.903H499.741z M486.441,56.959c1.274,1.025,1.999,2.367,2.174,4.033h-13.374
	c0.304-1.666,1.045-3.008,2.241-4.033c1.196-1.067,2.601-1.601,4.224-1.601C483.582,55.358,485.16,55.892,486.441,56.959z
	 M473.691,146.136l-16.249-17.604l16.249-17.67h-10.11l-12.789,15.424V98.764h-7.296v47.372h7.296v-15.177l13.048,15.177H473.691z
	 M310.082,136.34v-19.523h8.571v-5.954h-8.571v-8.773h-7.357v8.773h-4.156v5.954h4.156v19.523c0,3.46,0.876,5.954,2.623,7.493
	c1.752,1.533,4.263,2.303,7.549,2.303h5.757v-6.083h-4.477c-1.494,0-2.562-0.275-3.201-0.831
	C310.38,138.62,310.082,137.665,310.082,136.34z M239.104,110.29c2.562,0,4.864,0.572,6.909,1.724
	c2.089,1.151,3.732,2.859,4.926,5.117c1.235,2.269,1.854,4.999,1.854,8.2v20.805h-7.226v-19.715c0-3.162-0.79-5.572-2.368-7.234
	c-1.578-1.708-3.729-2.562-6.459-2.562s-4.903,0.854-6.526,2.562c-1.578,1.662-2.365,4.072-2.365,7.234v19.715h-7.293v-35.273h7.293
	v5.572c1.152-2.011,2.686-3.527,4.606-4.55C234.414,110.817,236.633,110.29,239.104,110.29z M294.395,127.505
	c0,1.241-0.078,2.387-0.253,3.454h-26.993c0.174,2.949,1.151,5.291,2.943,7.043c1.836,1.708,4.116,2.562,6.847,2.562
	c3.965,0,6.757-1.64,8.374-4.932h7.869c-1.067,3.247-3.005,5.915-5.819,8.01c-2.813,2.045-6.29,3.066-10.424,3.066
	c-3.37,0-6.358-0.741-8.959-2.235c-2.601-1.539-4.646-3.673-6.139-6.403c-1.449-2.774-2.174-5.976-2.174-9.604
	c0-3.628,0.725-6.807,2.174-9.537c1.493-2.774,3.561-4.908,6.2-6.402c2.69-1.494,5.763-2.235,9.212-2.235
	c3.325,0,6.29,0.719,8.896,2.168c2.595,1.454,4.623,3.482,6.077,6.088C293.676,121.146,294.395,124.135,294.395,127.505z
	 M286.784,125.972c-0.039-2.904-1-5.213-2.876-6.92c-1.876-1.747-4.201-2.617-6.97-2.617c-2.606,0-4.819,0.87-6.656,2.617
	c-1.792,1.707-2.813,4.016-3.072,6.92H286.784z M372.709,110.862l-10.937,35.273h-7.678l-7.1-26.057l-7.1,26.057h-7.678
	l-11.003-35.273h7.419l7.358,28.359l7.481-28.359h7.616l7.161,28.229l7.296-28.229H372.709z M402.909,112.525
	c-2.724-1.494-5.773-2.235-9.144-2.235s-6.414,0.741-9.145,2.235c-2.729,1.494-4.886,3.628-6.465,6.402
	c-1.578,2.775-2.364,5.954-2.364,9.537c0,3.629,0.764,6.83,2.303,9.604c1.533,2.73,3.646,4.864,6.33,6.403
	c2.69,1.494,5.695,2.235,9.021,2.235c3.37,0,6.442-0.741,9.211-2.235c2.814-1.539,5.033-3.695,6.656-6.471
	c1.617-2.774,2.427-5.953,2.427-9.537c0-3.583-0.787-6.762-2.365-9.537C407.796,116.153,405.64,114.02,402.909,112.525z
	 M388.458,117.839c1.578-0.938,3.303-1.404,5.179-1.404s3.622,0.466,5.246,1.404c1.623,0.898,2.92,2.263,3.903,4.1
	c0.978,1.786,1.472,3.966,1.472,6.526c0,2.562-0.512,4.764-1.539,6.595c-1.022,1.791-2.365,3.156-4.027,4.1
	c-1.623,0.933-3.37,1.404-5.246,1.404s-3.601-0.449-5.179-1.342c-1.539-0.938-2.774-2.331-3.713-4.162
	c-0.893-1.831-1.342-4.033-1.342-6.595c0-2.561,0.466-4.74,1.409-6.526C385.599,120.102,386.88,118.737,388.458,117.839z
	 M426.241,117.007c1.067-2.134,2.472-3.774,4.224-4.931c1.786-1.191,3.898-1.786,6.33-1.786v7.549h-1.854
	c-2.858,0-5.032,0.729-6.526,2.179c-1.449,1.449-2.174,3.966-2.174,7.549v18.569h-7.29v-35.273h7.29V117.007z"/>
<path fill="#10143E" d="M12.021,20.004c4.432,0,8.026-3.581,8.032-8.001c0.008-4.417-3.578-8.001-8.004-8.001
	c-4.429,0-8.026,3.583-8.032,8.001C4.011,16.423,7.595,20.004,12.021,20.004z"/>
<path fill="#10143E" d="M177.359,49.756c-4.348-9.81-10.694-18.508-18.316-25.898c-7.684-7.445-16.9-13.379-27.089-17.502
	C121.743,2.219,110.552,0,98.832,0c-1.845,0-3.176,0.969-3.965,1.854c-0.75,0.842-1.241,1.839-1.578,2.705
	c-0.691,1.758-1.172,4.061-1.531,6.608c-0.727,5.173-1.095,12.391-1.188,20.841c-0.16,14.345,0.469,32.647,1.612,51.449
	c-0.525-0.012-1.051-0.022-1.576-0.034c-3.03-0.07-6.061-0.151-9.073-0.241c1.584-10.683,2.803-20.763,3.46-29.19
	c0.542-6.914,0.725-12.896,0.37-17.231c-0.171-2.12-0.491-4.162-1.123-5.785c-0.525-1.352-2.02-4.201-5.397-4.201
	c-11.72,0-22.911,2.218-33.122,6.354c-10.188,4.126-19.406,10.06-27.089,17.505c-7.653,7.417-13.876,16.224-18.215,26
	c-0.837,1.884-0.306,3.724,0.646,4.945c0.77,0.985,1.797,1.584,2.527,1.946c1.55,0.772,3.673,1.376,6.001,1.89
	c4.771,1.051,11.663,1.975,19.853,2.771c11.941,1.16,26.938,2.076,42.802,2.683c-0.652,4.032-1.346,8.122-2.076,12.205
	c-0.505,2.825-1.027,5.645-1.561,8.453c-13.913,2.511-27.095,5.263-37.52,7.919c-6.97,1.775-12.859,3.539-16.94,5.213
	c-1.988,0.82-3.836,1.729-5.173,2.758c-0.652,0.506-1.472,1.252-2.022,2.297c-0.635,1.186-0.91,2.798-0.191,4.415
	c4.353,9.807,10.694,18.513,18.322,25.898c7.681,7.442,16.901,13.379,27.084,17.508c1.539,0.617,3.047,0.387,4.207-0.175
	c1.042-0.505,1.816-1.27,2.361-1.915c1.093-1.292,2.056-3.078,2.918-4.999c1.764-3.92,3.623-9.57,5.482-16.237
	c2.777-9.947,5.653-22.507,8.278-35.762c2.975-0.522,5.971-1.022,8.973-1.517c3.404-0.551,6.811-1.09,10.191-1.596
	c1.314,14.593,2.859,28.309,4.517,39.407c1.219,8.2,2.519,15.098,3.858,19.895c0.657,2.336,1.398,4.459,2.277,6.004
	c0.424,0.747,1.076,1.713,2.064,2.421c1.157,0.843,2.909,1.382,4.771,0.629c10.197-4.122,19.29-10.06,27.053-17.468
	c7.79-7.335,14.02-16.159,18.355-25.933c4.35-9.801,6.689-20.563,6.689-31.829c0-1.696-0.82-3.006-1.747-3.854
	c-0.843-0.775-1.831-1.225-2.646-1.517c-1.637-0.578-3.715-0.876-5.92-1.045c-4.493-0.325-10.723-0.157-17.951,0.359
	c-9.736,0.697-21.588,2.045-34.076,3.786c-0.352-4.297-0.68-8.645-0.988-13c-0.034-0.528-0.073-1.053-0.107-1.578
	c18.805,0.258,37.115,0.056,51.461-0.728c8.458-0.458,15.67-1.126,20.832-2.047c2.544-0.455,4.819-1.009,6.549-1.73
	c0.854-0.356,1.814-0.854,2.629-1.581c0.831-0.744,1.854-2.062,1.854-3.94C184.055,70.318,181.713,59.563,177.359,49.756z
	 M59.432,152.056c-1.831,6.56-3.562,11.75-5.072,15.108c-0.416,0.922-0.78,1.629-1.084,2.151
	c-8.515-3.701-16.188-8.802-22.624-15.036c-6.392-6.2-11.733-13.334-15.578-21.253c0.537-0.281,1.236-0.602,2.115-0.967
	c3.547-1.449,9.001-3.111,15.878-4.863c9.433-2.404,21.259-4.909,33.886-7.234C64.525,131.925,61.925,143.113,59.432,152.056z
	 M73.484,82.908c-16.095-0.604-31.285-1.525-43.266-2.688c-8.116-0.789-14.618-1.677-18.906-2.623
	c-0.888-0.196-1.635-0.382-2.247-0.559c3.811-7.687,8.95-14.666,15.137-20.661c6.912-6.698,15.25-12.079,24.52-15.834
	c8.726-3.532,18.274-5.535,28.317-5.748c0.129,0.614,0.258,1.474,0.348,2.608c0.298,3.69,0.163,9.161-0.37,15.963
	C76.354,61.809,75.11,72.031,73.484,82.908z M83.1,109.031c-2.024,0.332-4.049,0.669-6.065,1.011
	c0.343-1.854,0.68-3.707,1.011-5.561c0.798-4.459,1.556-8.925,2.261-13.334c3.358,0.104,6.737,0.197,10.118,0.272
	c0.759,0.018,1.517,0.034,2.275,0.051c0.051,0.759,0.106,1.52,0.157,2.28c0.32,4.553,0.665,9.097,1.036,13.596
	C90.312,107.88,86.7,108.447,83.1,109.031z M136.47,110.38c7.131-0.506,12.891-0.641,16.794-0.349
	c1.247,0.09,2.19,0.214,2.873,0.354c-0.25,9.442-2.325,18.429-5.977,26.657c-3.909,8.813-9.522,16.755-16.532,23.359l-0.012,0.012
	l-0.011,0.011c-6.409,6.123-13.812,11.121-22.068,14.801c-0.261-0.702-0.556-1.612-0.876-2.747
	c-1.202-4.302-2.443-10.807-3.65-18.917c-1.644-11.02-3.19-24.741-4.499-39.384C115.02,112.418,126.846,111.07,136.47,110.38z
	 M171.619,80.959c-4.673,0.834-11.497,1.48-19.86,1.936c-14.272,0.777-32.639,0.977-51.55,0.704
	c-1.163-18.899-1.798-37.247-1.638-51.502c0.093-8.354,0.455-15.162,1.109-19.813c0.275-1.94,0.578-3.339,0.867-4.266
	c10.074,0.205,19.653,2.21,28.404,5.751c9.271,3.758,17.608,9.136,24.52,15.833c6.971,6.754,12.683,14.623,16.578,23.399
	c3.682,8.296,5.76,17.364,5.979,26.896C175.085,80.231,173.633,80.6,171.619,80.959z"/>
</svg>
