<?xml version="1.0" encoding="utf-8"?>
<!-- Generator: Adobe Illustrator 15.0.2, SVG Export Plug-In . SVG Version: 6.00 Build 0)  -->
<!DOCTYPE svg PUBLIC "-//W3C//DTD SVG 1.1//EN" "http://www.w3.org/Graphics/SVG/1.1/DTD/svg11.dtd">
<svg version="1.1" id="Layer_1" xmlns="http://www.w3.org/2000/svg" xmlns:xlink="http://www.w3.org/1999/xlink" x="0px" y="0px"
	 width="500px" height="111.233px" viewBox="0 0 500 111.233" enable-background="new 0 0 500 111.233" xml:space="preserve">
<g id="Page-1">
	<g id="cspdao-logo-outlined" transform="translate(11.000000, 11.000000)">
		<g id="leaf">
			<g id="Path">
				<path d="M44.421,100.234c-14.809,0-28.727-5.777-39.192-16.268C-5.236,73.475-11,59.531-11,44.704S-5.236,15.933,5.229,5.442
					c8.625-8.647,19.582-14.094,31.683-15.751c2.508-0.336,5.027-0.506,7.493-0.506c0.77,0,1.549,0.017,2.315,0.049
					c0.119,0,0.124,0.001,0.237,0.005l0.585,0.019l28.275-0.123l13.236-0.062l5.685-0.024L100.225-11l-0.077,11.74l-0.086,11.388
					l-0.197,29.707c0,0.176-0.009,0.339-0.027,0.495l-0.033,3.976l-0.017,0.404c-0.065,1.782-0.22,3.628-0.462,5.488l-0.003,0.023
					c-1.62,12.087-7.052,23.067-15.708,31.745c-5.288,5.301-11.456,9.406-18.334,12.201C58.638,98.865,51.62,100.234,44.421,100.234
					z M44.404-7.151c-2.303,0-4.659,0.159-7.001,0.473C26.108-5.131,15.877-0.045,7.823,8.03c-20.173,20.222-20.173,53.126,0,73.349
					c9.772,9.797,22.77,15.192,36.598,15.192c13.829,0,26.827-5.395,36.599-15.192c8.085-8.104,13.158-18.358,14.671-29.652
					c0.229-1.755,0.375-3.493,0.435-5.167l0.017-0.409c0.002-0.047,0.003-0.071,0.005-0.094l0.003-0.081l0.023-3.94L96.2,41.89
					c0,0,0,0,0,0c0,0,0.001-0.021,0.001-0.067l0.197-29.72l0.087-11.387l0.052-8.019l-3.953,0.028l-3.514,0.013L75.834-7.201
					L47.289-7.077l-0.046-0.005l-0.425-0.017c-0.059-0.002-0.063-0.002-0.131-0.002h-0.05l-0.04-0.002
					C45.872-7.135,45.134-7.151,44.404-7.151z"/>
			</g>
			<path id="fill" fill="#3BEEED" d="M88.839,58.966c-2.183,6.719-5.967,13.029-11.301,18.359
				C59.997,94.853,31.911,95.424,13.7,79.01l13.559-13.549C43.051,79.11,69.524,76.259,88.839,58.966z M30.286,0.454
				c-17.268,19.239-20.134,45.606-6.612,61.399L10.102,75.415c-16.288-18.21-15.68-46.189,1.812-63.668
				C17.248,6.417,23.574,2.648,30.286,0.454z M91.755,23.201c-0.149,0.248-0.298,0.496-0.459,0.732
				c-0.025,0.049-0.062,0.086-0.087,0.136l-0.124,18.842c0.05,1.141,0.037,2.293,0,3.422c-0.037,1.004-0.112,1.996-0.224,3
				c-0.992,1.166-2.096,2.368-3.213,3.483C70.107,70.345,45.296,73.718,30.98,61.718l15.284-15.272
				c8.448,5.368,24.19,0.322,36.782-12.26c0.372-0.372,0.744-0.744,1.104-1.128c1.229-1.302,2.395-2.641,3.461-3.979l0.558-0.707
				l0,0c0.013-0.012,0.025-0.025,0.038-0.037l0.104-0.138l0,0l0.213-0.27c0.035-0.045,0.07-0.091,0.104-0.138
				c0.931-1.227,1.787-2.479,2.568-3.731c0.025-0.025,0.038-0.062,0.062-0.087C91.444,23.71,91.606,23.449,91.755,23.201z
				 M65.939-2.521l0.013,0.013l0,0c-0.311,0.186-0.621,0.372-0.931,0.572l-0.186,0.122l0,0c-1.365,0.868-2.729,1.834-4.069,2.876
				l-0.67,0.521l0,0c-1.353,1.079-2.68,2.231-3.982,3.458c-0.384,0.359-0.757,0.731-1.129,1.104
				C42.418,18.702,37.357,34.396,42.691,42.85L27.408,58.122c-11.884-14.33-8.46-39.024,9.019-56.491
				c1.117-1.116,2.32-2.219,3.486-3.21c2.047-0.21,4.094-0.297,6.141-0.235c0.459,0.012,0.905,0.037,1.352,0.062l17.417-0.074
				c0.012-0.012,0.024-0.025,0.049-0.025C65.232-2.087,65.592-2.298,65.939-2.521L65.939-2.521z M91.42-1.951v0.025l-0.025,3.272
				l-0.074,9.843c-0.013,0.012-0.013,0.037-0.025,0.049c-0.013,0.062-0.038,0.136-0.05,0.198c-0.571,2.033-1.402,4.128-2.481,6.223
				c-0.869,1.735-1.923,3.483-3.102,5.207c-0.57,0.843-1.178,1.674-1.823,2.492c-1.067,1.364-2.208,2.703-3.437,4.004
				c-0.36,0.385-0.732,0.756-1.104,1.128c-6.029,6.024-12.964,10.276-19.253,12c-5.533,1.537-9.763,0.905-12.008-1.339
				c-2.246-2.244-2.866-6.483-1.34-12.049c1.737-6.297,5.992-13.227,12.008-19.239c0.372-0.372,0.744-0.744,1.129-1.103
				c1.303-1.228,2.643-2.393,4.007-3.434c0.807-0.632,1.638-1.24,2.457-1.81c1.724-1.177,3.474-2.231,5.198-3.111
				c1.861-0.942,3.722-1.711,5.533-2.281c0.013-0.013,0.025,0,0.037-0.013l11.389-0.049l2.89-0.013H91.42z"/>
		</g>
		<path id="csp" d="M151.548,83.022c5.922,0,11.123-1.091,15.602-3.273c4.479-2.182,7.958-5.27,10.438-9.264s3.72-8.617,3.72-13.868
			c0-0.296-0.129-0.555-0.389-0.777c-0.259-0.222-0.573-0.333-0.944-0.333l0,0l-15.768-0.776c-0.889,0-1.333,0.407-1.333,1.22
			c0,3.403-1.037,6.139-3.109,8.21c-2.073,2.071-4.812,3.106-8.217,3.106s-6.145-1.036-8.217-3.106
			c-2.073-2.071-3.109-4.808-3.109-8.21l0,0V30.766c0-3.402,1.036-6.158,3.109-8.266c2.073-2.108,4.812-3.162,8.217-3.162
			s6.145,1.035,8.217,3.106c2.073,2.071,3.109,4.844,3.109,8.321c0,0.813,0.444,1.22,1.333,1.22l0,0l15.768-0.998
			c0.371,0,0.685-0.111,0.944-0.333c0.259-0.222,0.389-0.518,0.389-0.888c0-5.178-1.24-9.745-3.72-13.702
			c-2.48-3.957-5.959-7.027-10.438-9.209c-4.479-2.182-9.679-3.272-15.602-3.272s-11.123,1.146-15.602,3.439
			s-7.958,5.529-10.438,9.708c-2.48,4.179-3.72,9.005-3.72,14.479l0,0v23.964c0,5.547,1.24,10.429,3.72,14.645
			s5.959,7.47,10.438,9.763S145.626,83.022,151.548,83.022z M217.019,83.022c5.848,0,10.975-0.943,15.38-2.829
			c4.405-1.886,7.829-4.567,10.271-8.044c2.443-3.476,3.665-7.618,3.665-12.426c0-4.882-1.277-8.82-3.831-11.816
			s-5.274-5.159-8.162-6.49c-2.887-1.332-6.921-2.885-12.104-4.66c-4.516-1.479-7.866-2.681-10.05-3.606
			c-2.184-0.924-3.794-1.923-4.831-2.996c-1.037-1.072-1.555-2.422-1.555-4.049c0-2.145,0.814-3.809,2.443-4.993
			c1.628-1.184,3.886-1.775,6.773-1.775c3.85,0,6.922,0.998,9.217,2.995s3.442,4.29,3.442,6.879l0,0v0.776
			c0,0.37,0.13,0.685,0.389,0.943c0.259,0.259,0.574,0.388,0.944,0.388l0,0h15.436c0.37,0,0.685-0.129,0.944-0.388
			c0.259-0.259,0.389-0.573,0.389-0.943l0,0v-1.553c0-4.881-1.295-9.208-3.887-12.98s-6.163-6.694-10.716-8.765
			c-4.553-2.071-9.68-3.106-15.38-3.106c-5.404,0-10.253,0.924-14.547,2.773s-7.644,4.493-10.05,7.933
			c-2.406,3.439-3.609,7.452-3.609,12.038c0,4.734,1.259,8.709,3.776,11.927s5.552,5.732,9.105,7.544
			c3.554,1.812,7.736,3.495,12.548,5.048c0.37,0.148,0.777,0.278,1.221,0.389c0.444,0.111,0.889,0.277,1.333,0.499
			c3.257,1.109,5.664,1.979,7.218,2.607c1.555,0.628,2.794,1.405,3.72,2.33c0.926,0.925,1.388,2.127,1.388,3.606
			c0,1.849-0.777,3.477-2.332,4.882s-3.96,2.108-7.218,2.108c-4.146,0-7.44-0.906-9.883-2.718s-3.665-3.938-3.665-6.379l0,0v-1.332
			c0-0.37-0.129-0.684-0.388-0.943c-0.259-0.259-0.574-0.389-0.944-0.389l0,0h-15.435c-0.37,0-0.685,0.13-0.944,0.389
			s-0.389,0.573-0.389,0.943l0,0v2.108c0,4.808,1.24,9.042,3.72,12.704c2.48,3.661,5.997,6.472,10.549,8.432
			C205.526,82.042,210.875,83.022,217.019,83.022z M270.274,82.134c0.37,0,0.685-0.129,0.944-0.388
			c0.259-0.259,0.389-0.573,0.389-0.943l0,0V54.065c0-0.37,0.185-0.555,0.555-0.555l0,0h13.547c5.256,0,9.883-0.999,13.881-2.996
			c3.998-1.997,7.088-4.845,9.272-8.543c2.184-3.698,3.276-7.951,3.276-12.759c0-4.882-1.055-9.19-3.165-12.925
			c-2.11-3.735-5.108-6.638-8.995-8.709c-3.886-2.071-8.347-3.106-13.38-3.106l0,0h-32.092c-0.37,0-0.685,0.129-0.944,0.389
			c-0.259,0.259-0.389,0.573-0.389,0.943l0,0v75c0,0.37,0.129,0.684,0.389,0.943c0.259,0.259,0.574,0.388,0.944,0.388l0,0H270.274z
			 M283.6,38.865h-11.438c-0.37,0-0.555-0.185-0.555-0.555l0,0v-17.53c0-0.37,0.185-0.555,0.555-0.555l0,0H283.6
			c3.035,0,5.497,0.869,7.384,2.607c1.888,1.738,2.832,4.013,2.832,6.823c0,2.737-0.944,4.956-2.832,6.657
			C289.097,38.014,286.635,38.865,283.6,38.865L283.6,38.865z"/>
		<path id="dao" fill="#3BEEED" d="M464.566,3.418c7.478,0,13.42,2.092,17.825,6.277C486.797,13.88,489,19.453,489,26.415
			c0,1.778-0.074,3.148-0.222,4.111l0,0l-3.11,25.331l-0.075,0.577c-0.717,5.17-2.432,9.755-5.145,13.755
			c-2.813,4.148-6.442,7.351-10.884,9.61c-4.442,2.259-9.366,3.389-14.771,3.389c-7.404,0-13.291-2.092-17.659-6.277
			c-4.368-4.185-6.553-9.795-6.553-16.832c0-1.852,0.074-3.259,0.222-4.222l0,0l3.11-25.331l0.076-0.569
			c0.715-5.101,2.412-9.633,5.089-13.597c2.776-4.111,6.368-7.295,10.773-9.555C454.256,4.547,459.161,3.418,464.566,3.418z
			 M339.491,4.306l0.512,0.003c6.793,0.083,12.213,1.822,16.258,5.219c4.146,3.481,6.219,8.221,6.219,14.221
			c0,0.74-0.074,1.852-0.222,3.333l0,0l-3.887,32.22l-0.062,0.462c-0.962,6.746-3.977,12.128-9.045,16.147
			c-5.183,4.111-11.625,6.166-19.325,6.166l0,0h-26.322l-0.136-0.006c-0.308-0.028-0.559-0.156-0.753-0.383
			c-0.222-0.259-0.296-0.574-0.222-0.944l0,0l3.426-27.909c3.076-2.198,5.579-4.935,7.509-8.208
			c2.705-4.585,4.057-9.858,4.057-15.819c0-6.052-1.306-11.394-3.919-16.025c-0.691-1.226-1.46-2.379-2.306-3.461l0.452-3.683
			l0.037-0.155c0.086-0.304,0.241-0.567,0.463-0.789c0.259-0.259,0.574-0.389,0.944-0.389l0,0H339.491z M406.638,4.306l0.13,0.005
			c0.59,0.046,0.954,0.415,1.092,1.106l0,0l14.327,75.104v0.333l-0.005,0.14c-0.049,0.721-0.492,1.082-1.328,1.082l0,0h-10.773
			l-0.13-0.005c-0.589-0.046-0.954-0.415-1.092-1.106l0,0l-2.11-11.888l-0.007-0.059c-0.014-0.063-0.049-0.135-0.104-0.219
			c-0.074-0.111-0.185-0.167-0.333-0.167l0,0h-28.432l-0.059,0.007c-0.146,0.032-0.348,0.178-0.607,0.438l0,0l-4.998,11.888
			l-0.048,0.143c-0.244,0.646-0.746,0.968-1.507,0.968l0,0H359.88l-0.143-0.005c-0.369-0.029-0.636-0.175-0.801-0.438
			c-0.185-0.296-0.167-0.667,0.056-1.111l0,0l32.652-75.104l0.082-0.153c0.363-0.639,0.854-0.958,1.473-0.958l0,0H406.638z
			 M463.233,14.528c-4.517,0-8.292,1.444-11.328,4.333s-4.85,6.74-5.442,11.554l0,0l-3.221,25.887l-0.035,0.29
			c-0.125,1.041-0.187,1.833-0.187,2.376c0,4,1.185,7.185,3.554,9.555s5.553,3.555,9.551,3.555c4.517,0,8.33-1.426,11.439-4.277
			s4.961-6.685,5.553-11.499l0,0l3.109-25.887l0.036-0.29c0.125-1.041,0.187-1.833,0.187-2.376c0-4-1.185-7.203-3.554-9.61
			S467.306,14.528,463.233,14.528z M338.492,15.416h-14.994l-0.086,0.007c-0.112,0.018-0.213,0.071-0.302,0.16
			c-0.111,0.111-0.167,0.241-0.167,0.389l0,0l-6.664,54.439l-0.029,0.083c-0.095,0.315,0.063,0.473,0.473,0.473l0,0h15.105
			c3.776,0,6.959-1.241,9.551-3.722c2.592-2.481,4.146-5.796,4.665-9.944l0,0l3.554-28.108l0.02-0.148
			c0.061-0.514,0.092-1.243,0.092-2.185c0-3.556-1-6.352-2.999-8.389C344.711,16.435,341.972,15.416,338.492,15.416L338.492,15.416z
			 M397.864,20.194c-0.148,0-0.259,0.148-0.333,0.444l0,0l-15.549,37.219l-0.042,0.092c-0.162,0.383-0.037,0.575,0.375,0.575l0,0
			h21.879c0.444,0,0.592-0.222,0.444-0.667l0,0l-6.441-37.219l-0.03-0.104C398.095,20.307,397.994,20.194,397.864,20.194z"/>
	</g>
</g>
</svg>
