<svg width="150" height="31" viewBox="0 0 150 31" fill="none" xmlns="http://www.w3.org/2000/svg">
<path d="M126.054 9.31517H125.839C125.715 9.31545 125.591 9.29135 125.476 9.24425C125.361 9.19715 125.256 9.12797 125.168 9.04068C125.08 8.95338 125.01 8.84969 124.963 8.73553C124.915 8.62138 124.89 8.499 124.89 8.37541V8.26221C124.89 8.1388 124.865 8.01665 124.817 7.90274C124.769 7.78883 124.7 7.68539 124.611 7.59833C124.523 7.51126 124.419 7.44227 124.304 7.39531C124.189 7.34834 124.066 7.32431 123.941 7.32459H118.233C117.982 7.32459 117.742 7.42337 117.565 7.59921C117.388 7.77505 117.288 8.01354 117.288 8.26221V9.00334C117.288 9.12665 117.312 9.24881 117.359 9.36281C117.407 9.47681 117.476 9.58043 117.564 9.66772C117.652 9.75501 117.756 9.82427 117.871 9.87152C117.985 9.91878 118.108 9.9431 118.233 9.9431H123.414C123.539 9.94282 123.662 9.96693 123.777 10.0141C123.892 10.0612 123.996 10.1304 124.084 10.2177C124.172 10.305 124.242 10.4088 124.289 10.5229C124.337 10.637 124.361 10.7594 124.361 10.8829V18.5205C124.361 18.644 124.337 18.7664 124.289 18.8805C124.242 18.9946 124.172 19.0984 124.084 19.1857C123.996 19.273 123.892 19.3422 123.777 19.3893C123.662 19.4365 123.539 19.4606 123.414 19.4603H116.61C116.36 19.4597 116.119 19.3605 115.942 19.1843C115.765 19.0081 115.666 18.7694 115.666 18.5205V2.93976C115.665 2.69032 115.565 2.4513 115.387 2.27512C115.209 2.09894 114.968 2 114.717 2H113.972C113.721 2 113.48 2.09901 113.303 2.27525C113.125 2.45149 113.025 2.69052 113.025 2.93976V19.0118C113.025 19.2612 113.125 19.5005 113.303 19.677C113.48 19.8536 113.721 19.9531 113.972 19.9537H114.187C114.438 19.9542 114.678 20.0532 114.855 20.2289C115.032 20.4046 115.131 20.6428 115.132 20.8913V21.139C115.133 21.3881 115.234 21.6266 115.411 21.8023C115.589 21.978 115.83 22.0767 116.081 22.0767H123.941C124.066 22.0764 124.189 22.0518 124.303 22.0043C124.418 21.9568 124.522 21.8874 124.61 21.7999C124.698 21.7124 124.767 21.6087 124.815 21.4946C124.862 21.3804 124.886 21.2582 124.886 21.1348V20.8913C124.886 20.7679 124.911 20.6457 124.959 20.5318C125.007 20.4179 125.077 20.3145 125.165 20.2274C125.253 20.1403 125.357 20.0714 125.472 20.0244C125.587 19.9774 125.711 19.9534 125.835 19.9537H126.05C126.301 19.9531 126.542 19.8536 126.72 19.677C126.897 19.5005 126.997 19.2612 126.997 19.0118V10.2549C126.997 10.1313 126.973 10.0089 126.925 9.89464C126.878 9.78038 126.808 9.67653 126.72 9.58904C126.632 9.50155 126.528 9.43213 126.413 9.38477C126.298 9.33741 126.175 9.31303 126.05 9.31303" fill="white"/>
<path d="M108.999 8.31988V8.29212C109 8.16302 108.974 8.03513 108.925 7.91581C108.875 7.79648 108.802 7.68806 108.71 7.59677C108.618 7.50549 108.509 7.43313 108.389 7.38385C108.269 7.33458 108.14 7.30936 108.01 7.30964H99.7555C99.6254 7.30936 99.4966 7.33458 99.3764 7.38385C99.2561 7.43313 99.1469 7.50549 99.0549 7.59677C98.963 7.68806 98.8901 7.79648 98.8404 7.91581C98.7908 8.03513 98.7654 8.16302 98.7657 8.29212V8.31988C98.7657 8.4489 98.7401 8.57666 98.6903 8.69586C98.6406 8.81506 98.5677 8.92337 98.4757 9.0146C98.3838 9.10583 98.2747 9.1782 98.1546 9.22757C98.0345 9.27695 97.9058 9.30236 97.7758 9.30236H97.6467C97.3846 9.30236 97.1332 9.40557 96.9476 9.58936C96.762 9.77315 96.6575 10.0225 96.6569 10.2827V18.4629C96.6572 18.592 96.6318 18.7199 96.5822 18.8392C96.5325 18.9585 96.4596 19.0669 96.3676 19.1582C96.2757 19.2495 96.1665 19.3219 96.0462 19.3711C95.926 19.4204 95.7972 19.4456 95.6671 19.4453H94.6149C94.4848 19.4456 94.356 19.4204 94.2358 19.3711C94.1156 19.3219 94.0063 19.2495 93.9144 19.1582C93.8224 19.0669 93.7495 18.9585 93.6998 18.8392C93.6502 18.7199 93.6248 18.592 93.6251 18.4629V2.93976C93.6251 2.69052 93.5253 2.45149 93.3478 2.27525C93.1702 2.09901 92.9294 2 92.6783 2H91.9338C91.8093 1.99972 91.6859 2.02382 91.5708 2.07092C91.4557 2.11802 91.3511 2.1872 91.2629 2.2745C91.1748 2.36179 91.1049 2.46548 91.0571 2.57964C91.0094 2.69379 90.9849 2.81617 90.9849 2.93976V19.0865C90.9854 19.3467 91.09 19.5961 91.2755 19.7799C91.4611 19.9637 91.7125 20.0669 91.9747 20.0669H92.1404C92.2702 20.0669 92.3989 20.0923 92.5188 20.1417C92.6388 20.1911 92.7478 20.2635 92.8395 20.3548C92.9313 20.446 93.004 20.5543 93.0535 20.6735C93.103 20.7927 93.1283 20.9204 93.128 21.0493V21.0771C93.128 21.3377 93.2323 21.5876 93.4179 21.7718C93.6036 21.9561 93.8553 22.0596 94.1178 22.0596H96.3277C96.4578 22.0599 96.5866 22.0346 96.7068 21.9854C96.827 21.9361 96.9363 21.8637 97.0282 21.7725C97.1202 21.6812 97.1931 21.5727 97.2427 21.4534C97.2924 21.3341 97.3178 21.2062 97.3175 21.0771V21.0493C97.3175 20.7888 97.4218 20.5389 97.6074 20.3546C97.7931 20.1704 98.0448 20.0669 98.3073 20.0669C98.5695 20.0669 98.8209 19.9637 99.0065 19.7799C99.192 19.5961 99.2966 19.3467 99.2971 19.0865V10.9128C99.2969 10.7836 99.3223 10.6556 99.3719 10.5361C99.4215 10.4167 99.4944 10.3081 99.5863 10.2167C99.6782 10.1252 99.7874 10.0526 99.9077 10.0031C100.028 9.95363 100.157 9.92815 100.287 9.92815H107.478C107.608 9.92815 107.737 9.95363 107.857 10.0031C107.978 10.0526 108.087 10.1252 108.179 10.2167C108.271 10.3081 108.344 10.4167 108.393 10.5361C108.443 10.6556 108.468 10.7836 108.468 10.9128V18.4629C108.468 18.592 108.443 18.7199 108.393 18.8392C108.344 18.9585 108.271 19.0669 108.179 19.1582C108.087 19.2495 107.978 19.3219 107.857 19.3711C107.737 19.4204 107.608 19.4456 107.478 19.4453H102.249C101.987 19.4453 101.735 19.5489 101.549 19.7331C101.364 19.9174 101.26 20.1673 101.26 20.4278V21.0835C101.26 21.3441 101.364 21.594 101.549 21.7782C101.735 21.9625 101.987 22.066 102.249 22.066H108.018C108.148 22.066 108.277 22.0406 108.397 21.9912C108.517 21.9418 108.626 21.8695 108.718 21.7782C108.81 21.687 108.883 21.5787 108.933 21.4595C108.982 21.3403 109.008 21.2125 109.008 21.0835V21.0558C109.008 20.9268 109.033 20.7991 109.083 20.6799C109.132 20.5608 109.205 20.4524 109.297 20.3612C109.388 20.2699 109.497 20.1975 109.617 20.1481C109.737 20.0987 109.866 20.0733 109.996 20.0733H110.125C110.255 20.0736 110.383 20.0484 110.503 19.9993C110.624 19.9501 110.733 19.878 110.825 19.7869C110.917 19.6958 110.99 19.5877 111.039 19.4686C111.089 19.3495 111.115 19.2219 111.115 19.0929V10.2827C111.115 10.1538 111.089 10.0261 111.039 9.90704C110.99 9.78796 110.917 9.6798 110.825 9.58874C110.733 9.49768 110.624 9.42551 110.503 9.37637C110.383 9.32723 110.255 9.30208 110.125 9.30236H109.996C109.866 9.30236 109.737 9.27693 109.617 9.22753C109.497 9.17813 109.388 9.10573 109.297 9.01447C109.205 8.92321 109.132 8.81489 109.083 8.6957C109.033 8.57651 109.008 8.4488 109.008 8.31988" fill="white"/>
<path d="M86.8409 8.49708V8.24933C86.8409 8.00009 86.7411 7.76106 86.5636 7.58482C86.386 7.40858 86.1452 7.30957 85.8941 7.30957H77.5453C77.2942 7.30957 77.0533 7.40858 76.8758 7.58482C76.6982 7.76106 76.5985 8.00009 76.5985 8.24933V8.49708C76.5985 8.74632 76.4987 8.98535 76.3212 9.16159C76.1436 9.33783 75.9028 9.43684 75.6517 9.43684H75.4365C75.1854 9.43684 74.9446 9.53585 74.7671 9.71209C74.5895 9.88833 74.4897 10.1274 74.4897 10.3766V19.1334C74.4897 19.3827 74.5895 19.6217 74.7671 19.798C74.9446 19.9742 75.1854 20.0732 75.4365 20.0732H75.6861C75.8105 20.0729 75.9338 20.097 76.0488 20.1442C76.1638 20.1913 76.2683 20.2605 76.3562 20.3478C76.4442 20.4351 76.5139 20.5389 76.5614 20.653C76.6089 20.7671 76.6332 20.8895 76.6329 21.013V21.1262C76.6329 21.3754 76.7327 21.6144 76.9102 21.7907C77.0878 21.9669 77.3286 22.0659 77.5797 22.0659H84.2157C84.3403 22.0662 84.4636 22.0421 84.5787 21.995C84.6938 21.9479 84.7985 21.8787 84.8866 21.7914C84.9747 21.7041 85.0447 21.6004 85.0924 21.4863C85.1401 21.3721 85.1647 21.2498 85.1647 21.1262V20.385C85.1647 20.2615 85.1401 20.1393 85.0924 20.0252C85.0446 19.9112 84.9746 19.8076 84.8865 19.7205C84.7983 19.6334 84.6937 19.5644 84.5786 19.5176C84.4635 19.4707 84.3402 19.4469 84.2157 19.4474H78.0767C77.9522 19.4474 77.8289 19.423 77.7139 19.3757C77.5989 19.3283 77.4945 19.2589 77.4065 19.1714C77.3186 19.0839 77.2489 18.9801 77.2014 18.8658C77.154 18.7515 77.1297 18.6291 77.13 18.5055V10.8678C77.13 10.7445 77.1545 10.6224 77.2021 10.5085C77.2497 10.3946 77.3195 10.2912 77.4074 10.2041C77.4953 10.117 77.5997 10.048 77.7146 10.001C77.8295 9.95398 77.9525 9.92994 78.0767 9.93022H85.4702C85.5943 9.92994 85.7173 9.95399 85.832 10.001C85.9468 10.048 86.051 10.1171 86.1388 10.2042C86.2266 10.2913 86.2961 10.3948 86.3435 10.5087C86.3909 10.6226 86.4151 10.7446 86.4148 10.8678V24.6161C86.4151 24.7394 86.3909 24.8616 86.3436 24.9756C86.2962 25.0896 86.2267 25.1932 86.1389 25.2805C86.0512 25.3678 85.947 25.437 85.8322 25.4843C85.7175 25.5315 85.5944 25.5558 85.4702 25.5558H77.6507C77.3998 25.5564 77.1593 25.6556 76.9819 25.8317C76.8044 26.0078 76.7045 26.2465 76.7039 26.4956V27.2367C76.7045 27.4858 76.8044 27.7245 76.9819 27.9006C77.1593 28.0767 77.3998 28.1759 77.6507 28.1765H86.0017C86.2524 28.1759 86.4927 28.0767 86.6698 27.9005C86.8469 27.7243 86.9463 27.4856 86.9463 27.2367V26.989C86.9469 26.7395 87.0471 26.5005 87.225 26.3243C87.4029 26.1482 87.644 26.0492 87.8953 26.0492H88.1104C88.2349 26.0495 88.3581 26.0254 88.4731 25.9783C88.5881 25.9311 88.6926 25.8619 88.7805 25.7746C88.8685 25.6873 88.9382 25.5836 88.9857 25.4694C89.0332 25.3553 89.0575 25.233 89.0572 25.1095V10.3723C89.0572 10.1231 88.9575 9.88406 88.7799 9.70782C88.6024 9.53158 88.3615 9.43257 88.1104 9.43257H87.792C87.5409 9.43257 87.3001 9.33356 87.1225 9.15732C86.9449 8.98108 86.8452 8.74205 86.8452 8.49281" fill="white"/>
<path d="M149.047 2H148.302C148.178 1.99972 148.054 2.02382 147.939 2.07092C147.824 2.11802 147.72 2.1872 147.631 2.2745C147.543 2.36179 147.473 2.46548 147.426 2.57964C147.378 2.69379 147.353 2.81617 147.353 2.93976V18.5184C147.354 18.642 147.329 18.7644 147.282 18.8787C147.234 18.993 147.165 19.0968 147.077 19.1843C146.989 19.2718 146.884 19.3412 146.769 19.3886C146.654 19.4359 146.531 19.4603 146.407 19.4603H145.604C145.353 19.4597 145.112 19.3603 144.934 19.1837C144.757 19.0071 144.657 18.7678 144.657 18.5184V10.3895C144.657 10.1402 144.557 9.90122 144.38 9.72498C144.202 9.54874 143.962 9.44973 143.71 9.44973H143.495C143.244 9.44973 143.003 9.35072 142.826 9.17448C142.648 8.99824 142.548 8.75921 142.548 8.50997V8.26008C142.548 8.01121 142.448 7.77273 142.27 7.59695C142.093 7.42117 141.852 7.32246 141.602 7.32246H131.985C131.735 7.32246 131.494 7.42117 131.317 7.59695C131.139 7.77273 131.039 8.01121 131.039 8.26008V8.50997C131.039 8.75921 130.939 8.99824 130.761 9.17448C130.584 9.35072 130.343 9.44973 130.092 9.44973H129.877C129.626 9.44973 129.385 9.54874 129.207 9.72498C129.03 9.90122 128.93 10.1402 128.93 10.3895V21.1391C128.93 21.2625 128.954 21.3847 129.002 21.4987C129.05 21.6127 129.119 21.7163 129.207 21.8036C129.295 21.8908 129.4 21.96 129.514 22.0073C129.629 22.0545 129.752 22.0788 129.877 22.0788H130.623C130.748 22.0788 130.871 22.0545 130.986 22.0073C131.101 21.96 131.205 21.8908 131.293 21.8036C131.381 21.7163 131.45 21.6127 131.498 21.4987C131.546 21.3847 131.57 21.2625 131.57 21.1391V16.9507C131.571 16.7016 131.671 16.4629 131.848 16.2868C132.026 16.1107 132.266 16.0115 132.517 16.011H134.023C134.148 16.0112 134.271 15.9871 134.386 15.94C134.501 15.8929 134.606 15.8238 134.694 15.7365C134.782 15.6492 134.852 15.5455 134.9 15.4313C134.948 15.3172 134.972 15.1948 134.972 15.0712V14.3279C134.972 14.2043 134.948 14.082 134.9 13.9678C134.852 13.8537 134.782 13.75 134.694 13.6627C134.606 13.5754 134.501 13.5062 134.386 13.4591C134.271 13.412 134.148 13.3879 134.023 13.3882H132.517C132.266 13.3876 132.026 13.2884 131.848 13.1123C131.671 12.9362 131.571 12.6975 131.57 12.4484V10.8807C131.571 10.6317 131.671 10.393 131.848 10.2168C132.026 10.0407 132.266 9.94153 132.517 9.94097H141.07C141.321 9.94153 141.562 10.0407 141.74 10.2167C141.918 10.3928 142.018 10.6315 142.019 10.8807V12.4484C142.018 12.6977 141.918 12.9364 141.74 13.1124C141.562 13.2885 141.321 13.3876 141.07 13.3882H136.904C136.78 13.3879 136.657 13.412 136.541 13.4591C136.426 13.5062 136.322 13.5754 136.234 13.6627C136.145 13.75 136.075 13.8537 136.028 13.9678C135.98 14.082 135.955 14.2043 135.955 14.3279V15.0669C135.955 15.1905 135.98 15.3129 136.028 15.4271C136.075 15.5412 136.145 15.6449 136.234 15.7322C136.322 15.8195 136.426 15.8887 136.541 15.9358C136.657 15.9829 136.78 16.007 136.904 16.0067H141.07C141.322 16.0078 141.563 16.1078 141.74 16.2847C141.917 16.4616 142.017 16.7011 142.017 16.9507V19.1506C142.017 19.2739 142.041 19.3961 142.088 19.5101C142.136 19.6241 142.205 19.7277 142.293 19.815C142.381 19.9023 142.485 19.9715 142.6 20.0188C142.714 20.066 142.837 20.0904 142.962 20.0904H143.136C143.387 20.0904 143.628 20.1894 143.805 20.3656C143.983 20.5419 144.083 20.7809 144.083 21.0301V21.1433C144.084 21.3915 144.185 21.6288 144.362 21.8037C144.54 21.9786 144.779 22.0767 145.029 22.0767H146.966C147.217 22.0767 147.458 21.9777 147.636 21.8014C147.813 21.6252 147.913 21.3862 147.913 21.1369V21.0237C147.913 20.7745 148.013 20.5354 148.19 20.3592C148.368 20.183 148.609 20.084 148.86 20.084H149.053C149.304 20.084 149.545 19.9849 149.723 19.8087C149.9 19.6325 150 19.3934 150 19.1442V2.93976C150 2.69052 149.9 2.45149 149.723 2.27525C149.545 2.09901 149.304 2 149.053 2" fill="white"/>
<path d="M2.63807 12.4526V10.8871C2.63864 10.6376 2.73887 10.3986 2.91676 10.2224C3.09466 10.0463 3.3357 9.94731 3.587 9.94731H11.4517C11.7028 9.94731 11.9436 10.0463 12.1212 10.2226C12.2987 10.3988 12.3985 10.6378 12.3985 10.8871V12.4526C12.3985 12.7019 12.2987 12.9409 12.1212 13.1171C11.9436 13.2934 11.7028 13.3924 11.4517 13.3924H3.587C3.3357 13.3924 3.09466 13.2934 2.91676 13.1173C2.73887 12.9411 2.63864 12.7021 2.63807 12.4526V12.4526ZM51.7909 19.4624C51.6081 19.4624 51.4327 19.3904 51.3033 19.2623C51.1738 19.1342 51.1008 18.9604 51.1002 18.7789V10.3937C51.1002 10.1445 51.0004 9.90542 50.8229 9.72918C50.6453 9.55294 50.4045 9.45394 50.1534 9.45394H49.9382C49.814 9.45394 49.691 9.42961 49.5762 9.38236C49.4615 9.33511 49.3573 9.26585 49.2695 9.17856C49.1818 9.09126 49.1122 8.98765 49.0649 8.87365C49.0176 8.75964 48.9933 8.63749 48.9936 8.51418V8.26642C48.993 8.01699 48.8928 7.77796 48.7149 7.60178C48.537 7.4256 48.296 7.32666 48.0447 7.32666H38.4284C38.1773 7.32666 37.9365 7.42567 37.759 7.60191C37.5814 7.77815 37.4817 8.01718 37.4817 8.26642V8.51418C37.4819 8.63767 37.4576 8.76 37.4102 8.87414C37.3627 8.98828 37.293 9.09199 37.205 9.17931C37.117 9.26664 37.0125 9.33585 36.8975 9.38297C36.7825 9.4301 36.6593 9.45422 36.5349 9.45394H36.3197C36.1952 9.45365 36.0718 9.47775 35.9567 9.52486C35.8416 9.57196 35.737 9.64114 35.6488 9.72843C35.5607 9.81572 35.4908 9.91941 35.443 10.0336C35.3953 10.1477 35.3708 10.2701 35.3708 10.3937V18.5247C35.371 18.6478 35.3469 18.7697 35.2996 18.8834C35.2524 18.9971 35.183 19.1005 35.0955 19.1876C35.0079 19.2747 34.9039 19.3438 34.7895 19.391C34.675 19.4381 34.5522 19.4624 34.4283 19.4624H33.6235C33.4993 19.4627 33.3762 19.4386 33.2614 19.3916C33.1465 19.3446 33.0421 19.2756 32.9542 19.1885C32.8662 19.1014 32.7965 18.9979 32.7489 18.8841C32.7013 18.7702 32.6768 18.6481 32.6768 18.5247V10.3937C32.6768 10.1445 32.577 9.90542 32.3994 9.72918C32.2219 9.55294 31.9811 9.45394 31.73 9.45394H31.5148C31.3904 9.45422 31.2671 9.4301 31.1521 9.38297C31.0371 9.33585 30.9327 9.26664 30.8447 9.17931C30.7567 9.09199 30.687 8.98828 30.6395 8.87414C30.592 8.76 30.5677 8.63767 30.568 8.51418V8.26642C30.5683 8.14293 30.544 8.0206 30.4965 7.90646C30.449 7.79231 30.3793 7.6886 30.2913 7.60128C30.2034 7.51396 30.0989 7.44475 29.9839 7.39762C29.8689 7.3505 29.7457 7.32638 29.6212 7.32666H20.0114C19.8871 7.32666 19.764 7.35097 19.6491 7.3982C19.5343 7.44542 19.4299 7.51465 19.342 7.60191C19.2541 7.68918 19.1843 7.79277 19.1367 7.90679C19.0892 8.02081 19.0647 8.14301 19.0647 8.26642V8.51418C19.0649 8.63767 19.0407 8.76 18.9932 8.87414C18.9457 8.98828 18.876 9.09199 18.788 9.17931C18.7 9.26664 18.5955 9.33585 18.4805 9.38297C18.3655 9.4301 18.2423 9.45422 18.1179 9.45394H17.9027C17.6516 9.45394 17.4108 9.55294 17.2332 9.72918C17.0557 9.90542 16.9559 10.1445 16.9559 10.3937V18.5247C16.9559 18.6481 16.9314 18.7702 16.8838 18.8841C16.8362 18.9979 16.7664 19.1014 16.6785 19.1885C16.5906 19.2756 16.4862 19.3446 16.3713 19.3916C16.2565 19.4386 16.1334 19.4627 16.0092 19.4624H3.587C3.46266 19.4627 3.33949 19.4386 3.22452 19.3917C3.10954 19.3447 3.00501 19.2757 2.91689 19.1886C2.82878 19.1016 2.7588 18.9981 2.71096 18.8842C2.66312 18.7703 2.63835 18.6482 2.63807 18.5247V16.9506C2.63835 16.8272 2.66312 16.7051 2.71096 16.5912C2.7588 16.4773 2.82878 16.3738 2.91689 16.2868C3.00501 16.1997 3.10954 16.1307 3.22452 16.0837C3.33949 16.0368 3.46266 16.0127 3.587 16.013H11.8756C12.0003 16.0133 12.1238 15.9891 12.2391 15.9419C12.3543 15.8947 12.4591 15.8253 12.5472 15.7378C12.6354 15.6503 12.7053 15.5463 12.7529 15.4319C12.8005 15.3175 12.8248 15.1949 12.8245 15.0711V14.8575C12.8243 14.734 12.8485 14.6115 12.896 14.4973C12.9434 14.383 13.0131 14.2791 13.1011 14.1917C13.189 14.1042 13.2935 14.0348 13.4085 13.9874C13.5235 13.94 13.6468 13.9157 13.7713 13.9157H14.0941C14.2183 13.9157 14.3413 13.8913 14.4561 13.8441C14.5708 13.7968 14.6751 13.7276 14.7628 13.6403C14.8505 13.553 14.9201 13.4494 14.9674 13.3354C15.0148 13.2214 15.039 13.0992 15.0387 12.9759V10.3937C15.039 10.2704 15.0148 10.1482 14.9674 10.0342C14.9201 9.92022 14.8505 9.81661 14.7628 9.72931C14.6751 9.64202 14.5708 9.57276 14.4561 9.52551C14.3413 9.47826 14.2183 9.45394 14.0941 9.45394H13.7713C13.6471 9.45394 13.5241 9.42961 13.4093 9.38236C13.2946 9.33511 13.1903 9.26585 13.1026 9.17856C13.0149 9.09126 12.9453 8.98765 12.898 8.87365C12.8506 8.75964 12.8264 8.63749 12.8267 8.51418V8.26642C12.8267 8.14283 12.8021 8.02045 12.7544 7.9063C12.7067 7.79214 12.6368 7.68845 12.5486 7.60116C12.4605 7.51386 12.3559 7.44468 12.2407 7.39758C12.1256 7.35048 12.0023 7.32638 11.8778 7.32666H3.05551C2.931 7.32638 2.80765 7.35048 2.69253 7.39758C2.57742 7.44468 2.47279 7.51386 2.38465 7.60116C2.2965 7.68845 2.22657 7.79214 2.17886 7.9063C2.13114 8.02045 2.10658 8.14283 2.10658 8.26642V8.51418C2.10686 8.63749 2.08264 8.75964 2.03529 8.87365C1.98795 8.98765 1.91841 9.09126 1.83067 9.17856C1.74292 9.26585 1.63869 9.33511 1.52395 9.38236C1.4092 9.42961 1.28619 9.45394 1.16195 9.45394H0.946778C0.695677 9.45394 0.45486 9.55294 0.277305 9.72918C0.0997495 9.90542 0 10.1445 0 10.3937L0 19.1505C0 19.3998 0.0997495 19.6388 0.277305 19.815C0.45486 19.9913 0.695677 20.0903 0.946778 20.0903H1.19638C1.32144 20.0892 1.44548 20.1126 1.56134 20.1594C1.67721 20.2061 1.7826 20.2751 1.87143 20.3625C1.96026 20.4499 2.03077 20.5539 2.07888 20.6684C2.127 20.783 2.15177 20.9059 2.15177 21.0301V21.1433C2.15177 21.3925 2.25152 21.6315 2.42907 21.8078C2.60663 21.984 2.84744 22.083 3.09855 22.083H16.4395C16.5638 22.083 16.687 22.0587 16.8018 22.0115C16.9167 21.9643 17.0211 21.895 17.109 21.8078C17.1969 21.7205 17.2666 21.6169 17.3142 21.5029C17.3618 21.3889 17.3863 21.2667 17.3863 21.1433V21.0301C17.386 20.9066 17.4103 20.7842 17.4578 20.6701C17.5053 20.556 17.575 20.4522 17.663 20.3649C17.7509 20.2776 17.8554 20.2084 17.9704 20.1613C18.0854 20.1141 18.2087 20.09 18.3331 20.0903H18.6537C18.9014 20.0853 19.1373 19.984 19.3107 19.8083C19.4841 19.6326 19.5811 19.3965 19.5811 19.1505V16.9506C19.5811 16.8273 19.6056 16.7052 19.6532 16.5913C19.7008 16.4774 19.7706 16.374 19.8585 16.2869C19.9465 16.1998 20.0509 16.1308 20.1657 16.0838C20.2806 16.0368 20.4036 16.0127 20.5279 16.013H22.0341C22.1586 16.013 22.2819 15.9886 22.3969 15.9413C22.5119 15.8939 22.6164 15.8245 22.7043 15.737C22.7923 15.6495 22.862 15.5457 22.9094 15.4314C22.9569 15.3172 22.9812 15.1947 22.9809 15.0711V14.3321C22.9809 14.0829 22.8811 13.8439 22.7036 13.6676C22.526 13.4914 22.2852 13.3924 22.0341 13.3924H20.5279C20.4035 13.3924 20.2804 13.3681 20.1656 13.3208C20.0507 13.2736 19.9463 13.2044 19.8584 13.1171C19.7705 13.0299 19.7007 12.9263 19.6532 12.8123C19.6056 12.6982 19.5811 12.576 19.5811 12.4526V10.8871C19.5811 10.7637 19.6056 10.6415 19.6532 10.5274C19.7007 10.4134 19.7705 10.3098 19.8584 10.2226C19.9463 10.1353 20.0507 10.0661 20.1656 10.0188C20.2804 9.97162 20.4035 9.94731 20.5279 9.94731H29.0811C29.3324 9.94731 29.5735 10.0463 29.7514 10.2224C29.9293 10.3986 30.0295 10.6376 30.0301 10.8871V12.4526C30.0295 12.7021 29.9293 12.9411 29.7514 13.1173C29.5735 13.2934 29.3324 13.3924 29.0811 13.3924H24.9218C24.6707 13.3924 24.4299 13.4914 24.2523 13.6676C24.0748 13.8439 23.975 14.0829 23.975 14.3321V15.0711C23.9747 15.1947 23.999 15.3172 24.0465 15.4314C24.0939 15.5457 24.1636 15.6495 24.2515 15.737C24.3395 15.8245 24.444 15.8939 24.559 15.9413C24.674 15.9886 24.7973 16.013 24.9218 16.013H29.0898C29.2141 16.0127 29.3373 16.0368 29.4522 16.0837C29.5672 16.1307 29.6717 16.1997 29.7599 16.2868C29.848 16.3738 29.918 16.4773 29.9658 16.5912C30.0136 16.7051 30.0384 16.8272 30.0387 16.9506V19.1505C30.0384 19.274 30.0627 19.3964 30.1102 19.5105C30.1577 19.6246 30.2274 19.7284 30.3154 19.8157C30.4033 19.903 30.5078 19.9722 30.6228 20.0193C30.7378 20.0665 30.861 20.0906 30.9855 20.0903H31.1598C31.4109 20.0903 31.6517 20.1893 31.8292 20.3655C32.0068 20.5418 32.1065 20.7808 32.1065 21.0301V21.1433C32.1065 21.2667 32.131 21.3889 32.1786 21.5029C32.2262 21.6169 32.2959 21.7205 32.3838 21.8078C32.4718 21.895 32.5761 21.9643 32.691 22.0115C32.8059 22.0587 32.929 22.083 33.0533 22.083H34.9899C35.1142 22.083 35.2374 22.0587 35.3522 22.0115C35.4671 21.9643 35.5715 21.895 35.6594 21.8078C35.7473 21.7205 35.817 21.6169 35.8646 21.5029C35.9122 21.3889 35.9367 21.2667 35.9367 21.1433V21.0301C35.9367 20.7808 36.0364 20.5418 36.214 20.3655C36.3915 20.1893 36.6324 20.0903 36.8835 20.0903H37.0771C37.2015 20.0903 37.3246 20.066 37.4394 20.0188C37.5543 19.9715 37.6587 19.9023 37.7466 19.815C37.8345 19.7278 37.9042 19.6242 37.9518 19.5102C37.9994 19.3962 38.0239 19.274 38.0239 19.1505V16.9506C38.0239 16.8273 38.0484 16.7052 38.096 16.5913C38.1436 16.4774 38.2134 16.374 38.3013 16.2869C38.3893 16.1998 38.4937 16.1308 38.6085 16.0838C38.7234 16.0368 38.8464 16.0127 38.9707 16.013H40.4769C40.6016 16.0133 40.7251 15.9891 40.8404 15.9419C40.9556 15.8947 41.0604 15.8253 41.1485 15.7378C41.2367 15.6503 41.3066 15.5463 41.3542 15.4319C41.4018 15.3175 41.4261 15.1949 41.4258 15.0711V14.3321C41.4258 14.2085 41.4013 14.0862 41.3536 13.972C41.3059 13.8579 41.2359 13.7542 41.1478 13.6669C41.0596 13.5796 40.955 13.5104 40.8399 13.4633C40.7248 13.4162 40.6014 13.3921 40.4769 13.3924H38.9707C38.7196 13.3924 38.4788 13.2934 38.3012 13.1171C38.1236 12.9409 38.0239 12.7019 38.0239 12.4526V10.8871C38.0239 10.6378 38.1236 10.3988 38.3012 10.2226C38.4788 10.0463 38.7196 9.94731 38.9707 9.94731H47.5261C47.777 9.94787 48.0175 10.0471 48.1949 10.2232C48.3724 10.3993 48.4723 10.638 48.4729 10.8871V12.4526C48.4723 12.7017 48.3724 12.9404 48.1949 13.1165C48.0175 13.2926 47.777 13.3918 47.5261 13.3924H43.3474C43.2229 13.3921 43.0995 13.4162 42.9844 13.4633C42.8693 13.5104 42.7646 13.5796 42.6765 13.6669C42.5884 13.7542 42.5184 13.8579 42.4707 13.972C42.423 14.0862 42.3984 14.2085 42.3984 14.3321V15.0711C42.3982 15.1949 42.4225 15.3175 42.4701 15.4319C42.5177 15.5463 42.5876 15.6503 42.6757 15.7378C42.7639 15.8253 42.8686 15.8947 42.9839 15.9419C43.0992 15.9891 43.2227 16.0133 43.3474 16.013H47.5153C47.7661 16.013 48.0066 16.1117 48.1841 16.2875C48.3616 16.4633 48.4616 16.7018 48.4621 16.9506V19.1505C48.4621 19.3998 48.5619 19.6388 48.7394 19.815C48.917 19.9913 49.1578 20.0903 49.4089 20.0903H49.5251C49.7083 20.0903 49.884 20.1625 50.0135 20.2911C50.143 20.4197 50.2158 20.5941 50.2158 20.7759L51.7909 19.4624ZM50.2158 20.7759V21.1433C50.2158 21.3925 50.3156 21.6315 50.4931 21.8078C50.6707 21.984 50.9115 22.083 51.1626 22.083H64.7682C64.9514 22.083 65.1271 22.0108 65.2566 21.8822C65.3862 21.7536 65.4589 21.5793 65.4589 21.3974V20.7075C65.4587 20.6174 65.4763 20.5282 65.5109 20.4448C65.5456 20.3615 65.5964 20.2859 65.6606 20.2221C65.7248 20.1584 65.8011 20.1079 65.885 20.0736C65.9689 20.0392 66.0589 20.0217 66.1497 20.022H66.5198C66.703 20.022 66.8786 19.9497 67.0082 19.8211C67.1377 19.6926 67.2105 19.5182 67.2105 19.3364V16.2458C67.2099 16.0644 67.1369 15.8905 67.0074 15.7624C66.8779 15.6343 66.7026 15.5624 66.5198 15.5624H65.8075C65.6247 15.5618 65.4496 15.4893 65.3205 15.3608C65.1914 15.2323 65.119 15.0582 65.119 14.8768V14.0673C65.119 13.8855 65.0462 13.7111 64.9167 13.5825C64.7871 13.4539 64.6114 13.3817 64.4282 13.3817H56.3354C56.2448 13.382 56.1551 13.3645 56.0713 13.3303C55.9875 13.2961 55.9113 13.2458 55.8472 13.1823C55.783 13.1188 55.7321 13.0433 55.6973 12.9603C55.6626 12.8772 55.6447 12.7882 55.6447 12.6982V10.6308C55.6447 10.5408 55.6626 10.4518 55.6973 10.3687C55.7321 10.2857 55.783 10.2102 55.8472 10.1467C55.9113 10.0832 55.9875 10.0329 56.0713 9.99872C56.1551 9.9645 56.2448 9.94703 56.3354 9.94731H65.9323C66.1155 9.94731 66.2912 9.87508 66.4207 9.7465C66.5503 9.61793 66.623 9.44354 66.623 9.26171V8.01226C66.623 7.83043 66.5503 7.65604 66.4207 7.52747C66.2912 7.39889 66.1155 7.32666 65.9323 7.32666H55.804C55.6208 7.32666 55.4451 7.39889 55.3155 7.52747C55.186 7.65604 55.1132 7.83043 55.1132 8.01226V8.76834C55.1132 8.95017 55.0405 9.12455 54.9109 9.25313C54.7814 9.3817 54.6057 9.45394 54.4225 9.45394H53.6952C53.512 9.45394 53.3363 9.52617 53.2068 9.65474C53.0773 9.78332 53.0045 9.9577 53.0045 10.1395V13.2301C53.0045 13.4119 53.0773 13.5863 53.2068 13.7148C53.3363 13.8434 53.512 13.9157 53.6952 13.9157H54.4225C54.6053 13.9157 54.7807 13.9876 54.9102 14.1157C55.0396 14.2438 55.1127 14.4177 55.1132 14.5991V15.3167C55.113 15.4069 55.1306 15.4961 55.1652 15.5795C55.1998 15.6628 55.2507 15.7384 55.3149 15.8022C55.3791 15.8659 55.4554 15.9164 55.5393 15.9507C55.6232 15.9851 55.7132 16.0026 55.804 16.0023H63.6127C63.7372 16.0032 63.8604 16.0284 63.9751 16.0765C64.0897 16.1247 64.1937 16.1948 64.2811 16.2829C64.3684 16.371 64.4374 16.4753 64.4841 16.5899C64.5307 16.7045 64.5542 16.8271 64.553 16.9506V18.7875C64.5525 18.9689 64.4795 19.1427 64.35 19.2709C64.2205 19.399 64.0451 19.4709 63.8623 19.4709H51.7909" fill="white"/>
<path d="M71.4595 22.0764H70.2308C69.8953 22.0764 69.5734 21.9441 69.3362 21.7086C69.0989 21.4731 68.9656 21.1536 68.9656 20.8206V19.6074C68.9656 19.2744 69.0989 18.9549 69.3362 18.7194C69.5734 18.4839 69.8953 18.3516 70.2308 18.3516H71.4595C71.626 18.351 71.791 18.3831 71.945 18.4459C72.099 18.5088 72.239 18.6012 72.3569 18.7179C72.4749 18.8346 72.5684 18.9732 72.6323 19.1258C72.6961 19.2785 72.729 19.4421 72.729 19.6074V20.827C72.7273 21.1597 72.5927 21.4781 72.3546 21.7124C72.1166 21.9466 71.7947 22.0776 71.4595 22.0764" fill="white"/>
</svg>
