<svg xmlns="http://www.w3.org/2000/svg" viewBox="0 0 149.17 26.36"><defs><style>.cls-1{fill:#fff;}</style></defs><g id="Warstwa_2" data-name="Warstwa 2"><g id="logo"><path class="cls-1" d="M87.31,7.47h0a.77.77,0,0,1-.78-.79A1.33,1.33,0,0,0,85.2,5.35H77.5a1.33,1.33,0,0,0-1.32,1.32h0a.79.79,0,0,1-.79.79h0a1.33,1.33,0,0,0-1.32,1.32h0v8a1.32,1.32,0,0,0,1.31,1.32h0a.79.79,0,0,1,.8.79h0a1.32,1.32,0,0,0,1.31,1.32H84a1.33,1.33,0,1,0,0-2.65H77.5a.79.79,0,0,1-.79-.78h0V8.92A.87.87,0,0,1,77.5,8h7.68a.87.87,0,0,1,.8.92v14a.8.8,0,0,1-.8.8H77.37A1.32,1.32,0,0,0,76.05,25a1.33,1.33,0,0,0,1.32,1.33h7.81a1.31,1.31,0,0,0,1.33-1.29v0a.78.78,0,0,1,.76-.81h.06a1.31,1.31,0,0,0,1.3-1.31V18.07h0V8.8A1.33,1.33,0,0,0,87.31,7.47Z"/><path class="cls-1" d="M124.61,7.59h0a.79.79,0,0,1-.8-.78,1.32,1.32,0,0,0-1.31-1.33h-5.55a1.33,1.33,0,0,0,0,2.65h4.82c1.15,0,1.5.41,1.5.89v7.72a.85.85,0,0,1-.79.92h-7a.85.85,0,0,1-.79-.92V1.32A1.33,1.33,0,0,0,113.39,0h0a1.32,1.32,0,0,0-1.32,1.32V16.87a1.31,1.31,0,0,0,1.31,1.32h0a.79.79,0,0,1,.8.79h0a1.31,1.31,0,0,0,1.31,1.32h7A1.32,1.32,0,0,0,123.8,19h0a.79.79,0,0,1,.79-.8h0a1.31,1.31,0,0,0,1.32-1.31h0v-8A1.32,1.32,0,0,0,124.61,7.59Zm-1.34,1.33h0a.34.34,0,0,0,0-.1.31.31,0,0,1,0,.1Z"/><path class="cls-1" d="M66.29,13.57h0l-.1,0a.8.8,0,0,1-.69-.79,1.32,1.32,0,0,0-1.32-1.31H56.79a.79.79,0,0,1-.79-.79h0V8.8a.79.79,0,0,1,.79-.8h8.43a1.32,1.32,0,0,0,.14-2.64H56.79a1.33,1.33,0,0,0-1.32,1.32h0a.79.79,0,0,1-.8.79A1.33,1.33,0,0,0,53.35,8.8v1.85A1.32,1.32,0,0,0,54.66,12h0a.79.79,0,0,1,.8.79v0a1.31,1.31,0,0,0,1.31,1.31h7.38a.78.78,0,0,1,.79.78h0v1.86a.79.79,0,0,1-.78.79H52.32a.79.79,0,0,1-.79-.78h0V8.8a1.31,1.31,0,0,0-1.29-1.33h0a.8.8,0,0,1-.81-.77v0A1.32,1.32,0,0,0,48.1,5.35H39.23A1.32,1.32,0,0,0,37.9,6.64c0,.07,0,.14-.48.7a.39.39,0,0,1-.29.13h-.05a1.31,1.31,0,0,0-1.3,1.3v0l0,8a.79.79,0,0,1-.79.79H33.45a.79.79,0,0,1-.79-.78h0V8.8a1.31,1.31,0,0,0-1.29-1.33h0a.8.8,0,0,1-.7-.37.72.72,0,0,1-.12-.44,1.32,1.32,0,0,0-1.32-1.31H20.37A1.31,1.31,0,0,0,19,6.64v0a.79.79,0,0,1-.77.81h0a1.31,1.31,0,0,0-1.3,1.31v8a.79.79,0,0,1-.79.79H3.45a.79.79,0,0,1-.8-.79h0V14.89a.79.79,0,0,1,.79-.79h8.15a1.33,1.33,0,0,0,1.33-1.32h0a.79.79,0,0,1,.79-.79h0A1.34,1.34,0,0,0,15,10.65h0V8.8a1.33,1.33,0,0,0-1.31-1.33h0a.79.79,0,0,1-.79-.79,1.34,1.34,0,0,0-1.33-1.33H3.45A1.33,1.33,0,0,0,2.12,6.67h0a.79.79,0,0,1-.79.79A1.34,1.34,0,0,0,0,8.8v8a1.32,1.32,0,0,0,1.32,1.32h0a.79.79,0,0,1,.79.79h0a1.31,1.31,0,0,0,1.31,1.31H15.65c.73,0,1.79-.58,1.79-1.32a.79.79,0,0,1,.79-.79,1.32,1.32,0,0,0,1.32-1.31h0V15.2a.48.48,0,0,0,0-.17v-.14a.79.79,0,0,1,.8-.79h.36a1.33,1.33,0,0,0,0-2.65h-.36a.8.8,0,0,1-.8-.8V8.8a.8.8,0,0,1,.8-.8H29.2a.8.8,0,0,1,.8.8v1.85a.8.8,0,0,1-.8.8H25.28a1.33,1.33,0,0,0,0,2.65h3.94a.79.79,0,0,1,.8.79v1.86a1.31,1.31,0,0,0,1.31,1.32h0a.79.79,0,0,1,.79.79h0a1.32,1.32,0,0,0,1.32,1.32h1.66a1.31,1.31,0,0,0,1.22-1.32.79.79,0,0,1,.79-.8h0a1.32,1.32,0,0,0,1.33-1.32V14.89a.77.77,0,0,1,.35-.67.76.76,0,0,1,.42-.12h.36a1.33,1.33,0,0,0,.14-2.65h-.59a.82.82,0,0,1-.71-.83V8.8a.8.8,0,0,1,.8-.8h8.85a.8.8,0,0,1,.8.8h0v1.85a.8.8,0,0,1-.8.8H44a1.33,1.33,0,0,0,0,2.65h4.12a.79.79,0,0,1,.8.79h0v1.86a1.32,1.32,0,0,0,1.31,1.32h0a.8.8,0,0,1,.8.8h0a1.33,1.33,0,0,0,1.32,1.32H64.16a1.33,1.33,0,0,0,1.33-1.31v0a.79.79,0,0,1,.79-.8h0a1.32,1.32,0,0,0,1.32-1.31h0V14.89A1.32,1.32,0,0,0,66.29,13.57ZM2.65,8.8A.79.79,0,0,1,3.44,8h8.15a.79.79,0,0,1,.8.79h0v1.85a.79.79,0,0,1-.79.8H3.45a.8.8,0,0,1-.8-.77Z"/><path class="cls-1" d="M147.85,0a1.33,1.33,0,0,0-1.33,1.32V16.87a.79.79,0,0,1-.79.79h-1.57a.79.79,0,0,1-.79-.76v0h0V15.52h0V8.92a1.31,1.31,0,0,0-1.28-1.33h0a.78.78,0,0,1-.82-.76,0,0,0,0,1,0,0,1.32,1.32,0,0,0-1.32-1.31h-8.86a1.31,1.31,0,0,0-1.32,1.3h0a.79.79,0,0,1-.76.81h-.06a1.31,1.31,0,0,0-1.3,1.31v0l0,10.07a1.33,1.33,0,0,0,2.65,0V14.82a.78.78,0,0,1,.77-.6h.3a1.37,1.37,0,0,0,1.38-1.2,1.33,1.33,0,0,0-1.19-1.45h-.49a.78.78,0,0,1-.77-.6v-.28h0V8.92a.8.8,0,0,1,.79-.8h8.86a.8.8,0,0,1,.8.8v1.85a.8.8,0,0,1-.8.8h-4.07a1.35,1.35,0,0,0-1.37,1.18,1.32,1.32,0,0,0,1.18,1.45h4.26a.79.79,0,0,1,.8.79h0v.56h0v1.31A1.32,1.32,0,0,0,142,18.19h0a.79.79,0,0,1,.79.8h0a1.32,1.32,0,0,0,1.32,1.32h1.66A1.31,1.31,0,0,0,147,19a.79.79,0,0,1,.79-.8h0a1.33,1.33,0,0,0,1.33-1.31h0V1.32A1.32,1.32,0,0,0,147.85,0Z"/><rect class="cls-1" x="68.9" y="16.52" width="3.75" height="3.75" rx="1.26"/><path class="cls-1" d="M110.49,8.92V8.8a1.31,1.31,0,0,0-1.29-1.33.78.78,0,0,1-.82-.76v0a1.32,1.32,0,0,0-1.32-1.31H99.38a1.31,1.31,0,0,0-1.33,1.29v0a.78.78,0,0,1-.76.81h-.06a1.31,1.31,0,0,0-1.3,1.31v1.63h0v6.46a.78.78,0,0,1-.78.79H93.57a.78.78,0,0,1-.79-.78h0v-.2c0-.05,0-.09,0-.14V1.32A1.32,1.32,0,0,0,91.47,0h0a1.33,1.33,0,0,0-1.33,1.32V15.56h0v1.31a1.3,1.3,0,0,0,1.31,1.32h0a.8.8,0,0,1,.8.8h0a1.3,1.3,0,0,0,1.31,1.32h1.66A1.31,1.31,0,0,0,96.44,19a.79.79,0,0,1,.79-.8h0a1.32,1.32,0,0,0,1.32-1.31h0v0s0-.05,0-.08h0V15.2a1,1,0,0,0,0-.17V8.8a.8.8,0,0,1,.8-.8h7.67a.79.79,0,0,1,.79.8h0v8.07a.79.79,0,0,1-.79.79h-4.82a1.31,1.31,0,0,0-1.31,1.3h0v0a1.31,1.31,0,0,0,1.31,1.31H107A1.31,1.31,0,0,0,108.36,19h0a.8.8,0,0,1,.77-.82h.05a1.31,1.31,0,0,0,1.3-1.31h0v-8Z"/></g></g></svg>