<svg xmlns="http://www.w3.org/2000/svg" viewBox="0 0 149.17 26.36">
    <defs>
        <style>
            .cls-1{fill:#fff}
        </style>
    </defs>
    <g id="Warstwa_2" data-name="Warstwa 2">
        <g id="logo">
            <path class="cls-1" d="M87.31 7.47a.77.77 0 0 1-.78-.79 1.33 1.33 0 0 0-1.33-1.33h-7.7a1.33 1.33 0 0 0-1.32 1.32.79.79 0 0 1-.79.79 1.33 1.33 0 0 0-1.32 1.32v8a1.32 1.32 0 0 0 1.31 1.32.79.79 0 0 1 .8.79 1.32 1.32 0 0 0 1.31 1.32H84a1.33 1.33 0 1 0 0-2.65h-6.5a.79.79 0 0 1-.79-.78V8.92A.87.87 0 0 1 77.5 8h7.68a.87.87 0 0 1 .8.92v14a.8.8 0 0 1-.8.8h-7.81A1.32 1.32 0 0 0 76.05 25a1.33 1.33 0 0 0 1.32 1.33h7.81a1.31 1.31 0 0 0 1.33-1.29.78.78 0 0 1 .76-.81h.06a1.31 1.31 0 0 0 1.3-1.31V8.8a1.33 1.33 0 0 0-1.32-1.33ZM124.61 7.59a.79.79 0 0 1-.8-.78 1.32 1.32 0 0 0-1.31-1.33h-5.55a1.33 1.33 0 0 0 0 2.65h4.82c1.15 0 1.5.41 1.5.89v7.72a.85.85 0 0 1-.79.92h-7a.85.85 0 0 1-.79-.92V1.32a1.33 1.33 0 0 0-1.3-1.32 1.32 1.32 0 0 0-1.32 1.32v15.55a1.31 1.31 0 0 0 1.31 1.32.79.79 0 0 1 .8.79 1.31 1.31 0 0 0 1.31 1.32h7a1.32 1.32 0 0 0 1.31-1.3.79.79 0 0 1 .79-.8 1.31 1.31 0 0 0 1.32-1.31v-8a1.32 1.32 0 0 0-1.3-1.3Zm-1.34 1.33a.34.34 0 0 0 0-.1.31.31 0 0 1 0 .1ZM66.29 13.57h-.1a.8.8 0 0 1-.69-.79 1.32 1.32 0 0 0-1.32-1.31h-7.39a.79.79 0 0 1-.79-.79V8.8a.79.79 0 0 1 .79-.8h8.43a1.32 1.32 0 0 0 .14-2.64h-8.57a1.33 1.33 0 0 0-1.32 1.32.79.79 0 0 1-.8.79 1.33 1.33 0 0 0-1.32 1.33v1.85A1.32 1.32 0 0 0 54.66 12a.79.79 0 0 1 .8.79 1.31 1.31 0 0 0 1.31 1.31h7.38a.78.78 0 0 1 .79.78v1.86a.79.79 0 0 1-.78.79H52.32a.79.79 0 0 1-.79-.78V8.8a1.31 1.31 0 0 0-1.29-1.33.8.8 0 0 1-.81-.77 1.32 1.32 0 0 0-1.33-1.35h-8.87a1.32 1.32 0 0 0-1.33 1.29c0 .07 0 .14-.48.7a.39.39 0 0 1-.29.13h-.05a1.31 1.31 0 0 0-1.3 1.3v8a.79.79 0 0 1-.79.79h-1.54a.79.79 0 0 1-.79-.78V8.8a1.31 1.31 0 0 0-1.29-1.33.8.8 0 0 1-.7-.37.72.72 0 0 1-.12-.44 1.32 1.32 0 0 0-1.32-1.31h-8.86A1.31 1.31 0 0 0 19 6.64a.79.79 0 0 1-.77.81 1.31 1.31 0 0 0-1.3 1.31v8a.79.79 0 0 1-.79.79H3.45a.79.79 0 0 1-.8-.79v-1.87a.79.79 0 0 1 .79-.79h8.15a1.33 1.33 0 0 0 1.33-1.32.79.79 0 0 1 .79-.79A1.34 1.34 0 0 0 15 10.65V8.8a1.33 1.33 0 0 0-1.31-1.33.79.79 0 0 1-.79-.79 1.34 1.34 0 0 0-1.33-1.33H3.45a1.33 1.33 0 0 0-1.33 1.32.79.79 0 0 1-.79.79A1.34 1.34 0 0 0 0 8.8v8a1.32 1.32 0 0 0 1.32 1.32.79.79 0 0 1 .79.79 1.31 1.31 0 0 0 1.31 1.31h12.23c.73 0 1.79-.58 1.79-1.32a.79.79 0 0 1 .79-.79 1.32 1.32 0 0 0 1.32-1.31v-1.6a.48.48 0 0 0 0-.17v-.14a.79.79 0 0 1 .8-.79h.36a1.33 1.33 0 0 0 0-2.65h-.36a.8.8 0 0 1-.8-.8V8.8a.8.8 0 0 1 .8-.8h8.85a.8.8 0 0 1 .8.8v1.85a.8.8 0 0 1-.8.8h-3.92a1.33 1.33 0 0 0 0 2.65h3.94a.79.79 0 0 1 .8.79v1.86a1.31 1.31 0 0 0 1.31 1.32.79.79 0 0 1 .79.79 1.32 1.32 0 0 0 1.32 1.32h1.66a1.31 1.31 0 0 0 1.22-1.32.79.79 0 0 1 .79-.8 1.32 1.32 0 0 0 1.33-1.32v-1.85a.77.77 0 0 1 .35-.67.76.76 0 0 1 .42-.12h.36a1.33 1.33 0 0 0 .14-2.65h-.59a.82.82 0 0 1-.71-.83V8.8a.8.8 0 0 1 .8-.8h8.85a.8.8 0 0 1 .8.8v1.85a.8.8 0 0 1-.8.8H44a1.33 1.33 0 0 0 0 2.65h4.12a.79.79 0 0 1 .8.79v1.86a1.32 1.32 0 0 0 1.31 1.32.8.8 0 0 1 .8.8 1.33 1.33 0 0 0 1.32 1.32h11.81a1.33 1.33 0 0 0 1.33-1.31.79.79 0 0 1 .79-.8 1.32 1.32 0 0 0 1.32-1.31v-1.88a1.32 1.32 0 0 0-1.31-1.32ZM2.65 8.8a.79.79 0 0 1 .79-.8h8.15a.79.79 0 0 1 .8.79v1.85a.79.79 0 0 1-.79.8H3.45a.8.8 0 0 1-.8-.77ZM147.85 0a1.33 1.33 0 0 0-1.33 1.32v15.55a.79.79 0 0 1-.79.79h-1.57a.79.79 0 0 1-.79-.76V8.92a1.31 1.31 0 0 0-1.28-1.33.78.78 0 0 1-.82-.76 1.32 1.32 0 0 0-1.32-1.31h-8.86a1.31 1.31 0 0 0-1.32 1.3.79.79 0 0 1-.76.81h-.06a1.31 1.31 0 0 0-1.3 1.31v10.07a1.33 1.33 0 0 0 2.65 0v-4.19a.78.78 0 0 1 .77-.6h.3a1.37 1.37 0 0 0 1.38-1.2 1.33 1.33 0 0 0-1.19-1.45h-.49a.78.78 0 0 1-.77-.6V8.92a.8.8 0 0 1 .79-.8h8.86a.8.8 0 0 1 .8.8v1.85a.8.8 0 0 1-.8.8h-4.07a1.35 1.35 0 0 0-1.37 1.18 1.32 1.32 0 0 0 1.18 1.45h4.26a.79.79 0 0 1 .8.79v1.87a1.32 1.32 0 0 0 1.25 1.33.79.79 0 0 1 .79.8 1.32 1.32 0 0 0 1.32 1.32h1.66A1.31 1.31 0 0 0 147 19a.79.79 0 0 1 .79-.8 1.33 1.33 0 0 0 1.33-1.31V1.32A1.32 1.32 0 0 0 147.85 0Z"/>
            <rect class="cls-1" x="68.9" y="16.52" width="3.75" height="3.75" rx="1.26"/>
            <path class="cls-1" d="M110.49 8.92V8.8a1.31 1.31 0 0 0-1.29-1.33.78.78 0 0 1-.82-.76 1.32 1.32 0 0 0-1.32-1.31h-7.68a1.31 1.31 0 0 0-1.33 1.29.78.78 0 0 1-.76.81h-.06a1.31 1.31 0 0 0-1.3 1.31v8.09a.78.78 0 0 1-.78.79h-1.58a.78.78 0 0 1-.79-.78V1.32A1.32 1.32 0 0 0 91.47 0a1.33 1.33 0 0 0-1.33 1.32v15.55a1.3 1.3 0 0 0 1.31 1.32.8.8 0 0 1 .8.8 1.3 1.3 0 0 0 1.31 1.32h1.66A1.31 1.31 0 0 0 96.44 19a.79.79 0 0 1 .79-.8 1.32 1.32 0 0 0 1.32-1.31s0-.05 0-.08V15.2a1 1 0 0 0 0-.17V8.8a.8.8 0 0 1 .8-.8h7.67a.79.79 0 0 1 .79.8v8.07a.79.79 0 0 1-.79.79h-4.82a1.31 1.31 0 0 0-1.31 1.3 1.31 1.31 0 0 0 1.31 1.31h4.8a1.31 1.31 0 0 0 1.36-1.27.8.8 0 0 1 .77-.82h.05a1.31 1.31 0 0 0 1.3-1.31v-8Z"/>
        </g>
    </g>
</svg>
