<svg width="255" height="45" viewBox="0 0 255 45" fill="none" xmlns="http://www.w3.org/2000/svg">
<path d="M214.293 12.4358H213.927C213.715 12.4363 213.506 12.3953 213.31 12.3152C213.114 12.2352 212.936 12.1176 212.787 11.9692C212.637 11.8208 212.518 11.6445 212.437 11.4504C212.356 11.2564 212.314 11.0483 212.314 10.8382V10.6458C212.313 10.436 212.271 10.2283 212.19 10.0347C212.109 9.84103 211.99 9.66518 211.84 9.51717C211.69 9.36915 211.512 9.25188 211.317 9.17203C211.121 9.09218 210.912 9.05133 210.701 9.05181H200.996C200.57 9.05181 200.162 9.21975 199.86 9.51867C199.559 9.8176 199.39 10.223 199.39 10.6458V11.9057C199.39 12.1153 199.431 12.323 199.511 12.5168C199.592 12.7106 199.71 12.8867 199.859 13.0351C200.008 13.1835 200.185 13.3013 200.381 13.3816C200.576 13.4619 200.785 13.5033 200.996 13.5033H209.804C210.016 13.5028 210.225 13.5438 210.421 13.6239C210.616 13.704 210.794 13.8217 210.944 13.9701C211.093 14.1186 211.212 14.2949 211.292 14.4889C211.373 14.683 211.414 14.8909 211.414 15.1009V28.0849C211.414 28.2949 211.373 28.5028 211.292 28.6969C211.212 28.8909 211.093 29.0672 210.944 29.2157C210.794 29.3641 210.616 29.4818 210.421 29.5619C210.225 29.642 210.016 29.683 209.804 29.6825H198.238C197.812 29.6816 197.403 29.5128 197.102 29.2133C196.801 28.9138 196.632 28.508 196.632 28.0849V1.59759C196.631 1.17355 196.461 0.767206 196.158 0.467703C195.856 0.1682 195.446 -1.09019e-06 195.019 0L193.753 0C193.326 0 192.917 0.168317 192.615 0.467924C192.313 0.76753 192.144 1.17388 192.144 1.59759V28.92C192.144 29.3441 192.313 29.7508 192.615 30.051C192.916 30.3512 193.326 30.5203 193.753 30.5213H194.119C194.544 30.5222 194.952 30.6905 195.253 30.9892C195.554 31.2879 195.724 31.6928 195.725 32.1152V32.5364C195.727 32.9598 195.897 33.3652 196.2 33.664C196.502 33.9627 196.911 34.1304 197.338 34.1304H210.701C210.912 34.1299 211.121 34.0881 211.316 34.0074C211.511 33.9267 211.689 33.8086 211.838 33.6599C211.987 33.5112 212.105 33.3348 212.185 33.1408C212.266 32.9468 212.307 32.7389 212.307 32.5291V32.1152C212.307 31.9054 212.349 31.6978 212.43 31.5041C212.512 31.3105 212.631 31.1346 212.78 30.9866C212.93 30.8386 213.108 30.7213 213.303 30.6415C213.499 30.5616 213.708 30.5208 213.92 30.5213H214.285C214.713 30.5203 215.122 30.3512 215.424 30.051C215.726 29.7508 215.895 29.3441 215.895 28.92V14.0334C215.895 13.8233 215.854 13.6152 215.774 13.4209C215.693 13.2267 215.574 13.0501 215.425 12.9014C215.275 12.7526 215.098 12.6346 214.902 12.5541C214.707 12.4736 214.497 12.4322 214.285 12.4322" fill="black"/>
<path d="M185.3 10.7438V10.6966C185.3 10.4771 185.257 10.2597 185.173 10.0569C185.088 9.85403 184.964 9.66971 184.808 9.51453C184.652 9.35934 184.466 9.23633 184.261 9.15256C184.057 9.0688 183.838 9.02592 183.617 9.0264H169.585C169.364 9.02592 169.145 9.0688 168.94 9.15256C168.736 9.23633 168.55 9.35934 168.394 9.51453C168.238 9.66971 168.114 9.85403 168.029 10.0569C167.945 10.2597 167.902 10.4771 167.902 10.6966V10.7438C167.902 10.9631 167.859 11.1803 167.774 11.383C167.69 11.5856 167.566 11.7697 167.409 11.9248C167.253 12.0799 167.068 12.2029 166.863 12.2869C166.659 12.3708 166.44 12.414 166.219 12.414H166C165.554 12.414 165.127 12.5895 164.811 12.9019C164.496 13.2144 164.318 13.6383 164.317 14.0806V27.9869C164.318 28.2064 164.275 28.4238 164.19 28.6266C164.106 28.8295 163.982 29.0138 163.826 29.169C163.669 29.3242 163.484 29.4472 163.279 29.531C163.075 29.6147 162.856 29.6576 162.635 29.6571H160.846C160.625 29.6576 160.406 29.6147 160.201 29.531C159.997 29.4472 159.811 29.3242 159.655 29.169C159.499 29.0138 159.375 28.8295 159.29 28.6266C159.206 28.4238 159.163 28.2064 159.163 27.9869V1.5976C159.163 1.17389 158.994 0.767535 158.692 0.467928C158.39 0.168321 157.981 4.12639e-06 157.554 4.12639e-06H156.288C156.076 -0.000473384 155.867 0.0404972 155.671 0.12057C155.475 0.200643 155.297 0.318245 155.148 0.466642C154.998 0.61504 154.879 0.791319 154.798 0.985384C154.717 1.17945 154.675 1.38749 154.675 1.5976V29.0471C154.676 29.4895 154.853 29.9134 155.169 30.2258C155.484 30.5382 155.912 30.7137 156.357 30.7137H156.639C156.86 30.7137 157.079 30.7569 157.283 30.8409C157.486 30.9249 157.672 31.048 157.828 31.2031C157.984 31.3583 158.107 31.5424 158.191 31.745C158.276 31.9477 158.319 32.1648 158.318 32.3839V32.4311C158.318 32.8741 158.495 33.2989 158.811 33.6121C159.127 33.9254 159.555 34.1013 160.001 34.1013H163.758C163.979 34.1018 164.198 34.0589 164.402 33.9752C164.607 33.8914 164.792 33.7684 164.949 33.6132C165.105 33.458 165.229 33.2737 165.313 33.0709C165.398 32.868 165.441 32.6506 165.44 32.4311V32.3839C165.44 31.941 165.618 31.5161 165.933 31.2029C166.249 30.8897 166.677 30.7137 167.123 30.7137C167.569 30.7137 167.996 30.5382 168.312 30.2258C168.627 29.9134 168.805 29.4895 168.806 29.0471V15.1517C168.805 14.9321 168.848 14.7145 168.933 14.5114C169.017 14.3084 169.141 14.1238 169.297 13.9683C169.454 13.8129 169.639 13.6895 169.844 13.6054C170.048 13.5212 170.267 13.4779 170.488 13.4779H182.713C182.935 13.4779 183.154 13.5212 183.358 13.6054C183.563 13.6895 183.748 13.8129 183.905 13.9683C184.061 14.1238 184.185 14.3084 184.269 14.5114C184.353 14.7145 184.397 14.9321 184.396 15.1517V27.9869C184.397 28.2064 184.353 28.4238 184.269 28.6266C184.185 28.8295 184.061 29.0138 183.904 29.169C183.748 29.3242 183.562 29.4472 183.358 29.531C183.154 29.6147 182.935 29.6576 182.713 29.6571H173.824C173.378 29.6571 172.95 29.8331 172.635 30.1463C172.319 30.4595 172.142 30.8844 172.142 31.3273V32.442C172.142 32.885 172.319 33.3098 172.635 33.623C172.95 33.9363 173.378 34.1122 173.824 34.1122H183.632C183.853 34.1122 184.071 34.069 184.276 33.9851C184.48 33.9012 184.665 33.7781 184.821 33.623C184.978 33.4679 185.102 33.2838 185.186 33.0812C185.271 32.8785 185.314 32.6614 185.314 32.442V32.3948C185.314 32.1757 185.357 31.9585 185.441 31.7559C185.525 31.5533 185.649 31.3692 185.805 31.214C185.961 31.0589 186.146 30.9358 186.35 30.8518C186.554 30.7678 186.773 30.7246 186.993 30.7246H187.213C187.434 30.7251 187.652 30.6823 187.856 30.5988C188.061 30.5152 188.246 30.3926 188.402 30.2378C188.559 30.083 188.683 29.8991 188.767 29.6966C188.852 29.4942 188.895 29.2772 188.895 29.058V14.0806C188.895 13.8614 188.852 13.6444 188.767 13.442C188.683 13.2396 188.559 13.0557 188.402 12.9009C188.246 12.7461 188.061 12.6234 187.856 12.5398C187.652 12.4563 187.434 12.4135 187.213 12.414H186.993C186.773 12.414 186.554 12.3708 186.35 12.2868C186.146 12.2028 185.961 12.0797 185.805 11.9246C185.649 11.7695 185.525 11.5853 185.441 11.3827C185.357 11.1801 185.314 10.963 185.314 10.7438" fill="black"/>
<path d="M147.63 11.0451V10.624C147.63 10.2003 147.46 9.7939 147.158 9.49429C146.857 9.19468 146.447 9.02637 146.02 9.02637H131.827C131.4 9.02637 130.991 9.19468 130.689 9.49429C130.387 9.7939 130.218 10.2003 130.218 10.624V11.0451C130.218 11.4689 130.048 11.8752 129.746 12.1748C129.444 12.4744 129.035 12.6427 128.608 12.6427H128.242C127.815 12.6427 127.406 12.8111 127.104 13.1107C126.802 13.4103 126.633 13.8166 126.633 14.2403V29.127C126.633 29.5507 126.802 29.957 127.104 30.2566C127.406 30.5563 127.815 30.7246 128.242 30.7246H128.667C128.878 30.7241 129.088 30.7651 129.283 30.8452C129.479 30.9253 129.656 31.043 129.806 31.1914C129.955 31.3399 130.074 31.5162 130.155 31.7102C130.235 31.9043 130.277 32.1122 130.276 32.3222V32.5146C130.276 32.9383 130.446 33.3447 130.748 33.6443C131.049 33.9439 131.459 34.1122 131.886 34.1122H143.167C143.379 34.1127 143.588 34.0717 143.784 33.9916C143.98 33.9116 144.158 33.794 144.307 33.6456C144.457 33.4972 144.576 33.3209 144.657 33.1268C144.738 32.9327 144.78 32.7247 144.78 32.5146V31.2547C144.78 31.0447 144.738 30.8369 144.657 30.643C144.576 30.4492 144.457 30.2731 144.307 30.125C144.157 29.9769 143.979 29.8596 143.784 29.78C143.588 29.7003 143.379 29.6598 143.167 29.6607H132.731C132.519 29.6607 132.309 29.6193 132.114 29.5388C131.918 29.4583 131.741 29.3403 131.591 29.1915C131.442 29.0428 131.323 28.8662 131.243 28.672C131.162 28.4777 131.121 28.2696 131.121 28.0595V15.0754C131.121 14.8658 131.163 14.6582 131.244 14.4646C131.325 14.271 131.443 14.0951 131.593 13.947C131.742 13.799 131.92 13.6817 132.115 13.6018C132.31 13.5219 132.52 13.481 132.731 13.4815H145.3C145.511 13.481 145.72 13.5219 145.915 13.6018C146.11 13.6818 146.287 13.7992 146.436 13.9473C146.585 14.0954 146.704 14.2713 146.784 14.4649C146.865 14.6585 146.906 14.866 146.906 15.0754V38.4475C146.906 38.6571 146.865 38.8648 146.784 39.0586C146.704 39.2524 146.586 39.4285 146.436 39.5769C146.287 39.7253 146.11 39.8431 145.915 39.9234C145.72 40.0037 145.511 40.0451 145.3 40.0451H132.006C131.58 40.046 131.171 40.2147 130.869 40.5141C130.568 40.8135 130.398 41.2192 130.397 41.6427V42.9026C130.398 43.326 130.568 43.7318 130.869 44.0312C131.171 44.3306 131.58 44.4992 132.006 44.5002H146.203C146.629 44.4992 147.038 44.3305 147.339 44.031C147.64 43.7315 147.809 43.3257 147.809 42.9026V42.4814C147.81 42.0574 147.98 41.651 148.283 41.3515C148.585 41.052 148.995 40.8838 149.422 40.8838H149.788C150 40.8843 150.209 40.8433 150.405 40.7632C150.6 40.6831 150.778 40.5654 150.927 40.4169C151.077 40.2685 151.195 40.0922 151.276 39.8982C151.357 39.7041 151.398 39.4961 151.398 39.2862V14.2331C151.398 13.8094 151.228 13.403 150.926 13.1034C150.624 12.8038 150.215 12.6355 149.788 12.6355H149.247C148.82 12.6355 148.41 12.4672 148.109 12.1675C147.807 11.8679 147.637 11.4616 147.637 11.0379" fill="black"/>
<path d="M253.379 4.12639e-06H252.114C251.902 -0.000473384 251.692 0.0404972 251.497 0.12057C251.301 0.200643 251.123 0.318245 250.973 0.466642C250.823 0.61504 250.705 0.791319 250.623 0.985385C250.542 1.17945 250.501 1.38749 250.501 1.5976V28.0813C250.501 28.2914 250.46 28.4996 250.379 28.6938C250.298 28.8881 250.18 29.0646 250.03 29.2133C249.881 29.3621 249.703 29.4801 249.508 29.5606C249.312 29.6411 249.103 29.6825 248.891 29.6825H247.527C247.099 29.6816 246.69 29.5125 246.388 29.2123C246.087 28.9121 245.917 28.5054 245.917 28.0813V14.2621C245.917 13.8384 245.747 13.4321 245.446 13.1325C245.144 12.8329 244.734 12.6646 244.308 12.6646H243.942C243.515 12.6646 243.105 12.4962 242.804 12.1966C242.502 11.897 242.332 11.4907 242.332 11.067V10.6421C242.331 10.2191 242.161 9.81365 241.859 9.51482C241.558 9.216 241.149 9.04818 240.723 9.04819H224.375C223.949 9.04818 223.54 9.216 223.238 9.51482C222.936 9.81365 222.766 10.2191 222.766 10.6421V11.067C222.766 11.4907 222.596 11.897 222.294 12.1966C221.992 12.4962 221.583 12.6646 221.156 12.6646H220.79C220.363 12.6646 219.954 12.8329 219.652 13.1325C219.35 13.4321 219.181 13.8384 219.181 14.2621V32.5364C219.181 32.7462 219.222 32.954 219.303 33.1478C219.384 33.3416 219.503 33.5177 219.652 33.6661C219.802 33.8144 219.979 33.9321 220.174 34.0124C220.37 34.0927 220.579 34.134 220.79 34.134H222.06C222.271 34.134 222.48 34.0927 222.675 34.0124C222.871 33.9321 223.048 33.8144 223.198 33.6661C223.347 33.5177 223.466 33.3416 223.547 33.1478C223.627 32.954 223.669 32.7462 223.669 32.5364V25.4162C223.67 24.9928 223.84 24.587 224.142 24.2876C224.443 23.9882 224.852 23.8196 225.279 23.8186H227.839C228.051 23.8191 228.261 23.7782 228.456 23.6981C228.652 23.618 228.83 23.5004 228.98 23.352C229.129 23.2036 229.248 23.0273 229.329 22.8333C229.411 22.6392 229.452 22.4312 229.452 22.2211V20.9575C229.452 20.7474 229.411 20.5394 229.329 20.3453C229.248 20.1512 229.129 19.975 228.98 19.8266C228.83 19.6782 228.652 19.5606 228.456 19.4805C228.261 19.4004 228.051 19.3594 227.839 19.3599H225.279C224.852 19.359 224.443 19.1903 224.142 18.8909C223.84 18.5915 223.67 18.1857 223.669 17.7623V15.0973C223.67 14.6738 223.84 14.268 224.142 13.9686C224.443 13.6692 224.852 13.5006 225.279 13.4997H239.819C240.246 13.5006 240.655 13.6691 240.957 13.9684C241.26 14.2677 241.43 14.6735 241.432 15.0973V17.7623C241.43 18.1861 241.26 18.5919 240.957 18.8912C240.655 19.1905 240.246 19.359 239.819 19.3599H232.737C232.526 19.3594 232.316 19.4004 232.12 19.4805C231.924 19.5606 231.747 19.6782 231.597 19.8266C231.447 19.975 231.328 20.1512 231.247 20.3453C231.166 20.5394 231.124 20.7474 231.124 20.9575V22.2138C231.124 22.4239 231.166 22.6319 231.247 22.826C231.328 23.0201 231.447 23.1964 231.597 23.3447C231.747 23.4931 231.924 23.6108 232.12 23.6908C232.316 23.7709 232.526 23.8119 232.737 23.8114H239.819C240.247 23.8133 240.656 23.9832 240.958 24.284C241.259 24.5848 241.429 24.9919 241.429 25.4162V29.1561C241.428 29.3657 241.469 29.5734 241.55 29.7672C241.63 29.961 241.749 30.1371 241.898 30.2855C242.047 30.4339 242.224 30.5516 242.419 30.632C242.614 30.7123 242.823 30.7537 243.035 30.7537H243.331C243.758 30.7537 244.167 30.922 244.469 31.2216C244.771 31.5212 244.94 31.9275 244.94 32.3512V32.5437C244.943 32.9655 245.114 33.3691 245.416 33.6663C245.717 33.9636 246.125 34.1304 246.55 34.1304H249.842C250.269 34.1304 250.678 33.9621 250.98 33.6625C251.282 33.3629 251.452 32.9565 251.452 32.5328V32.3404C251.452 31.9166 251.621 31.5103 251.923 31.2107C252.225 30.9111 252.634 30.7428 253.061 30.7428H253.39C253.817 30.7428 254.227 30.5744 254.528 30.2748C254.83 29.9752 255 29.5689 255 29.1452V1.5976C255 1.17389 254.83 0.767535 254.528 0.467928C254.227 0.168321 253.817 4.12639e-06 253.39 4.12639e-06" fill="black"/>
<path d="M4.48472 17.7697V15.1082C4.48569 14.6842 4.65608 14.2779 4.9585 13.9784C5.26093 13.6789 5.67069 13.5106 6.0979 13.5106H19.4679C19.8948 13.5106 20.3042 13.679 20.606 13.9786C20.9079 14.2782 21.0774 14.6845 21.0774 15.1082V17.7697C21.0774 18.1934 20.9079 18.5997 20.606 18.8994C20.3042 19.199 19.8948 19.3673 19.4679 19.3673H6.0979C5.67069 19.3673 5.26093 19.1991 4.9585 18.8996C4.65608 18.6001 4.48569 18.1937 4.48472 17.7697ZM88.0446 29.6863C87.7338 29.6863 87.4357 29.564 87.2156 29.3462C86.9955 29.1284 86.8714 28.8329 86.8704 28.5244V14.2695C86.8704 13.8458 86.7008 13.4394 86.399 13.1398C86.0971 12.8402 85.6878 12.6719 85.2609 12.6719H84.8951C84.6839 12.6719 84.4748 12.6306 84.2797 12.5502C84.0846 12.4699 83.9074 12.3522 83.7583 12.2038C83.6091 12.0554 83.4909 11.8792 83.4104 11.6854C83.3299 11.4916 83.2887 11.2839 83.2892 11.0743V10.6531C83.2882 10.2291 83.1179 9.82275 82.8154 9.52325C82.513 9.22375 82.1032 9.05555 81.676 9.05555H65.3284C64.9015 9.05555 64.4921 9.22386 64.1903 9.52347C63.8884 9.82308 63.7189 10.2294 63.7189 10.6531V11.0743C63.7193 11.2843 63.678 11.4922 63.5973 11.6863C63.5166 11.8803 63.3981 12.0566 63.2485 12.2051C63.099 12.3535 62.9213 12.4712 62.7259 12.5513C62.5304 12.6314 62.3208 12.6724 62.1093 12.6719H61.7435C61.5319 12.6714 61.3222 12.7124 61.1265 12.7925C60.9308 12.8726 60.7529 12.9902 60.6031 13.1386C60.4532 13.2869 60.3343 13.4632 60.2532 13.6573C60.1721 13.8514 60.1304 14.0594 60.1304 14.2695V28.0923C60.1308 28.3015 60.0898 28.5086 60.0095 28.702C59.9291 28.8954 59.8112 29.0711 59.6624 29.2192C59.5135 29.3673 59.3368 29.4847 59.1421 29.5649C58.9475 29.645 58.7389 29.6863 58.5282 29.6863H57.1601C56.9489 29.6867 56.7397 29.6459 56.5444 29.566C56.3491 29.4861 56.1717 29.3688 56.0222 29.2207C55.8727 29.0726 55.7541 28.8968 55.6731 28.7031C55.5922 28.5095 55.5505 28.3019 55.5505 28.0923V14.2695C55.5505 13.8458 55.381 13.4394 55.0791 13.1398C54.7773 12.8402 54.3679 12.6719 53.941 12.6719H53.5752C53.3637 12.6724 53.1542 12.6314 52.9587 12.5513C52.7632 12.4712 52.5856 12.3535 52.436 12.2051C52.2865 12.0566 52.1679 11.8803 52.0872 11.6863C52.0065 11.4922 51.9652 11.2843 51.9657 11.0743V10.6531C51.9662 10.4432 51.9249 10.2352 51.8441 10.0412C51.7634 9.84716 51.6449 9.67085 51.4953 9.5224C51.3458 9.37396 51.1682 9.2563 50.9727 9.17618C50.7772 9.09606 50.5677 9.05507 50.3562 9.05555H34.0195C33.8081 9.05555 33.5988 9.09687 33.4035 9.17716C33.2083 9.25744 33.0308 9.37512 32.8814 9.52347C32.7319 9.67182 32.6134 9.84794 32.5325 10.0418C32.4516 10.2356 32.41 10.4433 32.41 10.6531V11.0743C32.4104 11.2843 32.3691 11.4922 32.2884 11.6863C32.2077 11.8803 32.0892 12.0566 31.9396 12.2051C31.7901 12.3535 31.6124 12.4712 31.4169 12.5513C31.2215 12.6314 31.0119 12.6724 30.8004 12.6719H30.4346C30.0078 12.6719 29.5984 12.8402 29.2965 13.1398C28.9947 13.4394 28.8251 13.8458 28.8251 14.2695V28.0923C28.8251 28.3019 28.7835 28.5095 28.7025 28.7031C28.6216 28.8968 28.503 29.0726 28.3535 29.2207C28.204 29.3688 28.0265 29.4861 27.8313 29.566C27.636 29.6459 27.4268 29.6867 27.2156 29.6863H6.0979C5.88654 29.6867 5.67715 29.6459 5.48168 29.5661C5.28622 29.4862 5.10852 29.3689 4.95872 29.2209C4.80893 29.0729 4.68997 28.8971 4.60864 28.7034C4.52731 28.5098 4.4852 28.3021 4.48472 28.0923V25.4163C4.4852 25.2065 4.52731 24.9989 4.60864 24.8052C4.68997 24.6116 4.80893 24.4357 4.95872 24.2877C5.10852 24.1397 5.28622 24.0224 5.48168 23.9426C5.67715 23.8628 5.88654 23.8219 6.0979 23.8224H20.1886C20.4005 23.8229 20.6105 23.7818 20.8065 23.7015C21.0024 23.6212 21.1804 23.5032 21.3303 23.3545C21.4802 23.2057 21.599 23.029 21.6799 22.8345C21.7608 22.64 21.8022 22.4316 21.8017 22.2212V21.8581C21.8013 21.648 21.8425 21.4398 21.9232 21.2456C22.0039 21.0513 22.1224 20.8748 22.2719 20.7261C22.4214 20.5773 22.599 20.4593 22.7945 20.3788C22.99 20.2983 23.1996 20.2568 23.4113 20.2568H23.96C24.1712 20.2568 24.3803 20.2155 24.5753 20.1352C24.7704 20.0548 24.9476 19.9371 25.0968 19.7887C25.2459 19.6403 25.3642 19.4642 25.4446 19.2704C25.5251 19.0765 25.5663 18.8689 25.5658 18.6593V14.2695C25.5663 14.0599 25.5251 13.8522 25.4446 13.6584C25.3642 13.4646 25.2459 13.2885 25.0968 13.1401C24.9476 12.9917 24.7704 12.8739 24.5753 12.7936C24.3803 12.7133 24.1712 12.6719 23.96 12.6719H23.4113C23.2001 12.6719 22.9909 12.6306 22.7959 12.5502C22.6008 12.4699 22.4236 12.3522 22.2744 12.2038C22.1253 12.0554 22.0071 11.8792 21.9266 11.6854C21.8461 11.4916 21.8049 11.2839 21.8054 11.0743V10.6531C21.8054 10.443 21.7636 10.235 21.6825 10.0409C21.6014 9.84686 21.4825 9.67058 21.3327 9.52218C21.1828 9.37379 21.005 9.25618 20.8093 9.17611C20.6136 9.09604 20.4039 9.05507 20.1922 9.05555H5.19437C4.9827 9.05507 4.77301 9.09604 4.57731 9.17611C4.38161 9.25618 4.20375 9.37379 4.0539 9.52218C3.90406 9.67058 3.78517 9.84686 3.70406 10.0409C3.62294 10.235 3.58119 10.443 3.58119 10.6531V11.0743C3.58167 11.2839 3.54049 11.4916 3.46 11.6854C3.37952 11.8792 3.26131 12.0554 3.11214 12.2038C2.96297 12.3522 2.78578 12.4699 2.59071 12.5502C2.39564 12.6306 2.18652 12.6719 1.97533 12.6719H1.60952C1.18265 12.6719 0.773263 12.8402 0.471419 13.1398C0.169574 13.4394 0 13.8458 0 14.2695L0 29.1562C0 29.5799 0.169574 29.9862 0.471419 30.2858C0.773263 30.5854 1.18265 30.7537 1.60952 30.7537H2.03385C2.24645 30.7518 2.45732 30.7917 2.65429 30.8712C2.85125 30.9506 3.03042 31.068 3.18143 31.2165C3.33244 31.365 3.45231 31.5418 3.53411 31.7366C3.61591 31.9314 3.65802 32.1403 3.65801 32.3513V32.5438C3.65801 32.9675 3.82758 33.3738 4.12943 33.6735C4.43127 33.9731 4.84066 34.1414 5.26753 34.1414H27.9472C28.1586 34.1414 28.3679 34.1 28.5631 34.0198C28.7584 33.9395 28.9358 33.8218 29.0853 33.6735C29.2348 33.5251 29.3533 33.349 29.4342 33.1552C29.5151 32.9613 29.5567 32.7536 29.5567 32.5438V32.3513C29.5562 32.1414 29.5975 31.9335 29.6783 31.7394C29.759 31.5454 29.8775 31.3691 30.0271 31.2206C30.1766 31.0722 30.3542 30.9545 30.5497 30.8744C30.7452 30.7943 30.9547 30.7533 31.1662 30.7537H31.7113C32.1324 30.7452 32.5334 30.5731 32.8282 30.2744C33.1229 29.9757 33.288 29.5743 33.2879 29.1562V25.4163C33.2879 25.2067 33.3295 24.9991 33.4105 24.8055C33.4914 24.6119 33.61 24.436 33.7595 24.288C33.909 24.1399 34.0865 24.0226 34.2817 23.9427C34.477 23.8628 34.6862 23.8219 34.8974 23.8224H37.458C37.6697 23.8224 37.8793 23.7809 38.0748 23.7004C38.2703 23.6199 38.4479 23.5019 38.5974 23.3532C38.7469 23.2044 38.8654 23.0279 38.9461 22.8336C39.0267 22.6394 39.068 22.4313 39.0675 22.2212V20.9649C39.0675 20.5412 38.898 20.1348 38.5961 19.8352C38.2943 19.5356 37.8849 19.3673 37.458 19.3673H34.8974C34.686 19.3673 34.4767 19.326 34.2815 19.2457C34.0862 19.1654 33.9088 19.0477 33.7593 18.8994C33.6098 18.751 33.4913 18.5749 33.4104 18.3811C33.3295 18.1872 33.2879 17.9795 33.2879 17.7697V15.1082C33.2879 14.8984 33.3295 14.6907 33.4104 14.4969C33.4913 14.303 33.6098 14.1269 33.7593 13.9786C33.9088 13.8302 34.0862 13.7125 34.2815 13.6323C34.4767 13.552 34.686 13.5106 34.8974 13.5106H49.438C49.8652 13.5106 50.275 13.6789 50.5774 13.9784C50.8798 14.2779 51.0502 14.6842 51.0512 15.1082V17.7697C51.0502 18.1937 50.8798 18.6001 50.5774 18.8996C50.275 19.1991 49.8652 19.3673 49.438 19.3673H42.3671C41.9402 19.3673 41.5308 19.5356 41.229 19.8352C40.9271 20.1348 40.7575 20.5412 40.7575 20.9649V22.2212C40.7571 22.4313 40.7983 22.6394 40.879 22.8336C40.9597 23.0279 41.0782 23.2044 41.2277 23.3532C41.3772 23.5019 41.5548 23.6199 41.7503 23.7004C41.9458 23.7809 42.1554 23.8224 42.3671 23.8224H49.4526C49.664 23.8219 49.8734 23.8628 50.0688 23.9426C50.2643 24.0224 50.442 24.1397 50.5918 24.2877C50.7416 24.4357 50.8606 24.6116 50.9419 24.8052C51.0232 24.9989 51.0653 25.2065 51.0658 25.4163V29.1562C51.0653 29.3661 51.1066 29.5741 51.1874 29.7681C51.2681 29.9621 51.3866 30.1384 51.5362 30.2869C51.6857 30.4353 51.8633 30.553 52.0588 30.6331C52.2543 30.7132 52.4638 30.7542 52.6753 30.7537H52.9716C53.3985 30.7537 53.8079 30.9221 54.1097 31.2217C54.4116 31.5213 54.5812 31.9276 54.5812 32.3513V32.5438C54.5812 32.7536 54.6228 32.9613 54.7037 33.1552C54.7846 33.349 54.9031 33.5251 55.0526 33.6735C55.202 33.8218 55.3795 33.9395 55.5747 34.0198C55.77 34.1 55.9793 34.1414 56.1907 34.1414H59.4829C59.6943 34.1414 59.9036 34.1 60.0988 34.0198C60.2941 33.9395 60.4715 33.8218 60.621 33.6735C60.7705 33.5251 60.889 33.349 60.9699 33.1552C61.0508 32.9613 61.0924 32.7536 61.0924 32.5438V32.3513C61.0924 31.9276 61.262 31.5213 61.5638 31.2217C61.8657 30.9221 62.2751 30.7537 62.7019 30.7537H63.0312C63.2425 30.7537 63.4518 30.7124 63.6471 30.6321C63.8424 30.5519 64.0198 30.4342 64.1693 30.2858C64.3187 30.1375 64.4373 29.9614 64.5182 29.7675C64.5991 29.5737 64.6407 29.366 64.6407 29.1562V25.4163C64.6407 25.2067 64.6823 24.9991 64.7633 24.8055C64.8442 24.6119 64.9628 24.436 65.1123 24.288C65.2618 24.1399 65.4393 24.0226 65.6346 23.9427C65.8298 23.8628 66.039 23.8219 66.2502 23.8224H68.8108C69.0228 23.8229 69.2328 23.7818 69.4287 23.7015C69.6247 23.6212 69.8027 23.5032 69.9526 23.3545C70.1025 23.2057 70.2213 23.029 70.3022 22.8345C70.3831 22.64 70.4245 22.4316 70.424 22.2212V20.9649C70.424 20.7548 70.3822 20.5467 70.3011 20.3527C70.22 20.1586 70.1011 19.9823 69.9513 19.8339C69.8014 19.6855 69.6236 19.5679 69.4279 19.4878C69.2322 19.4078 69.0225 19.3668 68.8108 19.3673H66.2502C65.8233 19.3673 65.4139 19.199 65.1121 18.8994C64.8103 18.5997 64.6407 18.1934 64.6407 17.7697V15.1082C64.6407 14.6845 64.8103 14.2782 65.1121 13.9786C65.4139 13.679 65.8233 13.5106 66.2502 13.5106H80.7945C81.221 13.5116 81.6299 13.6802 81.9315 13.9796C82.2331 14.279 82.403 14.6848 82.404 15.1082V17.7697C82.403 18.1931 82.2331 18.5989 81.9315 18.8983C81.6299 19.1977 81.221 19.3663 80.7945 19.3673H73.6906C73.4789 19.3668 73.2692 19.4078 73.0735 19.4878C72.8778 19.5679 72.7 19.6855 72.5501 19.8339C72.4003 19.9823 72.2814 20.1586 72.2003 20.3527C72.1192 20.5467 72.0774 20.7548 72.0774 20.9649V22.2212C72.0769 22.4316 72.1183 22.64 72.1992 22.8345C72.2801 23.029 72.3989 23.2057 72.5488 23.3545C72.6987 23.5032 72.8768 23.6212 73.0727 23.7015C73.2686 23.7818 73.4786 23.8229 73.6906 23.8224H80.7762C81.2024 23.8224 81.6112 23.9902 81.913 24.289C82.2147 24.5878 82.3847 24.9933 82.3857 25.4163V29.1562C82.3857 29.5799 82.5553 29.9862 82.8571 30.2858C83.159 30.5854 83.5683 30.7537 83.9952 30.7537H84.1927C84.5042 30.7537 84.8028 30.8765 85.023 31.0951C85.2433 31.3137 85.367 31.6102 85.367 31.9193L88.0446 29.6863ZM85.367 31.9193V32.5438C85.367 32.9675 85.5365 33.3738 85.8384 33.6735C86.1402 33.9731 86.5496 34.1414 86.9765 34.1414H110.106C110.418 34.1414 110.716 34.0186 110.936 33.8C111.157 33.5814 111.28 33.285 111.28 32.9759V31.8031C111.28 31.6499 111.31 31.4981 111.369 31.3565C111.428 31.2149 111.514 31.0862 111.623 30.9779C111.732 30.8695 111.862 30.7837 112.005 30.7253C112.147 30.6669 112.3 30.6371 112.455 30.6376H113.084C113.395 30.6376 113.694 30.5148 113.914 30.2962C114.134 30.0776 114.258 29.7812 114.258 29.472V24.2181C114.257 23.9097 114.133 23.6141 113.913 23.3963C113.693 23.1786 113.395 23.0563 113.084 23.0563H111.873C111.562 23.0553 111.264 22.9321 111.045 22.7136C110.826 22.4951 110.702 22.1992 110.702 21.8907V20.5146C110.702 20.2055 110.579 19.9091 110.358 19.6905C110.138 19.4719 109.84 19.3491 109.528 19.3491H95.7703C95.6163 19.3496 95.4637 19.3199 95.3213 19.2617C95.1788 19.2035 95.0494 19.118 94.9403 19.0101C94.8312 18.9022 94.7446 18.7739 94.6856 18.6327C94.6265 18.4915 94.5961 18.3401 94.5961 18.1872V14.6725C94.5961 14.5196 94.6265 14.3683 94.6856 14.2271C94.7446 14.0859 94.8312 13.9576 94.9403 13.8497C95.0494 13.7417 95.1788 13.6562 95.3213 13.598C95.4637 13.5399 95.6163 13.5102 95.7703 13.5106H112.085C112.396 13.5106 112.695 13.3879 112.915 13.1693C113.136 12.9507 113.259 12.6542 113.259 12.3451V10.2211C113.259 9.91195 113.136 9.61549 112.915 9.39692C112.695 9.17834 112.396 9.05555 112.085 9.05555H94.8668C94.5554 9.05555 94.2567 9.17834 94.0365 9.39692C93.8163 9.61549 93.6926 9.91195 93.6926 10.2211V11.5064C93.6926 11.8155 93.5689 12.112 93.3487 12.3305C93.1285 12.5491 92.8298 12.6719 92.5184 12.6719H91.282C90.9705 12.6719 90.6719 12.7947 90.4517 13.0133C90.2315 13.2319 90.1077 13.5283 90.1077 13.8374V19.0913C90.1077 19.4004 90.2315 19.6969 90.4517 19.9155C90.6719 20.134 90.9705 20.2568 91.282 20.2568H92.5184C92.8292 20.2568 93.1273 20.3791 93.3474 20.5969C93.5675 20.8147 93.6916 21.1102 93.6926 21.4187V22.6387C93.6921 22.7919 93.7222 22.9437 93.781 23.0853C93.8398 23.2269 93.9263 23.3556 94.0354 23.4639C94.1446 23.5722 94.2742 23.6581 94.4169 23.7165C94.5596 23.7749 94.7125 23.8047 94.8668 23.8042H108.142C108.353 23.8056 108.563 23.8485 108.758 23.9303C108.953 24.0122 109.129 24.1314 109.278 24.2811C109.426 24.4309 109.544 24.6082 109.623 24.803C109.702 24.9978 109.742 25.2062 109.74 25.4163V28.5389C109.739 28.8474 109.615 29.1429 109.395 29.3607C109.175 29.5785 108.877 29.7008 108.566 29.7008H88.0446" fill="black"/>
<path d="M121.482 34.1304H119.393C118.823 34.1304 118.276 33.9054 117.872 33.5051C117.469 33.1047 117.242 32.5616 117.242 31.9954V29.9331C117.242 29.3668 117.469 28.8238 117.872 28.4234C118.276 28.023 118.823 27.7981 119.393 27.7981H121.482C121.765 27.7972 122.045 27.8517 122.307 27.9585C122.569 28.0654 122.807 28.2225 123.007 28.4209C123.208 28.6192 123.367 28.8549 123.476 29.1144C123.584 29.3739 123.64 29.6521 123.64 29.9331V32.0063C123.637 32.5719 123.408 33.1133 123.004 33.5115C122.599 33.9097 122.052 34.1323 121.482 34.1304Z" fill="black"/>
</svg>
