<svg width="150" height="31" viewBox="0 0 150 31" fill="none" xmlns="http://www.w3.org/2000/svg">
<path d="M126.054 7.31517H125.839C125.715 7.31545 125.591 7.29135 125.476 7.24425C125.361 7.19715 125.256 7.12797 125.168 7.04068C125.08 6.95338 125.01 6.84969 124.963 6.73553C124.915 6.62138 124.89 6.499 124.89 6.37541V6.26221C124.89 6.1388 124.865 6.01665 124.817 5.90274C124.769 5.78883 124.7 5.68539 124.611 5.59833C124.523 5.51126 124.419 5.44227 124.304 5.39531C124.189 5.34834 124.066 5.32431 123.941 5.32459H118.233C117.982 5.32459 117.742 5.42337 117.565 5.59921C117.388 5.77505 117.288 6.01354 117.288 6.26221V7.00334C117.288 7.12665 117.312 7.24881 117.359 7.36281C117.407 7.47681 117.476 7.58043 117.564 7.66772C117.652 7.75501 117.756 7.82427 117.871 7.87152C117.985 7.91878 118.108 7.9431 118.233 7.9431H123.414C123.539 7.94282 123.662 7.96693 123.777 8.01406C123.892 8.06119 123.996 8.1304 124.084 8.21772C124.172 8.30504 124.242 8.40875 124.289 8.52289C124.337 8.63704 124.361 8.75937 124.361 8.88286V16.5205C124.361 16.644 124.337 16.7664 124.289 16.8805C124.242 16.9946 124.172 17.0984 124.084 17.1857C123.996 17.273 123.892 17.3422 123.777 17.3893C123.662 17.4365 123.539 17.4606 123.414 17.4603H116.61C116.36 17.4597 116.119 17.3605 115.942 17.1843C115.765 17.0081 115.666 16.7694 115.666 16.5205V0.939759C115.665 0.690323 115.565 0.451297 115.387 0.275119C115.209 0.0989412 114.968 -6.41285e-07 114.717 0L113.972 0C113.721 0 113.48 0.09901 113.303 0.275249C113.125 0.451488 113.025 0.690519 113.025 0.939759V17.0118C113.025 17.2612 113.125 17.5005 113.303 17.677C113.48 17.8536 113.721 17.9531 113.972 17.9537H114.187C114.438 17.9542 114.678 18.0532 114.855 18.2289C115.032 18.4046 115.131 18.6428 115.132 18.8913V19.139C115.133 19.3881 115.234 19.6266 115.411 19.8023C115.589 19.978 115.83 20.0767 116.081 20.0767H123.941C124.066 20.0764 124.189 20.0518 124.303 20.0043C124.418 19.9568 124.522 19.8874 124.61 19.7999C124.698 19.7124 124.767 19.6087 124.815 19.4946C124.862 19.3804 124.886 19.2582 124.886 19.1348V18.8913C124.886 18.7679 124.911 18.6457 124.959 18.5318C125.007 18.4179 125.077 18.3145 125.165 18.2274C125.253 18.1403 125.357 18.0714 125.472 18.0244C125.587 17.9774 125.711 17.9534 125.835 17.9537H126.05C126.301 17.9531 126.542 17.8536 126.72 17.677C126.897 17.5005 126.997 17.2612 126.997 17.0118V8.25493C126.997 8.13134 126.973 8.00891 126.925 7.89464C126.878 7.78038 126.808 7.67653 126.72 7.58904C126.632 7.50155 126.528 7.43213 126.413 7.38477C126.298 7.33741 126.175 7.31303 126.05 7.31303" fill="white"/>
<path d="M108.999 6.31988V6.29212C109 6.16302 108.974 6.03513 108.925 5.91581C108.875 5.79648 108.802 5.68806 108.71 5.59677C108.618 5.50549 108.509 5.43313 108.389 5.38385C108.269 5.33458 108.14 5.30936 108.01 5.30964H99.7555C99.6254 5.30936 99.4966 5.33458 99.3764 5.38385C99.2561 5.43313 99.1469 5.50549 99.0549 5.59677C98.963 5.68806 98.8901 5.79648 98.8404 5.91581C98.7908 6.03513 98.7654 6.16302 98.7657 6.29212V6.31988C98.7657 6.4489 98.7401 6.57666 98.6903 6.69586C98.6406 6.81506 98.5677 6.92337 98.4757 7.0146C98.3838 7.10583 98.2747 7.1782 98.1546 7.22757C98.0345 7.27695 97.9058 7.30236 97.7758 7.30236H97.6467C97.3846 7.30236 97.1332 7.40557 96.9476 7.58936C96.762 7.77315 96.6575 8.0225 96.6569 8.2827V16.4629C96.6572 16.592 96.6318 16.7199 96.5822 16.8392C96.5325 16.9585 96.4596 17.0669 96.3676 17.1582C96.2757 17.2495 96.1665 17.3219 96.0462 17.3711C95.926 17.4204 95.7972 17.4456 95.6671 17.4453H94.6149C94.4848 17.4456 94.356 17.4204 94.2358 17.3711C94.1156 17.3219 94.0063 17.2495 93.9144 17.1582C93.8224 17.0669 93.7495 16.9585 93.6998 16.8392C93.6502 16.7199 93.6248 16.592 93.6251 16.4629V0.939762C93.6251 0.690522 93.5253 0.451491 93.3478 0.275251C93.1702 0.0990125 92.9294 2.42728e-06 92.6783 2.42728e-06H91.9338C91.8093 -0.000278461 91.6859 0.0238218 91.5708 0.0709234C91.4557 0.118025 91.3511 0.187203 91.2629 0.274495C91.1748 0.361788 91.1049 0.465481 91.0571 0.579637C91.0094 0.693794 90.9849 0.816171 90.9849 0.939762V17.0865C90.9854 17.3467 91.09 17.5961 91.2755 17.7799C91.4611 17.9637 91.7125 18.0669 91.9747 18.0669H92.1404C92.2702 18.0669 92.3989 18.0923 92.5188 18.1417C92.6388 18.1911 92.7478 18.2635 92.8395 18.3548C92.9313 18.446 93.004 18.5543 93.0535 18.6735C93.103 18.7927 93.1283 18.9204 93.128 19.0493V19.0771C93.128 19.3377 93.2323 19.5876 93.4179 19.7718C93.6036 19.9561 93.8553 20.0596 94.1178 20.0596H96.3277C96.4578 20.0599 96.5866 20.0346 96.7068 19.9854C96.827 19.9361 96.9363 19.8637 97.0282 19.7725C97.1202 19.6812 97.1931 19.5727 97.2427 19.4534C97.2924 19.3341 97.3178 19.2062 97.3175 19.0771V19.0493C97.3175 18.7888 97.4218 18.5389 97.6074 18.3546C97.7931 18.1704 98.0448 18.0669 98.3073 18.0669C98.5695 18.0669 98.8209 17.9637 99.0065 17.7799C99.192 17.5961 99.2966 17.3467 99.2971 17.0865V8.91276C99.2969 8.78356 99.3223 8.65558 99.3719 8.53613C99.4215 8.41668 99.4944 8.30813 99.5863 8.21667C99.6782 8.12521 99.7874 8.05265 99.9077 8.00314C100.028 7.95363 100.157 7.92815 100.287 7.92815H107.478C107.608 7.92815 107.737 7.95363 107.857 8.00314C107.978 8.05265 108.087 8.12521 108.179 8.21667C108.271 8.30813 108.344 8.41668 108.393 8.53613C108.443 8.65558 108.468 8.78356 108.468 8.91276V16.4629C108.468 16.592 108.443 16.7199 108.393 16.8392C108.344 16.9585 108.271 17.0669 108.179 17.1582C108.087 17.2495 107.978 17.3219 107.857 17.3711C107.737 17.4204 107.608 17.4456 107.478 17.4453H102.249C101.987 17.4453 101.735 17.5489 101.549 17.7331C101.364 17.9174 101.26 18.1673 101.26 18.4278V19.0835C101.26 19.3441 101.364 19.594 101.549 19.7782C101.735 19.9625 101.987 20.066 102.249 20.066H108.018C108.148 20.066 108.277 20.0406 108.397 19.9912C108.517 19.9418 108.626 19.8695 108.718 19.7782C108.81 19.687 108.883 19.5787 108.933 19.4595C108.982 19.3403 109.008 19.2125 109.008 19.0835V19.0558C109.008 18.9268 109.033 18.7991 109.083 18.6799C109.132 18.5608 109.205 18.4524 109.297 18.3612C109.388 18.2699 109.497 18.1975 109.617 18.1481C109.737 18.0987 109.866 18.0733 109.996 18.0733H110.125C110.255 18.0736 110.383 18.0484 110.503 17.9993C110.624 17.9501 110.733 17.878 110.825 17.7869C110.917 17.6958 110.99 17.5877 111.039 17.4686C111.089 17.3495 111.115 17.2219 111.115 17.0929V8.2827C111.115 8.15378 111.089 8.02612 111.039 7.90704C110.99 7.78796 110.917 7.6798 110.825 7.58874C110.733 7.49768 110.624 7.42551 110.503 7.37637C110.383 7.32723 110.255 7.30208 110.125 7.30236H109.996C109.866 7.30236 109.737 7.27693 109.617 7.22753C109.497 7.17813 109.388 7.10573 109.297 7.01447C109.205 6.92321 109.132 6.81489 109.083 6.6957C109.033 6.57651 109.008 6.4488 109.008 6.31988" fill="white"/>
<path d="M86.8409 6.49708V6.24933C86.8409 6.00009 86.7411 5.76106 86.5636 5.58482C86.386 5.40858 86.1452 5.30957 85.8941 5.30957H77.5453C77.2942 5.30957 77.0533 5.40858 76.8758 5.58482C76.6982 5.76106 76.5985 6.00009 76.5985 6.24933V6.49708C76.5985 6.74632 76.4987 6.98535 76.3212 7.16159C76.1436 7.33783 75.9028 7.43684 75.6517 7.43684H75.4365C75.1854 7.43684 74.9446 7.53585 74.7671 7.71209C74.5895 7.88833 74.4897 8.12736 74.4897 8.3766V17.1334C74.4897 17.3827 74.5895 17.6217 74.7671 17.798C74.9446 17.9742 75.1854 18.0732 75.4365 18.0732H75.6861C75.8105 18.0729 75.9338 18.097 76.0488 18.1442C76.1638 18.1913 76.2683 18.2605 76.3562 18.3478C76.4442 18.4351 76.5139 18.5389 76.5614 18.653C76.6089 18.7671 76.6332 18.8895 76.6329 19.013V19.1262C76.6329 19.3754 76.7327 19.6144 76.9102 19.7907C77.0878 19.9669 77.3286 20.0659 77.5797 20.0659H84.2157C84.3403 20.0662 84.4636 20.0421 84.5787 19.995C84.6938 19.9479 84.7985 19.8787 84.8866 19.7914C84.9747 19.7041 85.0447 19.6004 85.0924 19.4863C85.1401 19.3721 85.1647 19.2498 85.1647 19.1262V18.385C85.1647 18.2615 85.1401 18.1393 85.0924 18.0252C85.0446 17.9112 84.9746 17.8076 84.8865 17.7205C84.7983 17.6334 84.6937 17.5644 84.5786 17.5176C84.4635 17.4707 84.3402 17.4469 84.2157 17.4474H78.0767C77.9522 17.4474 77.8289 17.423 77.7139 17.3757C77.5989 17.3283 77.4945 17.2589 77.4065 17.1714C77.3186 17.0839 77.2489 16.9801 77.2014 16.8658C77.154 16.7515 77.1297 16.6291 77.13 16.5055V8.86784C77.13 8.74453 77.1545 8.62243 77.2021 8.50853C77.2497 8.39464 77.3195 8.29118 77.4074 8.20408C77.4953 8.11699 77.5997 8.04797 77.7146 8.00098C77.8295 7.95398 77.9525 7.92994 78.0767 7.93022H85.4702C85.5943 7.92994 85.7173 7.95399 85.832 8.00102C85.9468 8.04804 86.051 8.11709 86.1388 8.20421C86.2266 8.29133 86.2961 8.39481 86.3435 8.50869C86.3909 8.62258 86.4151 8.74463 86.4148 8.86784V22.6161C86.4151 22.7394 86.3909 22.8616 86.3436 22.9756C86.2962 23.0896 86.2267 23.1932 86.1389 23.2805C86.0512 23.3678 85.947 23.437 85.8322 23.4843C85.7175 23.5315 85.5944 23.5558 85.4702 23.5558H77.6507C77.3998 23.5564 77.1593 23.6556 76.9819 23.8317C76.8044 24.0078 76.7045 24.2465 76.7039 24.4956V25.2367C76.7045 25.4858 76.8044 25.7245 76.9819 25.9006C77.1593 26.0767 77.3998 26.1759 77.6507 26.1765H86.0017C86.2524 26.1759 86.4927 26.0767 86.6698 25.9005C86.8469 25.7243 86.9463 25.4856 86.9463 25.2367V24.989C86.9469 24.7395 87.0471 24.5005 87.225 24.3243C87.4029 24.1482 87.644 24.0492 87.8953 24.0492H88.1104C88.2349 24.0495 88.3581 24.0254 88.4731 23.9783C88.5881 23.9311 88.6926 23.8619 88.7805 23.7746C88.8685 23.6873 88.9382 23.5836 88.9857 23.4694C89.0332 23.3553 89.0575 23.233 89.0572 23.1095V8.37233C89.0572 8.12309 88.9575 7.88406 88.7799 7.70782C88.6024 7.53158 88.3615 7.43257 88.1104 7.43257H87.792C87.5409 7.43257 87.3001 7.33356 87.1225 7.15732C86.9449 6.98108 86.8452 6.74205 86.8452 6.49281" fill="white"/>
<path d="M149.047 2.42728e-06H148.302C148.178 -0.000278461 148.054 0.0238218 147.939 0.0709234C147.824 0.118025 147.72 0.187203 147.631 0.274495C147.543 0.361788 147.473 0.465481 147.426 0.579637C147.378 0.693794 147.353 0.816171 147.353 0.939762V16.5184C147.354 16.642 147.329 16.7644 147.282 16.8787C147.234 16.993 147.165 17.0968 147.077 17.1843C146.989 17.2718 146.884 17.3412 146.769 17.3886C146.654 17.4359 146.531 17.4603 146.407 17.4603H145.604C145.353 17.4597 145.112 17.3603 144.934 17.1837C144.757 17.0071 144.657 16.7678 144.657 16.5184V8.38949C144.657 8.14025 144.557 7.90122 144.38 7.72498C144.202 7.54874 143.962 7.44973 143.71 7.44973H143.495C143.244 7.44973 143.003 7.35072 142.826 7.17448C142.648 6.99824 142.548 6.75921 142.548 6.50997V6.26008C142.548 6.01121 142.448 5.77273 142.27 5.59695C142.093 5.42117 141.852 5.32246 141.602 5.32246H131.985C131.735 5.32246 131.494 5.42117 131.317 5.59695C131.139 5.77273 131.039 6.01121 131.039 6.26008V6.50997C131.039 6.75921 130.939 6.99824 130.761 7.17448C130.584 7.35072 130.343 7.44973 130.092 7.44973H129.877C129.626 7.44973 129.385 7.54874 129.207 7.72498C129.03 7.90122 128.93 8.14025 128.93 8.38949V19.1391C128.93 19.2625 128.954 19.3847 129.002 19.4987C129.05 19.6127 129.119 19.7163 129.207 19.8036C129.295 19.8908 129.4 19.96 129.514 20.0073C129.629 20.0545 129.752 20.0788 129.877 20.0788H130.623C130.748 20.0788 130.871 20.0545 130.986 20.0073C131.101 19.96 131.205 19.8908 131.293 19.8036C131.381 19.7163 131.45 19.6127 131.498 19.4987C131.546 19.3847 131.57 19.2625 131.57 19.1391V14.9507C131.571 14.7016 131.671 14.4629 131.848 14.2868C132.026 14.1107 132.266 14.0115 132.517 14.011H134.023C134.148 14.0112 134.271 13.9871 134.386 13.94C134.501 13.8929 134.606 13.8238 134.694 13.7365C134.782 13.6492 134.852 13.5455 134.9 13.4313C134.948 13.3172 134.972 13.1948 134.972 13.0712V12.3279C134.972 12.2043 134.948 12.082 134.9 11.9678C134.852 11.8537 134.782 11.75 134.694 11.6627C134.606 11.5754 134.501 11.5062 134.386 11.4591C134.271 11.412 134.148 11.3879 134.023 11.3882H132.517C132.266 11.3876 132.026 11.2884 131.848 11.1123C131.671 10.9362 131.571 10.6975 131.57 10.4484V8.88073C131.571 8.63166 131.671 8.39296 131.848 8.21684C132.026 8.04072 132.266 7.94153 132.517 7.94097H141.07C141.321 7.94153 141.562 8.04065 141.74 8.21671C141.918 8.39276 142.018 8.63147 142.019 8.88073V10.4484C142.018 10.6977 141.918 10.9364 141.74 11.1124C141.562 11.2885 141.321 11.3876 141.07 11.3882H136.904C136.78 11.3879 136.657 11.412 136.541 11.4591C136.426 11.5062 136.322 11.5754 136.234 11.6627C136.145 11.75 136.075 11.8537 136.028 11.9678C135.98 12.082 135.955 12.2043 135.955 12.3279V13.0669C135.955 13.1905 135.98 13.3129 136.028 13.4271C136.075 13.5412 136.145 13.6449 136.234 13.7322C136.322 13.8195 136.426 13.8887 136.541 13.9358C136.657 13.9829 136.78 14.007 136.904 14.0067H141.07C141.322 14.0078 141.563 14.1078 141.74 14.2847C141.917 14.4616 142.017 14.7011 142.017 14.9507V17.1506C142.017 17.2739 142.041 17.3961 142.088 17.5101C142.136 17.6241 142.205 17.7277 142.293 17.815C142.381 17.9023 142.485 17.9715 142.6 18.0188C142.714 18.066 142.837 18.0904 142.962 18.0904H143.136C143.387 18.0904 143.628 18.1894 143.805 18.3656C143.983 18.5419 144.083 18.7809 144.083 19.0301V19.1433C144.084 19.3915 144.185 19.6288 144.362 19.8037C144.54 19.9786 144.779 20.0767 145.029 20.0767H146.966C147.217 20.0767 147.458 19.9777 147.636 19.8014C147.813 19.6252 147.913 19.3862 147.913 19.1369V19.0237C147.913 18.7745 148.013 18.5354 148.19 18.3592C148.368 18.183 148.609 18.084 148.86 18.084H149.053C149.304 18.084 149.545 17.9849 149.723 17.8087C149.9 17.6325 150 17.3934 150 17.1442V0.939762C150 0.690522 149.9 0.451491 149.723 0.275252C149.545 0.0990125 149.304 2.42728e-06 149.053 2.42728e-06" fill="white"/>
<path d="M2.63807 10.4526V8.88707C2.63864 8.63763 2.73887 8.39861 2.91676 8.22243C3.09466 8.04625 3.3357 7.94731 3.587 7.94731H11.4517C11.7028 7.94731 11.9436 8.04632 12.1212 8.22256C12.2987 8.3988 12.3985 8.63783 12.3985 8.88707V10.4526C12.3985 10.7019 12.2987 10.9409 12.1212 11.1171C11.9436 11.2934 11.7028 11.3924 11.4517 11.3924H3.587C3.3357 11.3924 3.09466 11.2934 2.91676 11.1173C2.73887 10.9411 2.63864 10.7021 2.63807 10.4526V10.4526ZM51.7909 17.4624C51.6081 17.4624 51.4327 17.3904 51.3033 17.2623C51.1738 17.1342 51.1008 16.9604 51.1002 16.7789V8.39369C51.1002 8.14445 51.0004 7.90542 50.8229 7.72918C50.6453 7.55294 50.4045 7.45394 50.1534 7.45394H49.9382C49.814 7.45394 49.691 7.42961 49.5762 7.38236C49.4615 7.33511 49.3573 7.26585 49.2695 7.17856C49.1818 7.09126 49.1122 6.98765 49.0649 6.87365C49.0176 6.75964 48.9933 6.63749 48.9936 6.51418V6.26642C48.993 6.01699 48.8928 5.77796 48.7149 5.60178C48.537 5.4256 48.296 5.32666 48.0447 5.32666H38.4284C38.1773 5.32666 37.9365 5.42567 37.759 5.60191C37.5814 5.77815 37.4817 6.01718 37.4817 6.26642V6.51418C37.4819 6.63767 37.4576 6.76 37.4102 6.87414C37.3627 6.98828 37.293 7.09199 37.205 7.17931C37.117 7.26664 37.0125 7.33585 36.8975 7.38297C36.7825 7.4301 36.6593 7.45422 36.5349 7.45394H36.3197C36.1952 7.45365 36.0718 7.47775 35.9567 7.52486C35.8416 7.57196 35.737 7.64114 35.6488 7.72843C35.5607 7.81572 35.4908 7.91941 35.443 8.03357C35.3953 8.14773 35.3708 8.2701 35.3708 8.39369V16.5247C35.371 16.6478 35.3469 16.7697 35.2996 16.8834C35.2524 16.9971 35.183 17.1005 35.0955 17.1876C35.0079 17.2747 34.9039 17.3438 34.7895 17.391C34.675 17.4381 34.5522 17.4624 34.4283 17.4624H33.6235C33.4993 17.4627 33.3762 17.4386 33.2614 17.3916C33.1465 17.3446 33.0421 17.2756 32.9542 17.1885C32.8662 17.1014 32.7965 16.9979 32.7489 16.8841C32.7013 16.7702 32.6768 16.6481 32.6768 16.5247V8.39369C32.6768 8.14445 32.577 7.90542 32.3994 7.72918C32.2219 7.55294 31.9811 7.45394 31.73 7.45394H31.5148C31.3904 7.45422 31.2671 7.4301 31.1521 7.38297C31.0371 7.33585 30.9327 7.26664 30.8447 7.17931C30.7567 7.09199 30.687 6.98828 30.6395 6.87414C30.592 6.76 30.5677 6.63767 30.568 6.51418V6.26642C30.5683 6.14293 30.544 6.0206 30.4965 5.90646C30.449 5.79231 30.3793 5.6886 30.2913 5.60128C30.2034 5.51396 30.0989 5.44475 29.9839 5.39762C29.8689 5.3505 29.7457 5.32638 29.6212 5.32666H20.0114C19.8871 5.32666 19.764 5.35097 19.6491 5.3982C19.5343 5.44542 19.4299 5.51465 19.342 5.60191C19.2541 5.68918 19.1843 5.79277 19.1367 5.90679C19.0892 6.02081 19.0647 6.14301 19.0647 6.26642V6.51418C19.0649 6.63767 19.0407 6.76 18.9932 6.87414C18.9457 6.98828 18.876 7.09199 18.788 7.17931C18.7 7.26664 18.5955 7.33585 18.4805 7.38297C18.3655 7.4301 18.2423 7.45422 18.1179 7.45394H17.9027C17.6516 7.45394 17.4108 7.55294 17.2332 7.72918C17.0557 7.90542 16.9559 8.14445 16.9559 8.39369V16.5247C16.9559 16.6481 16.9314 16.7702 16.8838 16.8841C16.8362 16.9979 16.7664 17.1014 16.6785 17.1885C16.5906 17.2756 16.4862 17.3446 16.3713 17.3916C16.2565 17.4386 16.1334 17.4627 16.0092 17.4624H3.587C3.46266 17.4627 3.33949 17.4386 3.22452 17.3917C3.10954 17.3447 3.00501 17.2757 2.91689 17.1886C2.82878 17.1016 2.7588 16.9981 2.71096 16.8842C2.66312 16.7703 2.63835 16.6482 2.63807 16.5247V14.9506C2.63835 14.8272 2.66312 14.7051 2.71096 14.5912C2.7588 14.4773 2.82878 14.3738 2.91689 14.2868C3.00501 14.1997 3.10954 14.1307 3.22452 14.0837C3.33949 14.0368 3.46266 14.0127 3.587 14.013H11.8756C12.0003 14.0133 12.1238 13.9891 12.2391 13.9419C12.3543 13.8947 12.4591 13.8253 12.5472 13.7378C12.6354 13.6503 12.7053 13.5463 12.7529 13.4319C12.8005 13.3175 12.8248 13.1949 12.8245 13.0711V12.8575C12.8243 12.734 12.8485 12.6115 12.896 12.4973C12.9434 12.383 13.0131 12.2791 13.1011 12.1917C13.189 12.1042 13.2935 12.0348 13.4085 11.9874C13.5235 11.94 13.6468 11.9157 13.7713 11.9157H14.0941C14.2183 11.9157 14.3413 11.8913 14.4561 11.8441C14.5708 11.7968 14.6751 11.7276 14.7628 11.6403C14.8505 11.553 14.9201 11.4494 14.9674 11.3354C15.0148 11.2214 15.039 11.0992 15.0387 10.9759V8.39369C15.039 8.27038 15.0148 8.14823 14.9674 8.03423C14.9201 7.92022 14.8505 7.81661 14.7628 7.72931C14.6751 7.64202 14.5708 7.57276 14.4561 7.52551C14.3413 7.47826 14.2183 7.45394 14.0941 7.45394H13.7713C13.6471 7.45394 13.5241 7.42961 13.4093 7.38236C13.2946 7.33511 13.1903 7.26585 13.1026 7.17856C13.0149 7.09126 12.9453 6.98765 12.898 6.87365C12.8506 6.75964 12.8264 6.63749 12.8267 6.51418V6.26642C12.8267 6.14283 12.8021 6.02045 12.7544 5.9063C12.7067 5.79214 12.6368 5.68845 12.5486 5.60116C12.4605 5.51386 12.3559 5.44468 12.2407 5.39758C12.1256 5.35048 12.0023 5.32638 11.8778 5.32666H3.05551C2.931 5.32638 2.80765 5.35048 2.69253 5.39758C2.57742 5.44468 2.47279 5.51386 2.38465 5.60116C2.2965 5.68845 2.22657 5.79214 2.17886 5.9063C2.13114 6.02045 2.10658 6.14283 2.10658 6.26642V6.51418C2.10686 6.63749 2.08264 6.75964 2.03529 6.87365C1.98795 6.98765 1.91841 7.09126 1.83067 7.17856C1.74292 7.26585 1.63869 7.33511 1.52395 7.38236C1.4092 7.42961 1.28619 7.45394 1.16195 7.45394H0.946778C0.695677 7.45394 0.45486 7.55294 0.277305 7.72918C0.0997495 7.90542 0 8.14445 0 8.39369L0 17.1505C0 17.3998 0.0997495 17.6388 0.277305 17.815C0.45486 17.9913 0.695677 18.0903 0.946778 18.0903H1.19638C1.32144 18.0892 1.44548 18.1126 1.56134 18.1594C1.67721 18.2061 1.7826 18.2751 1.87143 18.3625C1.96026 18.4499 2.03077 18.5539 2.07888 18.6684C2.127 18.783 2.15177 18.9059 2.15177 19.0301V19.1433C2.15177 19.3925 2.25152 19.6315 2.42907 19.8078C2.60663 19.984 2.84744 20.083 3.09855 20.083H16.4395C16.5638 20.083 16.687 20.0587 16.8018 20.0115C16.9167 19.9643 17.0211 19.895 17.109 19.8078C17.1969 19.7205 17.2666 19.6169 17.3142 19.5029C17.3618 19.3889 17.3863 19.2667 17.3863 19.1433V19.0301C17.386 18.9066 17.4103 18.7842 17.4578 18.6701C17.5053 18.556 17.575 18.4522 17.663 18.3649C17.7509 18.2776 17.8554 18.2084 17.9704 18.1613C18.0854 18.1141 18.2087 18.09 18.3331 18.0903H18.6537C18.9014 18.0853 19.1373 17.984 19.3107 17.8083C19.4841 17.6326 19.5811 17.3965 19.5811 17.1505V14.9506C19.5811 14.8273 19.6056 14.7052 19.6532 14.5913C19.7008 14.4774 19.7706 14.374 19.8585 14.2869C19.9465 14.1998 20.0509 14.1308 20.1657 14.0838C20.2806 14.0368 20.4036 14.0127 20.5279 14.013H22.0341C22.1586 14.013 22.2819 13.9886 22.3969 13.9413C22.5119 13.8939 22.6164 13.8245 22.7043 13.737C22.7923 13.6495 22.862 13.5457 22.9094 13.4314C22.9569 13.3172 22.9812 13.1947 22.9809 13.0711V12.3321C22.9809 12.0829 22.8811 11.8439 22.7036 11.6676C22.526 11.4914 22.2852 11.3924 22.0341 11.3924H20.5279C20.4035 11.3924 20.2804 11.3681 20.1656 11.3208C20.0507 11.2736 19.9463 11.2044 19.8584 11.1171C19.7705 11.0299 19.7007 10.9263 19.6532 10.8123C19.6056 10.6982 19.5811 10.576 19.5811 10.4526V8.88707C19.5811 8.76366 19.6056 8.64145 19.6532 8.52744C19.7007 8.41342 19.7705 8.30982 19.8584 8.22256C19.9463 8.13529 20.0507 8.06607 20.1656 8.01884C20.2804 7.97162 20.4035 7.94731 20.5279 7.94731H29.0811C29.3324 7.94731 29.5735 8.04625 29.7514 8.22243C29.9293 8.39861 30.0295 8.63763 30.0301 8.88707V10.4526C30.0295 10.7021 29.9293 10.9411 29.7514 11.1173C29.5735 11.2934 29.3324 11.3924 29.0811 11.3924H24.9218C24.6707 11.3924 24.4299 11.4914 24.2523 11.6676C24.0748 11.8439 23.975 12.0829 23.975 12.3321V13.0711C23.9747 13.1947 23.999 13.3172 24.0465 13.4314C24.0939 13.5457 24.1636 13.6495 24.2515 13.737C24.3395 13.8245 24.444 13.8939 24.559 13.9413C24.674 13.9886 24.7973 14.013 24.9218 14.013H29.0898C29.2141 14.0127 29.3373 14.0368 29.4522 14.0837C29.5672 14.1307 29.6717 14.1997 29.7599 14.2868C29.848 14.3738 29.918 14.4773 29.9658 14.5912C30.0136 14.7051 30.0384 14.8272 30.0387 14.9506V17.1505C30.0384 17.274 30.0627 17.3964 30.1102 17.5105C30.1577 17.6246 30.2274 17.7284 30.3154 17.8157C30.4033 17.903 30.5078 17.9722 30.6228 18.0193C30.7378 18.0665 30.861 18.0906 30.9855 18.0903H31.1598C31.4109 18.0903 31.6517 18.1893 31.8292 18.3655C32.0068 18.5418 32.1065 18.7808 32.1065 19.0301V19.1433C32.1065 19.2667 32.131 19.3889 32.1786 19.5029C32.2262 19.6169 32.2959 19.7205 32.3838 19.8078C32.4718 19.895 32.5761 19.9643 32.691 20.0115C32.8059 20.0587 32.929 20.083 33.0533 20.083H34.9899C35.1142 20.083 35.2374 20.0587 35.3522 20.0115C35.4671 19.9643 35.5715 19.895 35.6594 19.8078C35.7473 19.7205 35.817 19.6169 35.8646 19.5029C35.9122 19.3889 35.9367 19.2667 35.9367 19.1433V19.0301C35.9367 18.7808 36.0364 18.5418 36.214 18.3655C36.3915 18.1893 36.6324 18.0903 36.8835 18.0903H37.0771C37.2015 18.0903 37.3246 18.066 37.4394 18.0188C37.5543 17.9715 37.6587 17.9023 37.7466 17.815C37.8345 17.7278 37.9042 17.6242 37.9518 17.5102C37.9994 17.3962 38.0239 17.274 38.0239 17.1505V14.9506C38.0239 14.8273 38.0484 14.7052 38.096 14.5913C38.1436 14.4774 38.2134 14.374 38.3013 14.2869C38.3893 14.1998 38.4937 14.1308 38.6085 14.0838C38.7234 14.0368 38.8464 14.0127 38.9707 14.013H40.4769C40.6016 14.0133 40.7251 13.9891 40.8404 13.9419C40.9556 13.8947 41.0604 13.8253 41.1485 13.7378C41.2367 13.6503 41.3066 13.5463 41.3542 13.4319C41.4018 13.3175 41.4261 13.1949 41.4258 13.0711V12.3321C41.4258 12.2085 41.4013 12.0862 41.3536 11.972C41.3059 11.8579 41.2359 11.7542 41.1478 11.6669C41.0596 11.5796 40.955 11.5104 40.8399 11.4633C40.7248 11.4162 40.6014 11.3921 40.4769 11.3924H38.9707C38.7196 11.3924 38.4788 11.2934 38.3012 11.1171C38.1236 10.9409 38.0239 10.7019 38.0239 10.4526V8.88707C38.0239 8.63783 38.1236 8.3988 38.3012 8.22256C38.4788 8.04632 38.7196 7.94731 38.9707 7.94731H47.5261C47.777 7.94787 48.0175 8.04706 48.1949 8.22318C48.3724 8.3993 48.4723 8.638 48.4729 8.88707V10.4526C48.4723 10.7017 48.3724 10.9404 48.1949 11.1165C48.0175 11.2926 47.777 11.3918 47.5261 11.3924H43.3474C43.2229 11.3921 43.0995 11.4162 42.9844 11.4633C42.8693 11.5104 42.7646 11.5796 42.6765 11.6669C42.5884 11.7542 42.5184 11.8579 42.4707 11.972C42.423 12.0862 42.3984 12.2085 42.3984 12.3321V13.0711C42.3982 13.1949 42.4225 13.3175 42.4701 13.4319C42.5177 13.5463 42.5876 13.6503 42.6757 13.7378C42.7639 13.8253 42.8686 13.8947 42.9839 13.9419C43.0992 13.9891 43.2227 14.0133 43.3474 14.013H47.5153C47.7661 14.013 48.0066 14.1117 48.1841 14.2875C48.3616 14.4633 48.4616 14.7018 48.4621 14.9506V17.1505C48.4621 17.3998 48.5619 17.6388 48.7394 17.815C48.917 17.9913 49.1578 18.0903 49.4089 18.0903H49.5251C49.7083 18.0903 49.884 18.1625 50.0135 18.2911C50.143 18.4197 50.2158 18.5941 50.2158 18.7759L51.7909 17.4624ZM50.2158 18.7759V19.1433C50.2158 19.3925 50.3156 19.6315 50.4931 19.8078C50.6707 19.984 50.9115 20.083 51.1626 20.083H64.7682C64.9514 20.083 65.1271 20.0108 65.2566 19.8822C65.3862 19.7536 65.4589 19.5793 65.4589 19.3974V18.7075C65.4587 18.6174 65.4763 18.5282 65.5109 18.4448C65.5456 18.3615 65.5964 18.2859 65.6606 18.2221C65.7248 18.1584 65.8011 18.1079 65.885 18.0736C65.9689 18.0392 66.0589 18.0217 66.1497 18.022H66.5198C66.703 18.022 66.8786 17.9497 67.0082 17.8211C67.1377 17.6926 67.2105 17.5182 67.2105 17.3364V14.2458C67.2099 14.0644 67.1369 13.8905 67.0074 13.7624C66.8779 13.6343 66.7026 13.5624 66.5198 13.5624H65.8075C65.6247 13.5618 65.4496 13.4893 65.3205 13.3608C65.1914 13.2323 65.119 13.0582 65.119 12.8768V12.0673C65.119 11.8855 65.0462 11.7111 64.9167 11.5825C64.7871 11.4539 64.6114 11.3817 64.4282 11.3817H56.3354C56.2448 11.382 56.1551 11.3645 56.0713 11.3303C55.9875 11.2961 55.9113 11.2458 55.8472 11.1823C55.783 11.1188 55.7321 11.0433 55.6973 10.9603C55.6626 10.8772 55.6447 10.7882 55.6447 10.6982V8.63077C55.6447 8.54084 55.6626 8.45179 55.6973 8.36873C55.7321 8.28567 55.783 8.21023 55.8472 8.14673C55.9113 8.08324 55.9875 8.03294 56.0713 7.99872C56.1551 7.9645 56.2448 7.94703 56.3354 7.94731H65.9323C66.1155 7.94731 66.2912 7.87508 66.4207 7.7465C66.5503 7.61793 66.623 7.44354 66.623 7.26171V6.01226C66.623 5.83043 66.5503 5.65604 66.4207 5.52747C66.2912 5.39889 66.1155 5.32666 65.9323 5.32666H55.804C55.6208 5.32666 55.4451 5.39889 55.3155 5.52747C55.186 5.65604 55.1132 5.83043 55.1132 6.01226V6.76834C55.1132 6.95017 55.0405 7.12455 54.9109 7.25313C54.7814 7.3817 54.6057 7.45394 54.4225 7.45394H53.6952C53.512 7.45394 53.3363 7.52617 53.2068 7.65474C53.0773 7.78332 53.0045 7.9577 53.0045 8.13953V11.2301C53.0045 11.4119 53.0773 11.5863 53.2068 11.7148C53.3363 11.8434 53.512 11.9157 53.6952 11.9157H54.4225C54.6053 11.9157 54.7807 11.9876 54.9102 12.1157C55.0396 12.2438 55.1127 12.4177 55.1132 12.5991V13.3167C55.113 13.4069 55.1306 13.4961 55.1652 13.5795C55.1998 13.6628 55.2507 13.7384 55.3149 13.8022C55.3791 13.8659 55.4554 13.9164 55.5393 13.9507C55.6232 13.9851 55.7132 14.0026 55.804 14.0023H63.6127C63.7372 14.0032 63.8604 14.0284 63.9751 14.0765C64.0897 14.1247 64.1937 14.1948 64.2811 14.2829C64.3684 14.371 64.4374 14.4753 64.4841 14.5899C64.5307 14.7045 64.5542 14.8271 64.553 14.9506V16.7875C64.5525 16.9689 64.4795 17.1427 64.35 17.2709C64.2205 17.399 64.0451 17.4709 63.8623 17.4709H51.7909" fill="white"/>
<path d="M71.4595 20.0764H70.2308C69.8953 20.0764 69.5734 19.9441 69.3362 19.7086C69.0989 19.4731 68.9656 19.1536 68.9656 18.8206V17.6074C68.9656 17.2744 69.0989 16.9549 69.3362 16.7194C69.5734 16.4839 69.8953 16.3516 70.2308 16.3516H71.4595C71.626 16.351 71.791 16.3831 71.945 16.4459C72.099 16.5088 72.239 16.6012 72.3569 16.7179C72.4749 16.8346 72.5684 16.9732 72.6323 17.1258C72.6961 17.2785 72.729 17.4421 72.729 17.6074V18.827C72.7273 19.1597 72.5927 19.4781 72.3546 19.7124C72.1166 19.9466 71.7947 20.0776 71.4595 20.0764" fill="white"/>
</svg>
