<?xml version="1.0" encoding="utf-8"?>
<!-- Generator: Adobe Illustrator 26.2.1, SVG Export Plug-In . SVG Version: 6.00 Build 0)  -->
<svg version="1.1" id="logo" xmlns="http://www.w3.org/2000/svg" xmlns:xlink="http://www.w3.org/1999/xlink" x="0px" y="0px"
	 viewBox="0 0 150 31" style="enable-background:new 0 0 150 31;" xml:space="preserve">
<g>
	<path d="M87.7,9.8C87.7,9.8,87.7,9.8,87.7,9.8c-0.4,0-0.8-0.4-0.8-0.8c0-0.7-0.6-1.3-1.3-1.3c0,0,0,0,0,0h-7.7
		c-0.7,0-1.3,0.6-1.3,1.3c0,0,0,0,0,0c0,0.4-0.4,0.8-0.8,0.8c0,0,0,0,0,0c-0.7,0-1.3,0.6-1.3,1.3c0,0,0,0,0,0v7.9
		c0,0.7,0.6,1.3,1.3,1.3c0,0,0,0,0,0c0.4,0,0.8,0.4,0.8,0.8c0,0,0,0,0,0c0,0.7,0.6,1.3,1.3,1.3c0,0,0,0,0,0h6.4h0.1
		c0.7,0,1.3-0.6,1.3-1.3c0-0.7-0.6-1.3-1.3-1.3h-0.1h-0.9h-5.6c-0.4,0-0.8-0.3-0.8-0.8c0,0,0,0,0,0v-7.8c0-0.5,0.3-0.9,0.8-0.9h7.7
		c0.5,0,0.8,0.4,0.8,0.9v7.2V19v6.3c0,0.4-0.4,0.8-0.8,0.8h-7.8c-0.7,0-1.3,0.6-1.3,1.3c0,0.7,0.6,1.3,1.3,1.3h7.8
		c0.7,0,1.3-0.6,1.3-1.3c0,0,0,0,0,0c0-0.4,0.3-0.8,0.8-0.8c0,0,0,0,0.1,0c0.7,0,1.3-0.6,1.3-1.3c0,0,0,0,0,0v-4.8c0,0,0,0,0,0v-9.3
		C89,10.4,88.5,9.8,87.7,9.8z"/>
	<path d="M125,9.9C125,9.9,125,9.9,125,9.9c-0.5,0-0.8-0.3-0.8-0.8c0-0.7-0.6-1.3-1.3-1.3c0,0,0,0,0,0l-5.5,0c0,0,0,0,0,0
		c-0.7,0-1.3,0.6-1.3,1.3c0,0.7,0.6,1.3,1.3,1.3l4.8,0c1.1,0,1.5,0.4,1.5,0.9v7.7c0,0.5-0.3,0.9-0.8,0.9h-7c-0.5,0-0.8-0.4-0.8-0.9
		V3.6c0-0.7-0.6-1.3-1.3-1.3h0c-0.7,0-1.3,0.6-1.3,1.3v15.5c0,0.7,0.6,1.3,1.3,1.3c0,0,0,0,0,0c0.4,0,0.8,0.4,0.8,0.8c0,0,0,0,0,0
		c0,0.7,0.6,1.3,1.3,1.3c0,0,0,0,0,0h7c0.7,0,1.3-0.6,1.3-1.3c0,0,0,0,0,0c0-0.4,0.3-0.8,0.8-0.8c0,0,0,0,0,0c0.7,0,1.3-0.6,1.3-1.3
		c0,0,0,0,0,0v-7.9C126.3,10.5,125.8,9.9,125,9.9z M123.7,11.2L123.7,11.2C123.7,11.2,123.7,11.2,123.7,11.2
		C123.7,11.2,123.7,11.2,123.7,11.2C123.7,11.2,123.7,11.2,123.7,11.2z"/>
	<path d="M66.7,15.9C66.7,15.9,66.7,15.9,66.7,15.9l-0.1,0c-0.4-0.1-0.7-0.4-0.7-0.8c0-0.7-0.6-1.3-1.3-1.3h0h-7.4
		c-0.4,0-0.8-0.4-0.8-0.8c0,0,0,0,0,0v-1.9c0-0.4,0.4-0.8,0.8-0.8c0,0,0,0,0,0h8.4c0.8,0,1.5-0.6,1.4-1.5c-0.1-0.6-0.6-1.1-1.2-1.2
		c0,0-0.1,0-0.1,0h-8.4c-0.7,0-1.3,0.6-1.3,1.3v0c0,0.4-0.4,0.8-0.8,0.8c-0.7,0-1.3,0.6-1.3,1.3V13c0,0.7,0.6,1.3,1.3,1.3h0
		c0.4,0,0.8,0.4,0.8,0.8v0c0,0.7,0.6,1.3,1.3,1.3h0h7.4c0.4,0,0.8,0.3,0.8,0.8c0,0,0,0,0,0v1.9c0,0.4-0.3,0.8-0.8,0.8c0,0,0,0,0,0
		H52.7c-0.4,0-0.8-0.3-0.8-0.8c0,0,0,0,0,0v-1.6v-6.3c0-0.7-0.6-1.3-1.3-1.3h0c-0.4,0-0.8-0.3-0.8-0.8c0,0,0,0,0,0
		c0-0.7-0.6-1.3-1.3-1.3c0,0,0,0,0,0h-8.9c-0.7,0-1.3,0.6-1.3,1.3c0,0.1,0,0.1-0.5,0.7c-0.1,0.1-0.2,0.1-0.3,0.1c0,0,0,0,0,0
		c-0.7,0-1.3,0.6-1.3,1.3c0,0,0,0,0,0l0,7.9c0,0.4-0.4,0.8-0.8,0.8c0,0,0,0,0,0h-1.6c-0.4,0-0.8-0.3-0.8-0.8c0,0,0,0,0,0v-1.6v-6.3
		c0-0.7-0.6-1.3-1.3-1.3h0c-0.3,0-0.6-0.1-0.7-0.4C31,9.3,30.9,9.1,31,9c0-0.7-0.6-1.3-1.3-1.3c0,0,0,0,0,0h-8.8
		c-0.7,0-1.3,0.6-1.3,1.3c0,0,0,0,0,0c0,0.4-0.3,0.8-0.8,0.8c0,0,0,0,0,0c-0.7,0-1.3,0.6-1.3,1.3c0,0,0,0,0,0v1.6v6.3
		c0,0.4-0.4,0.8-0.8,0.8H3.9c-0.4,0-0.8-0.3-0.8-0.8c0,0,0,0,0,0v-1.9c0-0.4,0.4-0.8,0.8-0.8c0,0,0,0,0,0H12c0.7,0,1.3-0.6,1.3-1.3
		v0c0-0.4,0.4-0.8,0.8-0.8h0c0.7,0,1.3-0.6,1.3-1.3v0v-1.9c0-0.7-0.6-1.3-1.3-1.3h0c-0.4,0-0.8-0.4-0.8-0.8c0-0.7-0.6-1.3-1.3-1.3
		H3.9C3.1,7.7,2.5,8.3,2.5,9v0c0,0.4-0.4,0.8-0.8,0.8c-0.7,0-1.3,0.6-1.3,1.3v7.9c0,0.7,0.6,1.3,1.3,1.3h0c0.4,0,0.8,0.4,0.8,0.8v0
		c0,0.7,0.6,1.3,1.3,1.3h0h12.2c0.7,0,1.8-0.6,1.8-1.3c0-0.4,0.4-0.8,0.8-0.8c0.7,0,1.3-0.6,1.3-1.3c0,0,0,0,0,0v-1.5
		c0-0.1,0-0.1,0-0.2v-0.1c0-0.4,0.4-0.8,0.8-0.8h0.4c0.7,0,1.3-0.6,1.3-1.4c0-0.7-0.6-1.2-1.3-1.3h-0.4c-0.4,0-0.8-0.4-0.8-0.8v-1.9
		c0-0.4,0.4-0.8,0.8-0.8h8.9c0.4,0,0.8,0.4,0.8,0.8V13c0,0.4-0.4,0.8-0.8,0.8h-3.9c-0.7,0-1.3,0.6-1.3,1.4c0,0.7,0.6,1.2,1.3,1.3
		h3.9c0.4,0,0.8,0.4,0.8,0.8v1.9c0,0.7,0.6,1.3,1.3,1.3h0c0.4,0,0.8,0.4,0.8,0.8v0c0,0.7,0.6,1.3,1.3,1.3h0h1.7
		c0.7-0.1,1.2-0.6,1.2-1.3c0-0.4,0.3-0.8,0.8-0.8h0c0.7,0,1.3-0.6,1.3-1.3v-1.9c0-0.3,0.1-0.5,0.4-0.7c0.1-0.1,0.3-0.1,0.4-0.1H40
		c0.8,0,1.5-0.6,1.4-1.5c-0.1-0.6-0.6-1.1-1.2-1.2c0,0-0.1,0-0.1,0h-0.4c0,0-0.1,0-0.1,0c-0.4,0-0.7-0.4-0.7-0.8v0v-1.8
		c0-0.4,0.4-0.8,0.8-0.8h8.9c0.4,0,0.8,0.4,0.8,0.8v0V13c0,0.4-0.4,0.8-0.8,0.8c0,0,0,0,0,0h-4.1c-0.7,0-1.3,0.6-1.3,1.4
		c0,0.7,0.6,1.2,1.3,1.3h4.1c0.4,0,0.8,0.4,0.8,0.8c0,0,0,0,0,0v1.9c0,0.7,0.6,1.3,1.3,1.3h0c0.4,0,0.8,0.4,0.8,0.8v0
		c0,0.7,0.6,1.3,1.3,1.3h11.8c0.7,0,1.3-0.6,1.3-1.3v0c0-0.4,0.4-0.8,0.8-0.8h0c0.7,0,1.3-0.6,1.3-1.3v0v-1.9
		C68,16.5,67.4,15.9,66.7,15.9z M3.1,11.1c0-0.4,0.4-0.8,0.8-0.8c0,0,0,0,0,0H12c0.4,0,0.8,0.4,0.8,0.8c0,0,0,0,0,0V13
		c0,0.4-0.3,0.8-0.8,0.8c0,0,0,0,0,0H3.9c-0.4,0-0.8-0.3-0.8-0.8V11.1z"/>
	<path d="M148.3,2.3c-0.7,0-1.3,0.6-1.3,1.3l0,15.5c0,0.4-0.4,0.8-0.8,0.8c0,0,0,0,0,0h-1.6v0c-0.4,0-0.8-0.3-0.8-0.8c0,0,0,0,0,0
		c0,0,0,0,0,0v-1.4c0,0,0,0,0,0v-0.3v-6.3c0-0.7-0.6-1.3-1.3-1.3c0,0,0,0,0,0c-0.4,0-0.8-0.3-0.8-0.8c0,0,0,0,0-0.1
		c0-0.7-0.6-1.3-1.3-1.3c0,0,0,0,0,0h-8.9c-0.7,0-1.3,0.6-1.3,1.3c0,0,0,0,0,0c0,0.4-0.3,0.8-0.8,0.8c0,0,0,0-0.1,0
		c-0.7,0-1.3,0.6-1.3,1.3c0,0,0,0,0,0l0,10.1c0,0.7,0.6,1.3,1.3,1.3c0.7,0,1.3-0.6,1.3-1.3v-4.2c0.1-0.4,0.4-0.6,0.8-0.6h0.3
		c0.7,0,1.3-0.5,1.4-1.2c0.1-0.7-0.5-1.4-1.2-1.4c0,0-0.1,0-0.1,0h-0.4c-0.4,0-0.7-0.2-0.8-0.6V13h0v-1.8c0-0.4,0.4-0.8,0.8-0.8
		c0,0,0,0,0,0h8.9c0.4,0,0.8,0.4,0.8,0.8v1.9c0,0.4-0.4,0.8-0.8,0.8h-4.1c-0.7,0-1.3,0.5-1.4,1.2c-0.1,0.7,0.5,1.4,1.2,1.4
		c0,0,0.1,0,0.1,0h4.1c0.4,0,0.8,0.4,0.8,0.8c0,0,0,0,0,0v0.6h0v1.3c0,0.7,0.6,1.3,1.3,1.3c0,0,0,0,0,0c0.4,0,0.8,0.4,0.8,0.8
		c0,0,0,0,0,0c0,0.7,0.6,1.3,1.3,1.3c0,0,0,0,0,0h1.7c0.7-0.1,1.2-0.6,1.2-1.3c0-0.4,0.4-0.8,0.8-0.8c0,0,0,0,0,0
		c0.7,0,1.3-0.6,1.3-1.3c0,0,0,0,0,0l0-15.6C149.6,2.9,149,2.3,148.3,2.3z"/>
	<path d="M71.8,18.8h-1.2c-0.7,0-1.3,0.6-1.3,1.3v1.2c0,0.7,0.6,1.3,1.3,1.3h1.2c0.7,0,1.3-0.6,1.3-1.3v-1.2
		C73.1,19.4,72.5,18.8,71.8,18.8z"/>
	<path d="M110.9,11.2C110.9,11.2,110.9,11.2,110.9,11.2l0-0.1c0-0.7-0.6-1.3-1.3-1.3c-0.4,0-0.8-0.3-0.8-0.8c0,0,0,0,0-0.1
		c0-0.7-0.6-1.3-1.3-1.3c0,0,0,0,0,0h-7.7c-0.7,0-1.3,0.6-1.3,1.3c0,0,0,0,0,0c0,0.4-0.3,0.8-0.8,0.8c0,0,0,0-0.1,0
		c-0.7,0-1.3,0.6-1.3,1.3c0,0,0,0,0,0v1.6h0V18v1.1v0.1c0,0.4-0.3,0.8-0.8,0.8c0,0,0,0,0,0H94c-0.4,0-0.8-0.4-0.8-0.8c0,0,0,0,0,0
		V19c0,0,0-0.1,0-0.1V3.6c0-0.7-0.6-1.3-1.3-1.3h0c-0.7,0-1.3,0.6-1.3,1.3v14.2h0v1.3c0,0.7,0.6,1.3,1.3,1.3c0,0,0,0,0,0
		c0.4,0,0.8,0.4,0.8,0.8c0,0,0,0,0,0c0,0.7,0.6,1.3,1.3,1.3c0,0,0,0,0,0h1.7c0.7-0.1,1.2-0.6,1.2-1.3c0-0.4,0.4-0.8,0.8-0.8
		c0,0,0,0,0,0c0.7,0,1.3-0.6,1.3-1.3c0,0,0,0,0,0v0c0,0,0-0.1,0-0.1c0,0,0,0,0,0v-1.5c0-0.1,0-0.1,0-0.2v-6.2c0-0.4,0.4-0.8,0.8-0.8
		h7.7c0.4,0,0.8,0.4,0.8,0.8c0,0,0,0,0,0v7.9c0,0,0,0,0,0v0.1c0,0.4-0.4,0.8-0.8,0.8h-4.8c-0.7,0-1.3,0.6-1.3,1.3c0,0,0,0,0,0v0
		c0,0.7,0.6,1.3,1.3,1.3h4.8c0.7,0,1.3-0.6,1.3-1.3c0,0,0,0,0,0c0-0.4,0.3-0.8,0.8-0.8c0,0,0,0,0.1,0c0.7,0,1.3-0.6,1.3-1.3
		c0,0,0,0,0,0v-1.6L110.9,11.2z"/>
</g>
</svg>
